<?xml version="1.0" standalone="no"?>
<!DOCTYPE svg PUBLIC "-//W3C//DTD SVG 1.1//EN" "http://www.w3.org/Graphics/SVG/1.1/DTD/svg11.dtd" >
<svg xmlns="http://www.w3.org/2000/svg" xmlns:xlink="http://www.w3.org/1999/xlink" version="1.1">
<metadata>
Created by FontForge 20141024 at Mon Mar 23 11:55:25 2015
 By System Administrator
Copyright (c) 2009 by Accademia di Belle Arti di Urbino and students of MA course of Visual design. All rights reserved.
</metadata>
<defs>
<font id="TitilliumMaps29L-1wt" horiz-adv-x="530" >
  <font-face 
    font-family="TitilliumMaps29L"
    font-weight="100"
    font-stretch="normal"
    units-per-em="1000"
    panose-1="0 0 0 0 0 0 0 0 0 0"
    ascent="750"
    descent="-250"
    x-height="500"
    cap-height="700"
    bbox="-49 -267 1000 1062"
    underline-thickness="30"
    underline-position="-70"
    stemh="34"
    stemv="35"
    unicode-range="U+0020-25CA"
  />
<missing-glyph horiz-adv-x="235" 
 />
    <glyph glyph-name=".notdef" horiz-adv-x="235" 
 />
    <glyph glyph-name=".null" horiz-adv-x="0" 
 />
    <glyph glyph-name="CR" horiz-adv-x="235" 
 />
    <glyph glyph-name="space" unicode=" " horiz-adv-x="235" 
 />
    <glyph glyph-name="C" unicode="C" horiz-adv-x="537" 
d="M484 45l3 -34s-101 -20 -180 -20c-206 0 -244 144 -244 356c0 208 31 362 244 362c95 0 180 -19 180 -19l-3 -35s-96 20 -177 20c-188 0 -206 -139 -206 -328c0 -190 22 -322 206 -322c71 0 177 20 177 20z" />
    <glyph glyph-name="c" unicode="c" horiz-adv-x="437" 
d="M275 509c38 0 110 -10 110 -10l-2 -32s-70 10 -108 10c-128 0 -168 -68 -168 -216c0 -162 26 -238 168 -238c38 0 110 9 110 9l2 -32s-74 -9 -112 -9c-167 0 -205 79 -205 270c0 175 56 248 205 248z" />
    <glyph glyph-name="d" unicode="d" horiz-adv-x="538" 
d="M437 730v-730h-35v36s-82 -45 -163 -45c-122 0 -169 99 -169 252c0 172 56 266 210 266c47 0 97 -8 122 -12v233h35zM239 23c75 0 163 47 163 47v397c-26 4 -83 10 -122 10c-132 0 -175 -85 -175 -237c0 -129 38 -217 134 -217z" />
    <glyph glyph-name="e" unicode="e" horiz-adv-x="507" 
d="M249 23c70 0 177 9 177 9l2 -32s-107 -9 -180 -9c-139 0 -184 106 -184 259c0 188 84 259 198 259c113 0 185 -67 185 -240v-33h-346c0 -118 32 -213 148 -213zM101 268h309c0 153 -54 209 -148 209c-90 0 -161 -57 -161 -209z" />
    <glyph glyph-name="f" unicode="f" horiz-adv-x="328" 
d="M139 468v-468h-35v468h-69v32h69v61c0 134 36 178 127 178c35 0 82 -3 82 -3v-31s-54 2 -82 2c-68 0 -92 -37 -92 -147v-60h162v-32h-162z" />
    <glyph glyph-name="g" unicode="g" horiz-adv-x="504" 
d="M253 -239c-134 0 -194 43 -194 159c0 62 41 95 85 128c-16 10 -22 34 -22 65c0 15 30 79 30 79c-46 22 -86 64 -86 151c0 101 66 167 167 167c54 0 88 -13 88 -13l152 3v-35h-113c25 -23 46 -60 46 -122c0 -112 -65 -164 -177 -164c-8 0 -38 2 -50 4c0 0 -23 -57 -23 -70
c0 -49 8 -54 129 -54c124 0 180 -21 180 -134c0 -108 -73 -164 -212 -164zM283 27c-41 0 -113 3 -113 3c-48 -38 -75 -61 -75 -109c0 -95 51 -128 159 -128c114 0 174 46 174 132c0 90 -44 102 -145 102zM229 211c92 0 140 40 140 132c0 91 -46 135 -137 135
c-83 0 -130 -52 -130 -135c0 -86 41 -132 127 -132z" />
    <glyph glyph-name="h" unicode="h" horiz-adv-x="567" 
d="M136 0h-35v730h35v-260s88 39 164 39c136 0 164 -65 164 -249v-260h-35v258c0 160 -18 219 -129 219c-79 0 -164 -40 -164 -40v-437z" />
    <glyph glyph-name="i" unicode="i" horiz-adv-x="215" 
d="M90 0v500h35v-500h-35zM90 645v55h35v-55h-35z" />
    <glyph glyph-name="j" unicode="j" horiz-adv-x="233" 
d="M108 6v494h35v-495c0 -115 -30 -154 -149 -223l-14 31c104 62 128 95 128 193zM108 645v55h35v-55h-35z" />
    <glyph glyph-name="k" unicode="k" horiz-adv-x="483" 
d="M146 0h-35v730h35v-438h88l178 208h41l-188 -226l188 -274h-41l-178 257h-88v-257z" />
    <glyph glyph-name="l" unicode="l" horiz-adv-x="225" 
d="M95 0v730h35v-730h-35z" />
    <glyph glyph-name="m" unicode="m" horiz-adv-x="875" 
d="M156 0h-35v500h35v-40s78 49 154 49c75 0 100 -20 127 -54c0 0 101 54 181 54c136 0 164 -65 164 -249v-260h-35v258c0 160 -18 219 -129 219c-77 0 -167 -50 -167 -50c15 -38 23 -82 23 -167v-260h-35v258c0 160 -28 219 -129 219c-79 0 -154 -50 -154 -50v-427z" />
    <glyph glyph-name="A" unicode="A" horiz-adv-x="604" 
d="M40 0l215 700h96l214 -700h-36l-68 215h-318l-67 -215h-36zM280 666l-127 -417h298l-127 417h-44z" />
    <glyph glyph-name="p" unicode="p" horiz-adv-x="540" 
d="M111 -230v730h35v-40s72 49 163 49c122 0 171 -101 171 -252c0 -175 -57 -266 -212 -266c-54 0 -99 7 -122 12v-233h-35zM309 477c-86 0 -163 -51 -163 -51v-391c22 -4 68 -12 122 -12c129 0 175 75 175 237c0 139 -48 217 -134 217z" />
    <glyph glyph-name="q" unicode="q" horiz-adv-x="538" 
d="M250 -9c-136 0 -180 96 -180 248c0 187 62 270 228 270c48 0 139 -9 139 -9v-730h-35v259s-63 -38 -152 -38zM299 477c-147 0 -192 -77 -192 -236c0 -130 32 -218 143 -218c89 0 152 40 152 40v408s-68 6 -103 6z" />
    <glyph glyph-name="r" unicode="r" horiz-adv-x="354" 
d="M101 0v500h35v-78s88 66 188 88v-34c-88 -19 -188 -87 -188 -87v-389h-35z" />
    <glyph glyph-name="s" unicode="s" horiz-adv-x="483" 
d="M398 495l-2 -33s-97 15 -165 15c-65 0 -129 -22 -129 -100c0 -57 25 -82 137 -99c131 -20 177 -42 177 -134c0 -118 -72 -153 -185 -153c-57 0 -160 15 -160 15l4 33s103 -16 154 -16c94 0 150 22 150 118c0 70 -31 85 -150 104c-115 18 -164 43 -164 130
c0 103 84 134 166 134c77 0 167 -14 167 -14z" />
    <glyph glyph-name="u" unicode="u" horiz-adv-x="557" 
d="M421 500h35v-500h-35v40s-78 -49 -154 -49c-136 0 -164 65 -164 249v260h35v-258c0 -160 18 -219 129 -219c79 0 154 50 154 50v427z" />
    <glyph glyph-name="w" unicode="w" horiz-adv-x="761" 
d="M42 500h37l123 -468h23l136 458h39l136 -458h22l124 468h37l-133 -500h-78l-128 448l-129 -448h-78z" />
    <glyph glyph-name="y" unicode="y" horiz-adv-x="480" 
d="M39 500h37l141 -468h44l143 468h37l-225 -730h-37l73 230h-63z" />
    <glyph glyph-name="z" unicode="z" horiz-adv-x="481" 
d="M60 468v32h360l2 -32l-320 -436h320v-32h-360l-2 32l320 436h-320z" />
    <glyph glyph-name="Z" unicode="Z" horiz-adv-x="570" 
d="M65 666v34h440v-70l-403 -575v-22h403v-34h-440v69l403 574v24h-403z" />
    <glyph glyph-name="zero" unicode="0" 
d="M264 670c140 0 228 -70 228 -356c0 -255 -95 -323 -227 -323s-228 68 -228 325c0 286 93 354 227 354zM264 636c-121 0 -189 -61 -189 -322c0 -236 76 -289 190 -289s189 53 189 291c0 256 -66 320 -190 320z" />
    <glyph glyph-name="one" unicode="1" 
d="M93 524l201 136h36v-660h-36v621l-184 -126z" />
    <glyph glyph-name="two" unicode="2" 
d="M476 0h-422v34l234 239c77 78 129 140 129 228c0 101 -64 135 -165 135c-69 0 -188 -26 -188 -26l-5 34s111 26 194 26c121 0 202 -44 202 -169c0 -107 -65 -177 -128 -240l-224 -226h373v-35z" />
    <glyph glyph-name="three" unicode="3" 
d="M64 647c0 0 106 23 196 23c134 0 195 -52 195 -165c0 -124 -109 -152 -110 -152c75 -20 129 -52 129 -171c0 -129 -74 -191 -205 -191c-98 0 -214 23 -214 23l6 34s109 -24 208 -23c111 1 167 53 167 154c0 119 -72 148 -159 153h-131v34h130c54 0 141 43 141 140
c0 94 -45 130 -156 130c-92 0 -191 -23 -191 -23z" />
    <glyph glyph-name="five" unicode="5" 
d="M85 660h366v-35h-332l-18 -264s93 51 176 51c115 0 205 -49 205 -192c0 -154 -91 -227 -215 -227c-90 0 -206 24 -206 24l5 34s114 -24 200 -24c101 0 178 66 178 193c0 123 -78 158 -168 158c-83 0 -176 -55 -176 -55l-34 4z" />
    <glyph glyph-name="six.001" 
d="M452 651l-4 -33s-72 18 -156 18c-130 0 -208 -73 -208 -284c0 1 103 58 191 58c153 0 209 -80 209 -202c0 -135 -64 -217 -214 -217c-156 0 -224 120 -224 346c0 252 97 333 246 333c84 0 160 -19 160 -19zM273 376c-92 -3 -190 -59 -190 -59c3 -187 53 -292 187 -292
c131 0 176 64 176 183c0 99 -39 168 -173 168z" />
    <glyph glyph-name="seven" unicode="7" 
d="M59 626v34h389v-75l-262 -594l-35 14l259 588v33h-351z" />
    <glyph glyph-name="eight" unicode="8" 
d="M268 670c142 0 235 -49 235 -165c0 -89 -48 -131 -138 -157c83 -24 148 -66 148 -169c0 -149 -109 -188 -245 -188c-129 0 -242 42 -242 177c0 111 59 148 137 180c-77 27 -126 68 -126 158c0 114 87 164 231 164zM268 25c121 0 207 32 207 153c0 107 -74 131 -158 152
h-109c-87 -21 -143 -60 -143 -161c0 -111 89 -144 203 -144zM268 636c-123 0 -193 -32 -193 -131c0 -81 46 -118 133 -142h109c92 22 147 60 147 141c0 98 -71 132 -196 132z" />
    <glyph glyph-name="nine.001" 
d="M74 12l6 32s82 -19 166 -19c130 0 201 78 201 289c0 -1 -103 -58 -191 -58c-147 0 -209 81 -209 197c0 135 71 217 218 217c154 0 219 -120 219 -346c0 -252 -89 -333 -238 -333c-84 0 -172 21 -172 21zM258 290c92 3 190 59 190 59c-3 183 -56 287 -183 287
c-124 0 -180 -64 -180 -183c0 -91 47 -163 173 -163z" />
    <glyph glyph-name="E" unicode="E" horiz-adv-x="572" 
d="M108 0v700h399v-34h-363v-289h303v-34h-303v-309h363v-34h-399z" />
    <glyph glyph-name="F" unicode="F" horiz-adv-x="563" 
d="M108 0v700h400v-34h-364v-316h304v-34h-304v-316h-36z" />
    <glyph glyph-name="G" unicode="G" horiz-adv-x="617" 
d="M356 313v34h181v-331s-136 -25 -215 -25c-206 0 -257 144 -257 356c0 208 44 362 257 362c105 0 215 -25 215 -25l-3 -35s-121 26 -212 26c-188 0 -219 -139 -219 -328c0 -190 35 -322 219 -322c71 0 173 20 179 20v268h-145z" />
    <glyph glyph-name="H" unicode="H" horiz-adv-x="696" 
d="M552 0v334h-408v-334h-36v700h36v-332h408v332h36v-700h-36z" />
    <glyph glyph-name="K" unicode="K" horiz-adv-x="597" 
d="M496 0l-231 329h-121v-329h-36v700h36v-337h119l220 337h43l-231 -352l247 -348h-46z" />
    <glyph glyph-name="Q" unicode="Q" horiz-adv-x="656" 
d="M520 -138l-82 143c-31 -9 -67 -14 -110 -14c-216 0 -263 134 -263 356c0 218 49 362 263 362s263 -142 263 -362c0 -163 -22 -280 -116 -328l81 -140zM328 25c193 0 225 112 225 322c0 197 -37 328 -225 328c-190 0 -225 -129 -225 -328c0 -200 32 -322 225 -322z" />
    <glyph glyph-name="R" unicode="R" horiz-adv-x="630" 
d="M374 291l-25 -1h-205v-290h-36v700h241c139 0 208 -70 208 -200c0 -101 -38 -185 -145 -205l158 -295h-41zM519 500c0 106 -53 166 -170 166h-205v-342h205c131 0 170 79 170 176z" />
    <glyph glyph-name="S" unicode="S" horiz-adv-x="536" 
d="M463 695l-4 -35s-132 17 -190 17c-114 0 -173 -50 -173 -140c0 -112 57 -137 183 -157c132 -21 199 -61 199 -177c0 -146 -69 -210 -207 -210c-75 0 -209 16 -209 16l4 35s133 -17 204 -17c114 0 170 58 170 173c0 92 -47 125 -170 144c-137 21 -212 54 -212 191
c0 119 78 176 211 176c77 0 194 -16 194 -16z" />
    <glyph glyph-name="T" unicode="T" horiz-adv-x="500" 
d="M9 666v34h481v-34h-221v-666h-36v666h-224z" />
    <glyph glyph-name="V" unicode="V" horiz-adv-x="579" 
d="M503 700h36l-189 -700h-116l-194 700h36l187 -666h58z" />
    <glyph glyph-name="N" unicode="N" horiz-adv-x="687" 
d="M108 0v700h85l323 -666h27v666h36v-700h-85l-324 666h-26v-666h-36z" />
    <glyph glyph-name="DLE" horiz-adv-x="0" 
 />
    <glyph glyph-name="endash" unicode="&#x2013;" horiz-adv-x="500" 
d="M0 286h500v-34h-500v34z" />
    <glyph glyph-name="macron" unicode="&#xaf;" horiz-adv-x="446" 
d="M90 642v32h267v-32h-267z" />
    <glyph glyph-name="dollar" unicode="$" 
d="M196 -113l14 109c-70 4 -144 13 -144 13l4 35s76 -10 144 -15l39 298c-120 22 -192 49 -192 178s84 166 217 166h20l16 119h35l-16 -121c69 -5 141 -14 141 -14l-3 -34s-79 9 -142 14l-36 -277c132 -24 200 -45 200 -168c0 -143 -76 -197 -213 -197c-11 0 -22 0 -35 1
l-14 -114zM454 189c0 99 -52 113 -166 132l-38 -294h29c113 0 175 47 175 162zM100 507c0 -103 50 -123 158 -143l36 273h-16c-113 0 -178 -30 -178 -130z" />
    <glyph glyph-name="exclam" unicode="!" horiz-adv-x="262" 
d="M111 0v80h40v-80h-40zM113 213v486h35v-486h-35z" />
    <glyph glyph-name="OE.001" horiz-adv-x="944" 
d="M328 -9c-216 0 -268 124 -268 356c0 228 54 362 268 362c33 0 121 -3 147 -9h409v-36h-373v-286h313v-36h-313v-306h373v-36h-407v-1c-26 -6 -116 -8 -149 -8zM328 25c33 0 120 3 147 9v629c-26 8 -114 12 -147 12c-190 0 -230 -119 -230 -328c0 -210 37 -322 230 -322z
M476 663h-1l1 -332v332z" />
    <glyph glyph-name="summation" unicode="&#x2211;" 
d="M470 -100h-402v67l201 313l-201 311v67h402v-34h-366l-1 -23l210 -321l-210 -323v-23h367v-34z" />
    <glyph glyph-name="a" unicode="a" horiz-adv-x="518" 
d="M418 353v-287c15 -28 41 -39 75 -42l-2 -32c-43 0 -75 12 -99 42c0 0 -92 -43 -195 -43c-78 0 -132 59 -132 146c0 85 47 136 143 146l175 18v52c0 87 -38 122 -111 122s-179 -16 -179 -16l-3 33s102 17 182 17c101 0 146 -53 146 -156zM383 268l-171 -16
c-78 -7 -110 -53 -110 -115c0 -63 40 -114 96 -114c99 0 185 40 185 40v205z" />
    <glyph glyph-name="o" unicode="o" horiz-adv-x="526" 
d="M265 509c135 0 196 -78 196 -250c0 -177 -41 -268 -196 -268c-157 0 -200 79 -200 270c0 175 52 248 200 248zM265 23c137 0 159 87 159 236c0 150 -48 218 -159 218c-120 0 -163 -58 -163 -216c0 -162 26 -238 163 -238z" />
    <glyph glyph-name="J" unicode="J" horiz-adv-x="304" 
d="M208 701l1 -596c0 -158 -39 -178 -169 -178v34c107 0 132 20 132 154v586h36z" />
    <glyph glyph-name="t" unicode="t" horiz-adv-x="372" 
d="M321 468h-172v-262c0 -139 11 -184 92 -184c28 0 88 7 88 7l3 -32s-56 -7 -91 -7c-91 0 -127 44 -127 178v300h-79v32h79v163h35v-163h172v-32z" />
    <glyph glyph-name="n" unicode="n" horiz-adv-x="573" 
d="M146 0h-35v500h35v-40s79 49 165 49c136 0 164 -65 164 -249v-260h-35v258c0 160 -18 219 -129 219c-89 0 -165 -50 -165 -50v-427z" />
    <glyph glyph-name="numbersign" unicode="#" 
d="M513 190h-120v-190h-36v190h-188v-190h-36v190h-120v32h120v226h-120v32h120v190h36v-190h188v190h36v-190h120v-32h-120v-226h120v-32zM357 222v226h-188v-226h188z" />
    <glyph glyph-name="W" unicode="W" horiz-adv-x="872" 
d="M50 700h35l143 -666h38l150 656h40l155 -656h38l138 666h35l-144 -700h-96l-146 643l-141 -643h-96z" />
    <glyph glyph-name="ampersand.001" horiz-adv-x="700" 
d="M303 694c109 0 153 -60 153 -145c0 -99 -50 -144 -165 -182l187 -185c14 40 24 88 31 146h35c-9 -69 -21 -126 -39 -172l140 -137l-24 -26l-131 130c-47 -94 -120 -132 -222 -132c-176 0 -230 83 -230 217c0 124 52 169 163 201c-47 51 -51 88 -51 141
c0 84 50 144 153 144zM270 24c90 0 154 37 194 124l-237 235c-113 -30 -154 -69 -154 -174c0 -119 52 -185 197 -185zM185 550c0 -41 6 -84 45 -123l36 -36c112 38 155 72 155 159c0 69 -32 112 -118 112c-77 0 -118 -38 -118 -112z" />
    <glyph glyph-name="sterling.001" horiz-adv-x="570" 
d="M463 668v-32s-87 12 -120 12c-68 0 -102 -27 -102 -147v-95h182v-32h-182v-340h174l82 16l7 -32l-81 -17l-309 -1v34h92v340h-69v32h69v95c0 146 47 179 137 179c38 0 120 -12 120 -12z" />
    <glyph glyph-name="Euro.001" horiz-adv-x="593" 
d="M68 427h64c13 159 66 250 246 250c95 0 175 -19 175 -19l-3 -35s-91 20 -172 20c-156 0 -198 -77 -208 -216l311 -1v-33h-313c-1 -20 -1 -41 -1 -62c0 -18 0 -36 1 -52l313 -1v-33h-312c10 -144 53 -220 209 -220c71 0 172 20 172 20l3 -34s-96 -20 -175 -20
c-178 0 -234 87 -246 254h-64v34h62c-1 16 -1 34 -1 52c0 21 0 42 1 62h-62v34z" />
    <glyph glyph-name="at" unicode="@" horiz-adv-x="985" 
d="M925 305v-17c0 -289 -68 -298 -163 -298c-56 0 -89 3 -107 63c-34 -19 -120 -62 -191 -62c-62 0 -169 9 -169 252c0 172 46 266 210 266c57 0 132 -27 132 -27v18h35v-200c0 -272 13 -280 90 -280s126 9 126 268v18c0 264 -102 381 -384 381c-277 0 -407 -107 -407 -426
c0 -332 130 -428 407 -428c40 0 143 10 143 10l3 -33s-98 -9 -146 -9c-296 0 -444 99 -444 460c0 338 148 458 444 458c305 0 421 -130 421 -414zM464 23c69 0 146 38 184 60c-8 46 -11 114 -11 217v150s-73 27 -132 27c-142 0 -175 -85 -175 -237c0 -199 78 -217 134 -217z
" />
    <glyph glyph-name="grave" unicode="`" horiz-adv-x="545" 
d="M166 732l192 -96l-15 -27l-193 92z" />
    <glyph glyph-name="acute" unicode="&#xb4;" horiz-adv-x="565" 
d="M150 636l192 96l16 -31l-193 -92z" />
    <glyph glyph-name="dieresis" unicode="&#xa8;" horiz-adv-x="833" 
d="M112 638v62h35v-62h-35zM302 638v62h35v-62h-35z" />
    <glyph glyph-name="circumflex" unicode="&#x2c6;" horiz-adv-x="833" 
d="M275 600l121 132h28l122 -132h-43l-92 100l-93 -100h-43z" />
    <glyph glyph-name="tilde" unicode="&#x2dc;" horiz-adv-x="436" 
d="M373 703l9 -30s-42 -43 -73 -43c-40 0 -115 54 -147 54c-21 0 -70 -45 -70 -45l-10 29s49 47 82 47c40 0 115 -53 147 -53c18 0 62 41 62 41z" />
    <glyph glyph-name="ring" unicode="&#x2da;" horiz-adv-x="833" 
d="M173 650c0 53 42 95 96 95c53 0 94 -42 94 -95c0 -54 -41 -95 -94 -95c-54 0 -96 41 -96 95zM207 650c0 -35 27 -64 62 -64c34 0 61 29 61 64c0 34 -27 63 -61 63c-35 0 -62 -29 -62 -63z" />
    <glyph glyph-name="caron" unicode="&#x2c7;" horiz-adv-x="833" 
d="M396 600l-121 132h42l94 -99l93 99h42l-122 -132h-28z" />
    <glyph glyph-name="ydieresis" unicode="&#xff;" horiz-adv-x="480" 
d="M39 500h37l141 -468h44l143 468h37l-225 -730h-37l73 230h-63zM132 638v62h35v-62h-35zM322 638v62h35v-62h-35z" />
    <glyph glyph-name="scaron" unicode="&#x161;" horiz-adv-x="483" 
d="M398 495l-2 -33s-97 15 -165 15c-65 0 -129 -22 -129 -100c0 -57 25 -82 137 -99c131 -20 177 -42 177 -134c0 -118 -72 -153 -185 -153c-57 0 -160 15 -160 15l4 33s103 -16 154 -16c94 0 150 22 150 118c0 70 -31 85 -150 104c-115 18 -164 43 -164 130
c0 103 84 134 166 134c77 0 167 -14 167 -14zM232 600l-121 132h42l94 -99l93 99h42l-122 -132h-28z" />
    <glyph glyph-name="yacute" unicode="&#xfd;" horiz-adv-x="480" 
d="M34 500h37l141 -468h44l143 468h37l-225 -730h-37l73 230h-63zM162 636l192 96l16 -31l-193 -92z" />
    <glyph glyph-name="zcaron" unicode="&#x17e;" horiz-adv-x="481" 
d="M60 468v32h360l2 -32l-320 -436h320v-32h-360l-2 32l320 436h-320zM216 600l-121 132h42l94 -99l93 99h42l-122 -132h-28z" />
    <glyph glyph-name="backslash.001" horiz-adv-x="833" 
d="M582 14l-35 -14l-301 687l35 14z" />
    <glyph glyph-name="underscore.001" horiz-adv-x="520" 
d="M27 -34h428v-34h-428v34z" />
    <glyph glyph-name="P.001" horiz-adv-x="615" 
d="M358 257h-219v-257h-36v700h255c139 0 207 -61 207 -211c0 -140 -49 -232 -207 -232zM139 291h219c129 0 169 85 169 198c0 123 -55 177 -169 177h-219v-375z" />
    <glyph glyph-name="M" unicode="M" horiz-adv-x="851" 
d="M108 0v700h77l240 -645l242 645h76v-700h-36v666h-14l-244 -645h-50l-241 645h-14v-666h-36z" />
    <glyph glyph-name="U" unicode="U" horiz-adv-x="642" 
d="M127 196c0 -116 72 -171 189 -171c126 0 199 54 199 171v504h36v-504c0 -139 -85 -205 -235 -205c-140 0 -225 65 -225 205v504h36v-504z" />
    <glyph glyph-name="X" unicode="X" horiz-adv-x="581" 
d="M88 700l203 -326l202 326h43l-218 -353l218 -347h-43l-201 322l-204 -322h-43l221 347l-221 353h43z" />
    <glyph glyph-name="Y" unicode="Y" horiz-adv-x="540" 
d="M289 301v-301h-36v301l-223 399h41l200 -359l197 359h42z" />
    <glyph glyph-name="degree" unicode="&#xb0;" 
d="M108 564c0 81 55 136 136 136s136 -55 136 -136s-55 -135 -136 -135s-136 54 -136 135zM142 564c0 -62 40 -103 102 -103s104 41 104 103s-42 104 -104 104s-102 -42 -102 -104z" />
    <glyph glyph-name="section" unicode="&#xa7;" 
d="M421 647l-2 -32s-106 13 -154 13c-89 0 -140 -35 -140 -110c0 -93 49 -108 148 -123c103 -16 166 -41 166 -140c0 -65 -39 -127 -39 -127c24 -19 36 -48 36 -93c0 -104 -62 -158 -173 -158c-60 0 -168 13 -168 13l3 32s110 -14 165 -14c88 0 138 41 138 126
c0 83 -51 92 -145 105c-113 16 -176 46 -176 144c0 68 54 120 54 120c-29 22 -44 55 -44 114c0 96 66 143 175 143c63 0 156 -13 156 -13zM266 363c-43 7 -79 13 -107 26c0 0 -44 -53 -44 -104c0 -75 49 -100 148 -114c46 -7 84 -14 111 -27c0 0 30 52 30 108
c0 83 -54 98 -138 111z" />
    <glyph glyph-name="copyright" unicode="&#xa9;" 
d="M10 434c0 147 108 266 255 266s256 -119 256 -266s-109 -265 -256 -265s-255 118 -255 265zM42 434c0 -129 94 -233 223 -233s224 104 224 233s-95 234 -224 234s-223 -105 -223 -234zM338 321l1 -32s-43 -8 -74 -8c-88 0 -109 61 -109 152s19 154 109 154
c38 0 74 -7 74 -7l-1 -32s-41 7 -73 7c-70 0 -77 -45 -77 -122c0 -76 13 -120 77 -120c28 0 73 8 73 8z" />
    <glyph glyph-name="trademark" unicode="&#x2122;" 
d="M7 590v31h200v-31h-83v-258h-33v258h-84zM242 331v290h50l84 -242l87 242h50v-290h-32v258l-88 -247h-35l-84 247v-258h-32z" />
    <glyph glyph-name="divide.001" 
d="M3 334v36h336v-36h-336zM151 483v80h40v-80h-40zM151 139v80h40v-80h-40z" />
    <glyph glyph-name="registered" unicode="&#xae;" 
d="M10 434c0 147 108 266 255 266s256 -119 256 -266s-109 -265 -256 -265s-255 118 -255 265zM42 434c0 -129 94 -233 223 -233s224 104 224 233s-95 234 -224 234s-223 -105 -223 -234zM340 276l-66 131h-79v-131h-32v315h91c85 0 115 -24 115 -90c0 -47 -15 -80 -59 -91
l65 -134h-35zM195 559v-120h80c44 0 62 14 62 62c0 45 -26 58 -80 58h-62z" />
    <glyph glyph-name="aacute" unicode="&#xe1;" horiz-adv-x="536" 
d="M418 353v-287c15 -28 41 -39 75 -42l-2 -32c-43 0 -75 12 -99 42c0 0 -92 -43 -195 -43c-78 0 -132 59 -132 146c0 85 47 136 143 146l175 18v52c0 87 -38 122 -111 122s-179 -16 -179 -16l-3 33s102 17 182 17c101 0 146 -53 146 -156zM383 268l-171 -16
c-78 -7 -110 -53 -110 -115c0 -63 40 -114 96 -114c99 0 185 40 185 40v205zM159 636l192 96l16 -31l-193 -92z" />
    <glyph glyph-name="agrave" unicode="&#xe0;" horiz-adv-x="536" 
d="M418 353v-287c15 -28 41 -39 75 -42l-2 -32c-43 0 -75 12 -99 42c0 0 -92 -43 -195 -43c-78 0 -132 59 -132 146c0 85 47 136 143 146l175 18v52c0 87 -38 122 -111 122s-179 -16 -179 -16l-3 33s102 17 182 17c101 0 146 -53 146 -156zM383 268l-171 -16
c-78 -7 -110 -53 -110 -115c0 -63 40 -114 96 -114c99 0 185 40 185 40v205zM160 732l192 -96l-15 -27l-193 92z" />
    <glyph glyph-name="acircumflex" unicode="&#xe2;" horiz-adv-x="536" 
d="M418 353v-287c15 -28 41 -39 75 -42l-2 -32c-43 0 -75 12 -99 42c0 0 -92 -43 -195 -43c-78 0 -132 59 -132 146c0 85 47 136 143 146l175 18v52c0 87 -38 122 -111 122s-179 -16 -179 -16l-3 33s102 17 182 17c101 0 146 -53 146 -156zM383 268l-171 -16
c-78 -7 -110 -53 -110 -115c0 -63 40 -114 96 -114c99 0 185 40 185 40v205zM110 600l121 132h28l122 -132h-43l-92 100l-93 -100h-43z" />
    <glyph glyph-name="adieresis" unicode="&#xe4;" horiz-adv-x="536" 
d="M418 353v-287c15 -28 41 -39 75 -42l-2 -32c-43 0 -75 12 -99 42c0 0 -92 -43 -195 -43c-78 0 -132 59 -132 146c0 85 47 136 143 146l175 18v52c0 87 -38 122 -111 122s-179 -16 -179 -16l-3 33s102 17 182 17c101 0 146 -53 146 -156zM383 268l-171 -16
c-78 -7 -110 -53 -110 -115c0 -63 40 -114 96 -114c99 0 185 40 185 40v205zM141 638v62h35v-62h-35zM331 638v62h35v-62h-35z" />
    <glyph glyph-name="atilde" unicode="&#xe3;" horiz-adv-x="536" 
d="M418 353v-287c15 -28 41 -39 75 -42l-2 -32c-43 0 -75 12 -99 42c0 0 -92 -43 -195 -43c-78 0 -132 59 -132 146c0 85 47 136 143 146l175 18v52c0 87 -38 122 -111 122s-179 -16 -179 -16l-3 33s102 17 182 17c101 0 146 -53 146 -156zM383 268l-171 -16
c-78 -7 -110 -53 -110 -115c0 -63 40 -114 96 -114c99 0 185 40 185 40v205zM387 703l9 -30s-42 -43 -73 -43c-40 0 -115 54 -147 54c-21 0 -70 -45 -70 -45l-10 29s49 47 82 47c40 0 115 -53 147 -53c18 0 62 41 62 41z" />
    <glyph glyph-name="aring" unicode="&#xe5;" horiz-adv-x="536" 
d="M418 353v-287c15 -28 41 -39 75 -42l-2 -32c-43 0 -75 12 -99 42c0 0 -92 -43 -195 -43c-78 0 -132 59 -132 146c0 85 47 136 143 146l175 18v52c0 87 -38 122 -111 122s-179 -16 -179 -16l-3 33s102 17 182 17c101 0 146 -53 146 -156zM383 268l-171 -16
c-78 -7 -110 -53 -110 -115c0 -63 40 -114 96 -114c99 0 185 40 185 40v205zM158 670c0 53 42 95 96 95c53 0 94 -42 94 -95c0 -54 -41 -95 -94 -95c-54 0 -96 41 -96 95zM192 670c0 -35 27 -64 62 -64c34 0 61 29 61 64c0 34 -27 63 -61 63c-35 0 -62 -29 -62 -63z" />
    <glyph glyph-name="eacute" unicode="&#xe9;" horiz-adv-x="507" 
d="M249 23c70 0 177 9 177 9l2 -32s-107 -9 -180 -9c-139 0 -184 106 -184 259c0 188 84 259 198 259c113 0 185 -67 185 -240v-33h-346c0 -118 32 -213 148 -213zM101 268h309c0 153 -54 209 -148 209c-90 0 -161 -57 -161 -209zM153 636l192 96l16 -31l-193 -92z" />
    <glyph glyph-name="egrave" unicode="&#xe8;" horiz-adv-x="507" 
d="M249 23c70 0 177 9 177 9l2 -32s-107 -9 -180 -9c-139 0 -184 106 -184 259c0 188 84 259 198 259c113 0 185 -67 185 -240v-33h-346c0 -118 32 -213 148 -213zM101 268h309c0 153 -54 209 -148 209c-90 0 -161 -57 -161 -209zM169 732l192 -96l-15 -27l-193 92z" />
    <glyph glyph-name="ecircumflex" unicode="&#xea;" horiz-adv-x="507" 
d="M249 23c70 0 177 9 177 9l2 -32s-107 -9 -180 -9c-139 0 -184 106 -184 259c0 188 84 259 198 259c113 0 185 -67 185 -240v-33h-346c0 -118 32 -213 148 -213zM101 268h309c0 153 -54 209 -148 209c-90 0 -161 -57 -161 -209zM120 600l121 132h28l122 -132h-43l-92 100
l-93 -100h-43z" />
    <glyph glyph-name="edieresis" unicode="&#xeb;" horiz-adv-x="507" 
d="M249 23c70 0 177 9 177 9l2 -32s-107 -9 -180 -9c-139 0 -184 106 -184 259c0 188 84 259 198 259c113 0 185 -67 185 -240v-33h-346c0 -118 32 -213 148 -213zM101 268h309c0 153 -54 209 -148 209c-90 0 -161 -57 -161 -209zM146 638v62h35v-62h-35zM336 638v62h35v-62
h-35z" />
    <glyph glyph-name="idieresis" unicode="&#xef;" horiz-adv-x="261" 
d="M28 638v62h35v-62h-35zM218 638v62h35v-62h-35zM113 0v500h35v-500h-35z" />
    <glyph glyph-name="ntilde" unicode="&#xf1;" horiz-adv-x="574" 
d="M146 0h-35v500h35v-40s79 49 165 49c136 0 164 -65 164 -249v-260h-35v258c0 160 -18 219 -129 219c-89 0 -165 -50 -165 -50v-427zM430 703l9 -30s-42 -43 -73 -43c-40 0 -115 54 -147 54c-21 0 -70 -45 -70 -45l-10 29s49 47 82 47c40 0 115 -53 147 -53
c18 0 62 41 62 41z" />
    <glyph glyph-name="oacute" unicode="&#xf3;" horiz-adv-x="536" 
d="M265 509c135 0 196 -78 196 -250c0 -177 -41 -268 -196 -268c-157 0 -200 79 -200 270c0 175 52 248 200 248zM265 23c137 0 159 87 159 236c0 150 -48 218 -159 218c-120 0 -163 -58 -163 -216c0 -162 26 -238 163 -238zM150 636l192 96l16 -31l-193 -92z" />
    <glyph glyph-name="ograve" unicode="&#xf2;" horiz-adv-x="536" 
d="M265 509c135 0 196 -78 196 -250c0 -177 -41 -268 -196 -268c-157 0 -200 79 -200 270c0 175 52 248 200 248zM265 23c137 0 159 87 159 236c0 150 -48 218 -159 218c-120 0 -163 -58 -163 -216c0 -162 26 -238 163 -238zM155 732l192 -96l-15 -27l-193 92z" />
    <glyph glyph-name="ocircumflex" unicode="&#xf4;" horiz-adv-x="536" 
d="M265 509c135 0 196 -78 196 -250c0 -177 -41 -268 -196 -268c-157 0 -200 79 -200 270c0 175 52 248 200 248zM265 23c137 0 159 87 159 236c0 150 -48 218 -159 218c-120 0 -163 -58 -163 -216c0 -162 26 -238 163 -238zM128 600l121 132h28l122 -132h-43l-92 100
l-93 -100h-43z" />
    <glyph glyph-name="odieresis" unicode="&#xf6;" horiz-adv-x="536" 
d="M265 509c135 0 196 -78 196 -250c0 -177 -41 -268 -196 -268c-157 0 -200 79 -200 270c0 175 52 248 200 248zM265 23c137 0 159 87 159 236c0 150 -48 218 -159 218c-120 0 -163 -58 -163 -216c0 -162 26 -238 163 -238zM161 638v62h35v-62h-35zM351 638v62h35v-62h-35z
" />
    <glyph glyph-name="otilde" unicode="&#xf5;" horiz-adv-x="536" 
d="M265 509c135 0 196 -78 196 -250c0 -177 -41 -268 -196 -268c-157 0 -200 79 -200 270c0 175 52 248 200 248zM265 23c137 0 159 87 159 236c0 150 -48 218 -159 218c-120 0 -163 -58 -163 -216c0 -162 26 -238 163 -238zM405 703l9 -30s-42 -43 -73 -43
c-40 0 -115 54 -147 54c-21 0 -70 -45 -70 -45l-10 29s49 47 82 47c40 0 115 -53 147 -53c18 0 62 41 62 41z" />
    <glyph glyph-name="uacute" unicode="&#xfa;" horiz-adv-x="557" 
d="M421 500h35v-500h-35v40s-78 -49 -154 -49c-136 0 -164 65 -164 249v260h35v-258c0 -160 18 -219 129 -219c79 0 154 50 154 50v427zM191 636l192 96l16 -31l-193 -92z" />
    <glyph glyph-name="ugrave" unicode="&#xf9;" horiz-adv-x="557" 
d="M421 500h35v-500h-35v40s-78 -49 -154 -49c-136 0 -164 65 -164 249v260h35v-258c0 -160 18 -219 129 -219c79 0 154 50 154 50v427zM167 732l192 -96l-15 -27l-193 92z" />
    <glyph glyph-name="ucircumflex" unicode="&#xfb;" horiz-adv-x="557" 
d="M421 500h35v-500h-35v40s-78 -49 -154 -49c-136 0 -164 65 -164 249v260h35v-258c0 -160 18 -219 129 -219c79 0 154 50 154 50v427zM140 600l121 132h28l122 -132h-43l-92 100l-93 -100h-43z" />
    <glyph glyph-name="udieresis" unicode="&#xfc;" horiz-adv-x="557" 
d="M421 500h35v-500h-35v40s-78 -49 -154 -49c-136 0 -164 65 -164 249v260h35v-258c0 -160 18 -219 129 -219c79 0 154 50 154 50v427zM173 638v62h35v-62h-35zM363 638v62h35v-62h-35z" />
    <glyph glyph-name="minus" unicode="&#x2212;" 
d="M55 284v36h420v-36h-420z" />
    <glyph glyph-name="multiply" unicode="&#xd7;" 
d="M128 458l146 -148l151 148l26 -25l-149 -152l149 -145l-28 -29l-149 149l-148 -149l-26 26l149 148l-149 149z" />
    <glyph glyph-name="plus.001" horiz-adv-x="410" 
d="M-49 234v34h232v232h36v-232h234v-34h-234v-234h-36v234h-232z" />
    <glyph glyph-name="hyphen.001" horiz-adv-x="440" 
d="M60 264v34h320v-34h-320z" />
    <glyph glyph-name="less.001" 
d="M410 520l-315 -206l315 -217v-41s-313 213 -347 238v36l347 229v-39z" />
    <glyph glyph-name="equal.001" 
d="M1 343v34h505v-34h-505zM2 174v34h505v-34h-505z" />
    <glyph glyph-name="greater.001" 
d="M378 314l-315 206v39l347 -229v-36c-34 -25 -347 -238 -347 -238v41z" />
    <glyph glyph-name="slash.001" 
d="M46 12l277 690l33 -14l-277 -689z" />
    <glyph glyph-name="dotlessi" unicode="&#x131;" horiz-adv-x="261" 
d="M113 0v500h35v-500h-35z" />
    <glyph glyph-name="iacute" unicode="&#xed;" horiz-adv-x="261" 
d="M57 636l192 96l16 -31l-193 -92zM113 0v500h35v-500h-35z" />
    <glyph glyph-name="igrave" unicode="&#xec;" horiz-adv-x="261" 
d="M113 0v500h35v-500h-35zM11 732l192 -96l-15 -27l-193 92z" />
    <glyph glyph-name="icircumflex" unicode="&#xee;" horiz-adv-x="261" 
d="M113 0v500h35v-500h-35zM-5 600l121 132h28l122 -132h-43l-92 100l-93 -100h-43z" />
    <glyph glyph-name="Atilde" unicode="&#xc3;" horiz-adv-x="604" 
d="M40 0l215 700h96l214 -700h-36l-68 215h-318l-67 -215h-36zM280 666l-127 -417h298l-127 417h-44zM463 905l11 -28s-52 -55 -83 -55c-43 0 -127 64 -159 64c-21 0 -80 -55 -80 -55l-10 29s57 57 90 57c43 0 127 -63 159 -63c18 0 72 51 72 51z" />
    <glyph glyph-name="Agrave" unicode="&#xc0;" horiz-adv-x="604" 
d="M40 0l215 700h96l214 -700h-36l-68 215h-318l-67 -215h-36zM280 666l-127 -417h298l-127 417h-44zM204 922l192 -96l-15 -27l-193 92z" />
    <glyph glyph-name="Otilde" unicode="&#xd5;" horiz-adv-x="656" 
d="M328 25c173 0 225 92 225 322c0 217 -57 328 -225 328c-170 0 -225 -109 -225 -328c0 -220 52 -322 225 -322zM328 -9c-196 0 -263 114 -263 356c0 238 69 362 263 362s263 -122 263 -362c0 -252 -68 -356 -263 -356zM490 903l11 -28s-52 -55 -83 -55
c-43 0 -127 64 -159 64c-21 0 -80 -55 -80 -55l-10 29s57 57 90 57c43 0 127 -63 159 -63c18 0 72 51 72 51z" />
    <glyph glyph-name="oe.001" horiz-adv-x="876" 
d="M618 23c70 0 182 9 182 9l2 -32s-112 -9 -185 -9c-94 1 -144 38 -169 107c-24 -74 -77 -107 -183 -107c-166 0 -205 69 -205 270c0 185 57 248 205 248c96 0 157 -35 184 -120c33 89 101 120 182 120c123 0 190 -67 190 -240v-33h-355c0 -138 36 -213 152 -213zM265 23
c147 0 164 77 164 236c0 160 -53 218 -164 218c-128 0 -168 -48 -168 -216c0 -172 21 -238 168 -238zM466 268h318c0 153 -49 209 -153 209c-100 0 -165 -57 -165 -209z" />
    <glyph glyph-name="Acircumflex" unicode="&#xc2;" horiz-adv-x="604" 
d="M40 0l215 700h96l214 -700h-36l-68 215h-318l-67 -215h-36zM280 666l-127 -417h298l-127 417h-44zM153 804l134 125h30l134 -125h-45l-104 96l-103 -96h-46z" />
    <glyph glyph-name="Ecircumflex" unicode="&#xca;" horiz-adv-x="572" 
d="M108 0v700h399v-34h-363v-289h303v-34h-303v-309h363v-34h-399zM159 804l134 125h30l134 -125h-45l-104 96l-103 -96h-46z" />
    <glyph glyph-name="Aacute" unicode="&#xc1;" horiz-adv-x="604" 
d="M40 0l215 700h96l214 -700h-36l-68 215h-318l-67 -215h-36zM280 666l-127 -417h298l-127 417h-44zM208 826l192 96l16 -31l-193 -92z" />
    <glyph glyph-name="Edieresis" unicode="&#xcb;" horiz-adv-x="572" 
d="M108 0v700h399v-34h-363v-289h303v-34h-303v-309h363v-34h-399zM202 838v62h35v-62h-35zM398 838v62h35v-62h-35z" />
    <glyph glyph-name="Egrave" unicode="&#xc8;" horiz-adv-x="572" 
d="M108 0v700h399v-34h-363v-289h303v-34h-303v-309h363v-34h-399zM206 922l192 -96l-15 -27l-193 92z" />
    <glyph glyph-name="Ocircumflex" unicode="&#xd4;" horiz-adv-x="656" 
d="M328 25c173 0 225 92 225 322c0 217 -57 328 -225 328c-170 0 -225 -109 -225 -328c0 -220 52 -322 225 -322zM328 -9c-196 0 -263 114 -263 356c0 238 69 362 263 362s263 -122 263 -362c0 -252 -68 -356 -263 -356zM179 809l134 125h30l134 -125h-45l-104 96l-103 -96
h-46z" />
    <glyph glyph-name="Oacute" unicode="&#xd3;" horiz-adv-x="656" 
d="M328 25c173 0 225 92 225 322c0 217 -57 328 -225 328c-170 0 -225 -109 -225 -328c0 -220 52 -322 225 -322zM328 -9c-196 0 -263 114 -263 356c0 238 69 362 263 362s263 -122 263 -362c0 -252 -68 -356 -263 -356zM224 826l192 96l16 -31l-193 -92z" />
    <glyph glyph-name="Igrave" unicode="&#xcc;" horiz-adv-x="226" 
d="M95 0v700h36v-700h-36zM25 922l192 -96l-15 -27l-193 92z" />
    <glyph glyph-name="Idieresis" unicode="&#xcf;" horiz-adv-x="226" 
d="M95 0v700h36v-700h-36zM8 838v62h35v-62h-35zM204 838v62h35v-62h-35z" />
    <glyph glyph-name="Icircumflex" unicode="&#xce;" horiz-adv-x="226" 
d="M95 0v700h36v-700h-36zM-35 804l134 125h30l134 -125h-45l-104 96l-103 -96h-46z" />
    <glyph glyph-name="Iacute" unicode="&#xcd;" horiz-adv-x="226" 
d="M95 0v700h36v-700h-36zM9 826l192 96l16 -31l-193 -92z" />
    <glyph glyph-name="Ograve" unicode="&#xd2;" horiz-adv-x="656" 
d="M328 25c173 0 225 92 225 322c0 217 -57 328 -225 328c-170 0 -225 -109 -225 -328c0 -220 52 -322 225 -322zM328 -9c-196 0 -263 114 -263 356c0 238 69 362 263 362s263 -122 263 -362c0 -252 -68 -356 -263 -356zM240 922l192 -96l-15 -27l-193 92z" />
    <glyph glyph-name="Uacute" unicode="&#xda;" horiz-adv-x="642" 
d="M127 196c0 -116 72 -171 189 -171c126 0 199 54 199 171v504h36v-504c0 -139 -85 -205 -235 -205c-140 0 -225 65 -225 205v504h36v-504zM217 826l192 96l16 -31l-193 -92z" />
    <glyph glyph-name="Ucircumflex" unicode="&#xdb;" horiz-adv-x="642" 
d="M127 196c0 -116 72 -171 189 -171c126 0 199 54 199 171v504h36v-504c0 -139 -85 -205 -235 -205c-140 0 -225 65 -225 205v504h36v-504zM173 804l134 125h30l134 -125h-45l-104 96l-103 -96h-46z" />
    <glyph glyph-name="Ugrave" unicode="&#xd9;" horiz-adv-x="642" 
d="M127 196c0 -116 72 -171 189 -171c126 0 199 54 199 171v504h36v-504c0 -139 -85 -205 -235 -205c-140 0 -225 65 -225 205v504h36v-504zM233 922l192 -96l-15 -27l-193 92z" />
    <glyph glyph-name="cedilla" unicode="&#xb8;" horiz-adv-x="833" 
d="M559 -127c0 -53 -34 -74 -82 -74c-44 0 -81 4 -81 4l2 28s44 -4 78 -4c29 0 48 11 48 46c0 31 -19 42 -48 42h-54v86h33v-58c71 0 104 -14 104 -70z" />
    <glyph glyph-name="AE.001" horiz-adv-x="898" 
d="M429 0v215h-276l-78 -215h-40l251 700h552v-34h-373v-288h313v-34h-313v-310h373v-34h-409zM314 666l-149 -417h264v417h-115z" />
    <glyph glyph-name="Oslash.001" horiz-adv-x="656" 
d="M89 -98l60 129c-80 53 -103 160 -103 316c0 228 54 362 268 362c57 0 103 -10 140 -28l52 111l33 -14l-55 -116c75 -58 98 -166 98 -315c0 -242 -53 -356 -268 -356c-54 0 -98 8 -134 23l-58 -125zM84 347c0 -138 16 -233 81 -283l273 584c-32 18 -72 27 -124 27
c-190 0 -230 -119 -230 -328zM314 25c193 0 230 102 230 322c0 130 -17 226 -76 280l-273 -581c31 -14 70 -21 119 -21z" />
    <glyph glyph-name="germandbls.001" horiz-adv-x="833" 
d="M249 0h-36v532c0 137 32 178 153 178c139 0 190 -41 190 -135c0 -59 -21 -83 -64 -100c-56 -22 -69 -23 -69 -45c0 -13 1 -14 84 -64c95 -58 134 -74 134 -115c0 -177 -37 -260 -238 -260c-30 0 -78 4 -78 4l4 34s57 -4 74 -4c183 0 200 75 200 226c0 16 -31 38 -121 89
c-91 51 -97 58 -97 90c0 51 29 49 87 74c44 19 46 26 46 71c0 75 -42 101 -152 101c-95 0 -117 -26 -117 -157v-519z" />
    <glyph glyph-name="Udieresis" unicode="&#xdc;" horiz-adv-x="642" 
d="M127 196c0 -116 72 -171 189 -171c126 0 199 54 199 171v504h36v-504c0 -139 -85 -205 -235 -205c-140 0 -225 65 -225 205v504h36v-504zM217 838v62h35v-62h-35zM413 838v62h35v-62h-35z" />
    <glyph glyph-name="Odieresis" unicode="&#xd6;" horiz-adv-x="656" 
d="M328 25c173 0 225 92 225 322c0 217 -57 328 -225 328c-170 0 -225 -109 -225 -328c0 -220 52 -322 225 -322zM328 -9c-196 0 -263 114 -263 356c0 238 69 362 263 362s263 -122 263 -362c0 -252 -68 -356 -263 -356zM223 838v62h35v-62h-35zM419 838v62h35v-62h-35z" />
    <glyph glyph-name="Ntilde" unicode="&#xd1;" horiz-adv-x="687" 
d="M108 0v700h85l323 -666h27v666h36v-700h-85l-324 666h-26v-666h-36zM504 903l11 -28s-52 -55 -83 -55c-43 0 -127 64 -159 64c-21 0 -80 -55 -80 -55l-10 29s57 57 90 57c43 0 127 -63 159 -63c18 0 72 51 72 51z" />
    <glyph glyph-name="Eacute" unicode="&#xc9;" horiz-adv-x="572" 
d="M108 0v700h399v-34h-363v-289h303v-34h-303v-309h363v-34h-399zM223 826l192 96l16 -31l-193 -92z" />
    <glyph glyph-name="Ccedilla" unicode="&#xc7;" horiz-adv-x="537" 
d="M422 -127c0 -53 -34 -74 -82 -74c-44 0 -81 4 -81 4l2 28s44 -4 78 -4c29 0 48 11 48 46c0 31 -19 42 -48 42h-54v77c-187 9 -222 151 -222 355c0 208 31 362 244 362c95 0 180 -19 180 -19l-3 -35s-96 20 -177 20c-188 0 -206 -139 -206 -328c0 -190 22 -322 206 -322
c71 0 177 20 177 20l3 -34s-92 -18 -169 -20v-48c71 0 104 -14 104 -70z" />
    <glyph glyph-name="Aring" unicode="&#xc5;" horiz-adv-x="604" 
d="M399 760c0 -37 -16 -64 -42 -79l208 -681h-36l-68 215h-318l-67 -215h-36l209 680c-28 14 -44 42 -44 80c0 58 39 92 97 92s97 -34 97 -92zM280 666l-127 -417h298l-127 417h-44zM238 760c0 -33 16 -54 44 -60h39c28 6 45 27 45 60c0 40 -24 62 -64 62s-64 -22 -64 -62z
" />
    <glyph glyph-name="Adieresis" unicode="&#xc4;" horiz-adv-x="604" 
d="M40 0l215 700h96l214 -700h-36l-68 215h-318l-67 -215h-36zM280 666l-127 -417h298l-127 417h-44zM186 838v62h35v-62h-35zM382 838v62h35v-62h-35z" />
    <glyph glyph-name="ccedilla" unicode="&#xe7;" horiz-adv-x="437" 
d="M367 -127c0 -53 -34 -74 -82 -74c-44 0 -81 4 -81 4l2 28s44 -4 78 -4c29 0 48 11 48 46c0 31 -19 42 -48 42h-54v79c-129 13 -160 94 -160 267c0 175 56 248 205 248c38 0 110 -10 110 -10l-2 -32s-70 10 -108 10c-128 0 -168 -68 -168 -216c0 -162 26 -238 168 -238
c38 0 110 9 110 9l2 -32s-74 -9 -112 -9h-12v-48c71 0 104 -14 104 -70z" />
    <glyph glyph-name="Scaron" unicode="&#x160;" horiz-adv-x="536" 
d="M463 695l-4 -35s-132 17 -190 17c-114 0 -173 -50 -173 -140c0 -112 57 -137 183 -157c132 -21 199 -61 199 -177c0 -146 -69 -210 -207 -210c-75 0 -209 16 -209 16l4 35s133 -17 204 -17c114 0 170 58 170 173c0 92 -47 125 -170 144c-137 21 -212 54 -212 191
c0 119 78 176 211 176c77 0 194 -16 194 -16zM425 934l-134 -125h-30l-134 125h45l104 -96l103 96h46z" />
    <glyph glyph-name="lslash" unicode="&#x142;" horiz-adv-x="225" 
d="M95 0v319l-78 -54l-19 27l97 68v370h35v-346l81 57l19 -27l-100 -70v-344h-35z" />
    <glyph glyph-name="Lslash" unicode="&#x141;" 
d="M24 261l-20 27l99 69v343h36v-318l209 147l20 -27l-229 -161v-307h341v-34h-377v316z" />
    <glyph glyph-name="eth" unicode="&#xf0;" 
d="M159 556l-20 27l106 72c-38 20 -82 38 -133 53l13 31c57 -17 108 -38 152 -63l102 69l20 -27l-89 -61c113 -73 172 -174 172 -302c0 -271 -63 -364 -215 -364c-133 0 -215 80 -215 223c0 126 78 211 204 211c78 0 189 -44 189 -44c-3 92 -52 185 -167 255zM258 391
c-107 0 -170 -73 -170 -177c0 -122 64 -189 179 -189c130 0 177 74 179 321c0 0 -116 45 -188 45z" />
    <glyph glyph-name="Eth" unicode="&#xd0;" horiz-adv-x="653" 
d="M26 334v34h82v332h250c176 0 234 -174 234 -340s-58 -360 -234 -360h-250v334h-82zM554 360c0 140 -46 306 -196 306h-214v-298h172v-34h-172v-300h214c150 0 196 186 196 326z" />
    <glyph glyph-name="Yacute" unicode="&#xdd;" horiz-adv-x="540" 
d="M289 301v-301h-36v301l-223 399h41l200 -359l197 359h42zM166 826l192 96l16 -31l-193 -92z" />
    <glyph glyph-name="Thorn" unicode="&#xde;" horiz-adv-x="615" 
d="M353 169c121 0 169 87 169 198s-48 177 -169 177h-209v-375h209zM353 135h-209v-135h-36v700h36v-122h209c145 0 207 -76 207 -211s-62 -232 -207 -232z" />
    <glyph glyph-name="thorn" unicode="&#xfe;" horiz-adv-x="548" 
d="M269 23c128 0 174 75 174 238c0 138 -48 216 -135 216c-88 0 -162 -51 -162 -51v-391s68 -12 123 -12zM308 509c123 0 172 -99 172 -249c0 -176 -57 -269 -210 -269c-56 0 -124 10 -124 10v-231h-35v960h35v-270s73 49 162 49z" />
    <glyph glyph-name="Zcaron" unicode="&#x17d;" horiz-adv-x="570" 
d="M65 666v34h440v-70l-403 -575v-22h403v-34h-440v69l403 574v24h-403zM445 928l-134 -125h-30l-134 125h45l104 -96l103 96h46z" />
    <glyph glyph-name="Ydieresis" unicode="&#x178;" horiz-adv-x="540" 
d="M289 301v-301h-36v301l-223 399h41l200 -359l197 359h42zM160 837v62h35v-62h-35zM356 837v62h35v-62h-35z" />
    <glyph glyph-name="oslash" unicode="&#xf8;" horiz-adv-x="526" 
d="M265 509c32 0 59 -5 83 -14l45 110l30 -11l-47 -113c58 -36 85 -108 85 -222c0 -177 -41 -268 -196 -268c-34 0 -62 4 -85 11l-47 -116l-30 10l48 118c-65 35 -86 114 -86 247c0 175 52 248 200 248zM102 261c0 -111 12 -182 64 -215l170 418c-20 8 -44 13 -71 13
c-120 0 -163 -58 -163 -216zM265 23c137 0 159 87 159 236c0 94 -19 156 -61 189l-171 -415c20 -7 44 -10 73 -10z" />
    <glyph glyph-name="ae.001" horiz-adv-x="828" 
d="M570 23c70 0 182 9 182 9l2 -32s-112 -9 -185 -9c-69 1 -114 21 -143 58l-38 -16s-93 -42 -206 -42c-82 0 -127 48 -127 146c0 95 40 128 138 144l190 20v52c0 87 -39 122 -111 122c-74 0 -188 -9 -188 -9l-2 33s110 10 190 10c78 0 123 -32 139 -96c36 71 98 96 172 96
c123 0 190 -67 190 -240v-33h-355c0 -138 36 -213 152 -213zM183 23c93 0 211 44 228 51c-22 43 -30 103 -30 176v18l-184 -18c-74 -7 -105 -41 -105 -113c0 -74 35 -114 91 -114zM418 268h318c0 153 -49 209 -153 209c-100 0 -165 -57 -165 -209z" />
    <glyph glyph-name="zero.pnum" 
d="M262 509c120 0 201 -53 201 -268c0 -194 -91 -250 -200 -250c-102 0 -200 56 -200 252c0 204 89 266 199 266zM263 477c-90 0 -165 -42 -165 -233c0 -177 75 -221 166 -221c97 0 164 44 164 219c0 193 -67 235 -165 235z" />
    <glyph glyph-name="one.pnum" 
d="M109 391l170 109h35v-500h-35v462l-153 -99z" />
    <glyph glyph-name="two.pnum" 
d="M462 0h-361v32l211 183c63 55 99 89 99 155c0 77 -39 107 -132 107c-58 0 -175 -19 -175 -20l-3 31s108 21 179 21c110 0 166 -44 166 -139c0 -81 -42 -118 -100 -167l-205 -171h321v-32z" />
    <glyph glyph-name="three.pnum" 
d="M117 492c0 0 96 18 172 18c108 0 171 -33 171 -126c0 -95 -96 -117 -97 -117c57 -16 112 -39 112 -130c0 -99 -67 -146 -179 -146c-83 0 -186 18 -186 18l5 32s100 -18 181 -18c90 1 144 34 144 112c0 91 -62 111 -128 115h-132v32h131c59 3 114 28 114 103
c0 71 -45 93 -135 93c-76 0 -169 -18 -169 -18z" />
    <glyph glyph-name="four.pnum" 
d="M352 0v116h-293v31l186 353h36l-183 -352h254v132h35v-132h61v-32h-61v-116h-35z" />
    <glyph glyph-name="five.pnum" 
d="M133 501h326v-32h-295l-14 -196s103 40 161 40c90 0 174 -40 174 -149c0 -117 -84 -173 -176 -173c-66 0 -193 18 -193 18l4 32s126 -18 189 -18c76 0 141 44 141 141c0 92 -66 117 -140 117c-62 0 -169 -43 -169 -43l-24 6z" />
    <glyph glyph-name="six.pnum" 
d="M437 494l-3 -31s-84 14 -148 14c-99 0 -174 -49 -174 -208c0 1 105 44 172 44c123 0 181 -54 181 -156c0 -108 -72 -167 -195 -167c-117 0 -192 81 -192 262c0 190 86 257 208 257c74 0 151 -15 151 -15zM282 281c-70 -2 -170 -44 -170 -44c2 -143 58 -216 158 -216
c102 0 160 44 160 136c0 85 -47 124 -148 124z" />
    <glyph glyph-name="seven.pnum" 
d="M114 469v32h337v-63l-235 -447l-32 10l232 440v28h-302z" />
    <glyph glyph-name="eight.pnum" 
d="M269 509c106 0 199 -36 199 -126c0 -68 -37 -100 -106 -120c64 -19 113 -47 113 -130c0 -114 -96 -143 -206 -143c-106 0 -212 33 -212 136c0 88 55 112 115 137c-59 20 -107 52 -107 121c0 90 96 125 204 125zM269 22c91 0 171 18 171 111c0 82 -50 97 -115 113h-119
c-66 -16 -114 -43 -114 -120c0 -85 92 -104 177 -104zM269 477c-88 0 -169 -19 -169 -94c0 -62 40 -86 106 -105h119c71 17 108 42 108 104c0 75 -76 95 -164 95z" />
    <glyph glyph-name="nine.pnum" 
d="M78 6l2 32s98 -15 162 -15c100 0 180 49 180 211c0 -1 -108 -44 -175 -44c-113 0 -189 56 -189 154c0 104 83 166 196 166c147 0 204 -86 204 -259c0 -193 -92 -260 -216 -260c-64 0 -164 15 -164 15zM248 222c70 3 175 44 175 44c-3 142 -42 212 -169 212
c-96 0 -161 -43 -161 -134c0 -79 59 -122 155 -122z" />
    <glyph glyph-name="brokenbar" unicode="&#xa6;" 
d="M239 750h35v-416h-35v416zM239 176h35v-426h-35v426z" />
    <glyph glyph-name="bar.001" 
d="M242 -59v759h35v-759h-35z" />
    <glyph glyph-name="cent.001" horiz-adv-x="437" 
d="M186 -86v127c-116 6 -174 48 -174 206c0 141 71 202 174 212v132h35v-130c39 -1 116 -11 116 -11l-2 -35s-75 9 -114 10v-348c39 0 116 8 116 8l2 -35s-79 -9 -118 -9v-127h-35zM52 247c0 -130 35 -164 134 -169v345c-88 -9 -134 -61 -134 -176z" />
    <glyph glyph-name="notequal.001" 
d="M61 340v34h247l72 163l35 -14l-66 -149h137v-34h-152l-66 -151h219v-34h-234l-72 -165l-35 14l66 151h-150v34h165l66 151h-232z" />
    <glyph glyph-name="plusminus" unicode="&#xb1;" 
d="M55 285v36h190v169h40v-169h190v-36h-190v-153h-40v153h-190zM55 94h420v-36h-420v36z" />
    <glyph glyph-name="pi" unicode="&#x3c0;" 
d="M375 154v311h-204l-29 -465h-35l29 465c-95 -2 -132 -13 -132 -13v35c57 11 150 13 150 13h216s95 0 144 16v-35s-34 -12 -104 -15v-312c0 -103 22 -120 99 -120v-34c-101 0 -134 30 -134 154z" />
    <glyph glyph-name="yen.001" horiz-adv-x="540" 
d="M47 331v34h171l-193 295h41l205 -309l202 309h42l-191 -295h168v-34h-190l-13 -20v-95h204v-34h-204v-182h-36v182h-205v34h205v95l-13 20h-193z" />
    <glyph glyph-name="mu.001" 
d="M90 -250v750h35v-258c0 -170 18 -219 129 -219c89 0 164 50 164 50v427h35v-500h-35v40s-78 -49 -164 -49c-66 0 -106 17 -129 51v-292h-35z" />
    <glyph glyph-name="florin.001" 
d="M289 352v-418c0 -134 -46 -179 -127 -179c-35 0 -92 3 -92 3l2 33s62 -3 90 -3c58 0 92 36 92 146v418h-69v32h69v111c0 124 46 178 127 178c35 0 93 -3 93 -3l-2 -32s-61 2 -91 2c-58 0 -92 -46 -92 -146v-110h162v-32h-162z" />
    <glyph glyph-name="comma.001" horiz-adv-x="170" 
d="M-6 -123l42 210h40l-51 -210h-31z" />
    <glyph glyph-name="period.001" horiz-adv-x="248" 
d="M98 0v80h40v-80h-40z" />
    <glyph glyph-name="quoteright.001" horiz-adv-x="170" 
d="M4 527l40 200h38l-48 -200h-30z" />
    <glyph glyph-name="bullet" unicode="&#x2022;" 
d="M140 110v290h250v-290h-250z" />
    <glyph glyph-name="paragraph.001" horiz-adv-x="833" 
d="M518 0v667h-172v-667h-36v350h-7c-103 0 -186 69 -186 174s83 176 186 176h348v-33h-97v-667h-36z" />
    <glyph glyph-name="ordfeminine" unicode="&#xaa;" 
d="M336 571v-134c5 -16 16 -21 37 -23l-2 -28c-25 1 -38 7 -54 22c0 0 -63 -22 -119 -22c-41 0 -70 31 -70 80c0 48 24 72 75 76l102 7v23c0 44 -16 55 -52 55c-34 0 -104 -7 -104 -7l-2 31s69 8 106 8c57 0 83 -25 83 -88zM305 520l-97 -6c-34 -2 -47 -17 -47 -50
c0 -32 15 -46 40 -46c45 0 104 17 104 17v85z" />
    <glyph glyph-name="ordmasculine" unicode="&#xba;" 
d="M249 659c76 0 113 -41 113 -135s-37 -138 -113 -138s-115 44 -115 138s39 135 115 135zM249 418c57 0 79 30 79 106s-22 103 -79 103s-81 -27 -81 -103s24 -106 81 -106z" />
    <glyph glyph-name="braceright.001" horiz-adv-x="285" 
d="M135 454l7 116c0 90 -29 140 -143 145l2 32c128 -5 176 -58 176 -177c0 -39 -7 -98 -7 -123c0 -65 28 -97 104 -118v-32c-77 -19 -104 -55 -104 -120c0 -28 7 -91 7 -128c0 -119 -48 -172 -176 -177l-2 32c114 5 143 55 143 145c0 33 -7 90 -7 119c0 88 27 120 100 144
c-73 24 -100 58 -100 142z" />
    <glyph glyph-name="quoteleft.001" horiz-adv-x="170" 
d="M56 727l-40 -200h-38l48 200h30z" />
    <glyph glyph-name="guilsinglleft" unicode="&#x2039;" horiz-adv-x="272" 
d="M212 360l-135 -106l135 -117v-41l-167 138v36l167 129v-39z" />
    <glyph glyph-name="I" unicode="I" horiz-adv-x="226" 
d="M95 0v700h36v-700h-36z" />
    <glyph glyph-name="O" unicode="O" horiz-adv-x="656" 
d="M328 25c173 0 225 92 225 322c0 217 -57 328 -225 328c-170 0 -225 -109 -225 -328c0 -220 52 -322 225 -322zM328 -9c-196 0 -263 114 -263 356c0 238 69 362 263 362s263 -122 263 -362c0 -252 -68 -356 -263 -356z" />
    <glyph glyph-name="guillemotleft" unicode="&#xab;" horiz-adv-x="479" 
d="M212 360l-135 -106l135 -117v-41l-167 138v36l167 129v-39zM419 360l-135 -106l135 -117v-41l-167 138v36l167 129v-39z" />
    <glyph glyph-name="guillemotright" unicode="&#xbb;" horiz-adv-x="479" 
d="M402 254l-135 106v39l167 -129v-36l-167 -138v41zM195 254l-135 106v39l167 -129v-36l-167 -138v41z" />
    <glyph glyph-name="quotedblleft" unicode="&#x201c;" horiz-adv-x="340" 
d="M136 725l-40 -200h-38l49 200h29zM280 725l-40 -200h-38l49 200h29z" />
    <glyph glyph-name="asciitilde" unicode="~" 
d="M455 370l7 -37s-54 -52 -100 -52c-62 0 -143 54 -192 54c-37 0 -95 -53 -95 -53l-7 35s56 54 102 54c63 0 147 -54 191 -54c37 0 94 53 94 53z" />
    <glyph glyph-name="emdash" unicode="&#x2014;" horiz-adv-x="1000" 
d="M0 286h1000v-34h-1000v34z" />
    <glyph glyph-name="L" unicode="L" 
d="M475 0h-367v700h36v-666h331v-34z" />
    <glyph glyph-name="B" unicode="B" horiz-adv-x="627" 
d="M108 700h230c134 0 202 -62 202 -170c0 -89 -40 -148 -97 -169c62 -17 124 -67 124 -165c0 -143 -84 -196 -210 -196h-249v700zM349 341h-205v-307h213c102 0 173 47 173 162c0 132 -130 145 -181 145zM338 666h-194v-292h205c109 0 154 64 154 156
c0 87 -53 136 -165 136z" />
    <glyph glyph-name="D" unicode="D" horiz-adv-x="653" 
d="M358 0h-250v700h250c176 0 234 -174 234 -340s-58 -360 -234 -360zM554 360c0 140 -46 306 -196 306h-214v-632h214c150 0 196 186 196 326z" />
    <glyph glyph-name="P" unicode="P" horiz-adv-x="615" 
d="M353 257h-209v-257h-36v700h245c145 0 207 -76 207 -211s-62 -232 -207 -232zM144 291h209c121 0 169 87 169 198s-48 177 -169 177h-209v-375z" />
    <glyph glyph-name="b" unicode="b" horiz-adv-x="538" 
d="M308 509c136 0 170 -106 170 -248c0 -157 -42 -270 -228 -270c-68 0 -139 9 -139 9v730h35v-258s73 37 162 37zM249 23c167 0 192 107 192 236c0 120 -22 218 -133 218c-89 0 -162 -37 -162 -37v-412s68 -5 103 -5z" />
    <glyph glyph-name="v" unicode="v" horiz-adv-x="480" 
d="M40 500h37l141 -468h43l143 468h37l-153 -500h-98z" />
    <glyph glyph-name="x" unicode="x" horiz-adv-x="456" 
d="M42 500h40l146 -223l146 223h40l-165 -250l164 -250h-41l-144 223l-144 -223h-41l164 250z" />
    <glyph glyph-name="six" unicode="6" 
d="M454 652l-4 -33s-86 17 -163 17c-123 0 -204 -75 -205 -278c0 1 111 48 189 48c133 0 215 -62 215 -194c0 -136 -86 -221 -221 -221c-146 0 -221 128 -221 346c0 251 104 333 243 333c74 0 167 -18 167 -18zM270 372c-85 0 -189 -49 -189 -49c4 -173 57 -298 184 -298
c113 0 183 69 183 187c0 112 -73 160 -178 160z" />
    <glyph glyph-name="nine" unicode="9" 
d="M77 12l6 32s86 -19 163 -19c131 0 207 81 209 273c0 0 -121 -42 -199 -42c-126 0 -206 65 -206 201c0 133 94 213 217 213c152 0 225 -125 225 -346c0 -252 -97 -333 -246 -333c-74 0 -169 21 -169 21zM258 290c72 0 198 43 198 43c-2 187 -59 303 -189 303
c-105 0 -179 -67 -179 -179c0 -114 63 -167 170 -167z" />
    <glyph glyph-name="yen" unicode="&#xa5;" horiz-adv-x="540" 
d="M47 331v34h171l-193 295h41l205 -309l202 309h42l-191 -295h168v-34h-190l-13 -20v-95h204v-34h-204v-182h-36v182h-205v34h205v95l-13 20h-193z" />
    <glyph glyph-name="less" unicode="&#x3c;" 
d="M418 500l-295 -196l295 -207v-41l-327 228v36l327 219v-39z" />
    <glyph glyph-name="greater" unicode="&#x3e;" 
d="M407 304l-295 196v39l327 -219v-36l-327 -228v41z" />
    <glyph glyph-name="bracketleft" unicode="[" horiz-adv-x="300" 
d="M231 749v-32h-147v-808h147v-32h-183v872h183z" />
    <glyph glyph-name="backslash" unicode="\" 
d="M432 14l-35 -14l-301 687l35 14z" />
    <glyph glyph-name="bracketright" unicode="]" horiz-adv-x="300" 
d="M51 717v32h183v-872h-183v32h147v808h-147z" />
    <glyph glyph-name="bar" unicode="|" 
d="M242 -250v1000h35v-1000h-35z" />
    <glyph glyph-name="notequal" unicode="&#x2260;" 
d="M61 351v36h248l72 163l31 -14l-66 -149h123v-36h-138l-59 -131h197v-36h-212l-76 -171l-31 14l70 157h-159v36h174l59 131h-233z" />
    <glyph glyph-name="AE" unicode="&#xc6;" horiz-adv-x="847" 
d="M383 0v215h-255l-67 -215h-36l215 700h542v-34h-363v-289h303v-34h-303v-309h363v-34h-399zM265 666l-127 -417h245v417h-118z" />
    <glyph glyph-name="mu" unicode="&#xb5;" 
d="M103 -230v730h35v-258c0 -160 17 -219 128 -219c79 0 155 50 155 50v427h35v-500h-35v40s-79 -49 -155 -49c-109 0 -127 56 -128 61v-282h-35z" />
    <glyph glyph-name="mu" unicode="&#x3bc;" 
d="M103 -230v730h35v-258c0 -160 17 -219 128 -219c79 0 155 50 155 50v427h35v-500h-35v40s-79 -49 -155 -49c-109 0 -127 56 -128 61v-282h-35z" />
    <glyph glyph-name="ae" unicode="&#xe6;" horiz-adv-x="828" 
d="M570 23c70 0 182 9 182 9l2 -32s-112 -9 -185 -9c-69 0 -115 22 -143 58l-38 -16s-93 -42 -206 -42c-82 0 -127 48 -127 146c0 112 52 132 185 149l143 15v52c0 88 -39 122 -111 122c-74 0 -188 -9 -188 -9l-2 33s110 10 190 10c78 0 123 -32 139 -96c36 71 98 96 172 96
c123 0 190 -67 190 -240v-33h-355c0 -138 36 -213 152 -213zM183 23c93 0 211 44 228 51c-24 47 -30 112 -30 194l-184 -18c-74 -7 -105 -41 -105 -113c0 -74 35 -114 91 -114zM418 268h318c0 153 -49 209 -153 209c-100 0 -165 -58 -165 -209z" />
    <glyph glyph-name="florin" unicode="&#x192;" 
d="M269 -66c0 -134 -46 -179 -127 -179c-35 0 -62 5 -62 5l2 31s32 -3 60 -3c57 0 92 36 92 146v418h-119v32h119v74c0 165 38 215 127 215c45 0 113 -5 113 -5l-2 -31s-81 3 -111 3c-57 0 -92 -46 -92 -146v-110h182v-32h-182v-418z" />
    <glyph glyph-name="OE" unicode="&#x152;" horiz-adv-x="944" 
d="M879 -1h-393c-52 -4 -121 -8 -158 -8c-206 0 -263 124 -263 354s59 364 263 364c37 0 110 -3 157 -9h394v-34h-358v-289h298v-34h-298v-309h358v-35zM328 25c22 0 112 6 157 9v629c-45 3 -132 12 -157 12c-180 0 -225 -119 -225 -328c0 -210 42 -322 225 -322z" />
    <glyph glyph-name="oe" unicode="&#x153;" horiz-adv-x="876" 
d="M618 23c70 0 182 9 182 9l2 -32s-112 -9 -185 -9c-94 0 -144 39 -169 107c-24 -74 -77 -107 -183 -107c-166 0 -205 69 -205 270c0 185 57 248 205 248c96 0 157 -35 184 -120c33 89 101 120 182 120c123 0 190 -67 190 -240v-33h-355c0 -138 36 -213 152 -213zM265 23
c147 0 164 77 164 236c0 160 -53 218 -164 218c-128 0 -168 -48 -168 -216c0 -172 21 -238 168 -238zM466 268h318c0 153 -49 209 -153 209c-100 0 -165 -58 -165 -209z" />
    <glyph glyph-name="daggerdbl" unicode="&#x2021;" 
d="M247 -79v202h-183v32h183v309h-183v34h183v202h35v-202h183v-34h-183v-309h183v-32h-183v-202h-35z" />
    <glyph glyph-name="four" unicode="4" 
d="M367 0v132h-332v30l216 498h39l-212 -494h289v239h36v-239h92v-34h-92v-132h-36z" />
    <glyph glyph-name="quotedbl" unicode="&#x22;" horiz-adv-x="280" 
d="M233 470h-35l-1 230h37zM85 470h-35l-1 230h37z" />
    <glyph glyph-name="quotesingle" unicode="'" horiz-adv-x="100" 
d="M32 490l-1 210h37l-1 -210h-35z" />
    <glyph glyph-name="parenleft" unicode="(" horiz-adv-x="260" 
d="M153 750h35s-95 -260 -95 -449c0 -186 95 -426 95 -426h-35s-97 226 -97 426s97 449 97 449z" />
    <glyph glyph-name="parenright" unicode=")" horiz-adv-x="260" 
d="M91 -120h-35s95 260 95 449c0 186 -95 426 -95 426h35s97 -226 97 -426s-97 -449 -97 -449z" />
    <glyph glyph-name="comma" unicode="," horiz-adv-x="170" 
d="M47 -123l42 210h40l-51 -210h-31z" />
    <glyph glyph-name="hyphen" unicode="-" horiz-adv-x="440" 
d="M70 254v34h300v-34h-300z" />
    <glyph glyph-name="period" unicode="." horiz-adv-x="248" 
d="M98 0v80h40v-80h-40z" />
    <glyph glyph-name="slash" unicode="/" 
d="M109 12l277 690l33 -14l-277 -689z" />
    <glyph glyph-name="colon" unicode=":" horiz-adv-x="141" 
d="M77 344v80h40v-80h-40zM77 0v80h40v-80h-40z" />
    <glyph glyph-name="semicolon" unicode=";" horiz-adv-x="170" 
d="M37 -123l41 210h42l-52 -210h-31zM75 344v80h40v-80h-40z" />
    <glyph glyph-name="equal" unicode="=" 
d="M63 351v36h404v-36h-404zM63 184v36h404v-36h-404z" />
    <glyph glyph-name="question" unicode="?" horiz-adv-x="386" 
d="M366 551c0 -133 -189 -211 -189 -323v-38h-35v41c0 124 189 208 189 320c0 96 -49 125 -155 125c-48 0 -151 -25 -151 -25l-5 33s102 25 156 25c127 0 190 -41 190 -158zM140 1v80h40v-80h-40z" />
    <glyph glyph-name="underscore" unicode="_" 
d="M27 -84h476v-34h-476v34z" />
    <glyph glyph-name="braceleft" unicode="{" horiz-adv-x="285" 
d="M139 169c0 -39 -7 -77 -7 -116c0 -88 29 -140 143 -145l-2 -32c-128 5 -176 58 -176 177c0 39 7 98 7 123c0 64 -28 96 -104 118v32c77 19 104 55 104 120c0 28 -7 91 -7 128c0 119 48 172 176 177l2 -32c-114 -5 -143 -55 -143 -145c0 -33 7 -90 7 -119
c0 -88 -27 -120 -100 -144c73 -24 100 -58 100 -142z" />
    <glyph glyph-name="braceright" unicode="}" horiz-adv-x="285" 
d="M135 454c0 39 7 77 7 116c0 88 -29 140 -143 145l2 32c128 -5 176 -58 176 -177c0 -39 -7 -98 -7 -123c0 -64 28 -96 104 -118v-32c-77 -19 -104 -55 -104 -120c0 -28 7 -91 7 -128c0 -119 -48 -172 -176 -177l-2 32c114 5 143 55 143 145c0 33 -7 90 -7 119
c0 88 27 120 100 144c-73 24 -100 58 -100 142z" />
    <glyph glyph-name="cent" unicode="&#xa2;" horiz-adv-x="437" 
d="M234 -85v126c-123 4 -175 43 -175 206c0 150 62 210 174 214v130h35v-131c45 -2 116 -10 116 -10l-2 -35s-100 10 -138 10c-108 0 -145 -50 -145 -178c0 -131 32 -170 155 -170c38 0 130 8 130 8l2 -35s-74 -8 -117 -9v-126h-35z" />
    <glyph glyph-name="quoteleft" unicode="&#x2018;" horiz-adv-x="170" 
d="M114 727l-40 -200h-38l49 200h29z" />
    <glyph glyph-name="quoteright" unicode="&#x2019;" horiz-adv-x="170" 
d="M55 527l40 200h38l-49 -200h-29z" />
    <glyph glyph-name="divide" unicode="&#xf7;" 
d="M245 433v80h40v-80h-40zM67 284v36h396v-36h-396zM245 89v80h40v-80h-40z" />
    <glyph glyph-name="Euro" unicode="&#x20ac;" 
d="M5 427h64c13 159 66 250 246 250c95 0 175 -19 175 -19l-3 -35s-91 20 -172 20c-156 0 -198 -77 -208 -216l311 -1v-33h-313c-1 -20 -1 -41 -1 -62c0 -18 0 -36 1 -52l313 -1v-33h-312c10 -144 53 -220 209 -220c71 0 172 20 172 20l3 -34s-96 -20 -175 -20
c-178 0 -234 87 -246 254h-64v34h62c-1 16 -1 34 -1 52c0 21 0 42 1 62h-62v34z" />
    <glyph glyph-name="Oslash" unicode="&#xd8;" horiz-adv-x="656" 
d="M328 -9c-53 0 -97 9 -132 25l-60 -127l-33 13l62 133c-72 53 -100 156 -100 312c0 238 69 362 263 362c56 0 102 -11 139 -31l53 114l33 -14l-57 -121c68 -57 95 -160 95 -310c0 -252 -68 -356 -263 -356zM103 347c0 -138 20 -229 78 -278l270 575c-32 20 -73 31 -123 31
c-170 0 -225 -109 -225 -328zM328 25c173 0 225 92 225 322c0 130 -21 222 -73 275l-269 -574c31 -16 69 -23 117 -23z" />
    <glyph glyph-name="ampersand" unicode="&#x26;" horiz-adv-x="700" 
d="M323 694c109 0 153 -60 153 -145c0 -99 -50 -144 -165 -182l187 -185c14 40 24 88 31 146h35c-9 -69 -21 -126 -39 -172l140 -137l-24 -26l-131 130c-47 -94 -120 -132 -222 -132c-166 0 -230 83 -230 217c0 114 62 165 165 199c-36 44 -51 86 -51 143
c0 84 57 144 151 144zM290 24c90 0 154 37 194 124l-237 235c-103 -30 -154 -79 -154 -174c0 -119 62 -185 197 -185zM207 550c0 -54 20 -100 53 -133l26 -26c112 38 155 72 155 159c0 69 -32 112 -118 112c-77 0 -116 -48 -116 -112z" />
    <glyph glyph-name="asterisk" unicode="*" 
d="M444 519h-147l45 -139l-32 -10l-45 140l-120 -86l-19 27l120 87l-119 87l20 27l120 -88l45 139l33 -10l-46 -140h145v-34z" />
    <glyph glyph-name="sterling" unicode="&#xa3;" 
d="M433 669v-32s-106 11 -140 11c-77 0 -102 -29 -102 -178v-64h232v-32h-232v-340h184l82 16l7 -32l-81 -17c-103 0 -226 -1 -329 -1v34h102v340h-79v32h79v63c0 173 36 211 137 211c39 0 140 -11 140 -11z" />
    <glyph glyph-name="paragraph" unicode="&#xb6;" 
d="M389 0v667h-152v-667h-36v350h-7c-103 0 -186 69 -186 174s83 176 186 176h328v-33h-97v-667h-36z" />
    <glyph glyph-name="dagger.001" 
d="M65 464v34h182v202h35v-202h183v-34h-183v-543h-35v543h-182z" />
    <glyph glyph-name="percent" unicode="%" 
d="M135 670c-49 0 -68 -34 -68 -101c0 -68 19 -107 68 -107c50 0 68 38 68 106s-18 102 -68 102zM186 6l144 695l33 -5l-144 -695zM32 569c0 95 41 133 103 133c61 0 103 -38 103 -134s-43 -138 -103 -138c-61 0 -103 42 -103 139zM313 139c0 95 41 133 103 133
c61 0 103 -38 103 -134s-43 -138 -103 -138c-61 0 -103 42 -103 139zM348 139c0 -69 19 -107 68 -107c50 0 68 38 68 106s-18 102 -68 102c-49 0 -68 -34 -68 -101z" />
    <glyph glyph-name="plus" unicode="+" 
d="M55 283v36h190v190h40v-190h190v-36h-190v-190h-40v190h-190z" />
    <glyph glyph-name="asciicircum.001" 
d="M437 313l-168 311l-159 -311h-40l181 347h37l191 -347h-42z" />
    <glyph glyph-name="germandbls" unicode="&#xdf;" horiz-adv-x="589" 
d="M137 0h-36v561c0 137 52 178 173 178c129 0 170 -41 170 -135c0 -69 -27 -102 -68 -124c-46 -24 -65 -36 -65 -65c0 -19 4 -36 84 -78c97 -51 134 -73 134 -146c0 -147 -56 -200 -187 -200c-30 0 -109 4 -109 4l4 34s87 -4 104 -4c113 0 150 45 150 166
c0 54 -30 73 -121 120c-82 42 -97 65 -97 104c0 48 24 63 81 92c34 17 52 42 52 97c0 75 -32 101 -132 101c-95 0 -137 -26 -137 -157v-548z" />
    <glyph glyph-name="quotedblright" unicode="&#x201d;" horiz-adv-x="300" 
d="M58 525l40 200h38l-49 -200h-29zM202 525l40 200h38l-49 -200h-29z" />
    <glyph glyph-name="questiondown" unicode="&#xbf;" horiz-adv-x="386" 
d="M20 -51c0 133 189 211 189 323v38h35v-41c0 -124 -189 -208 -189 -320c0 -96 49 -125 155 -125c48 0 151 25 151 25l5 -33s-102 -25 -156 -25c-127 0 -190 41 -190 158zM246 499v-80h-40v80h40z" />
    <glyph glyph-name="exclamdown" unicode="&#xa1;" horiz-adv-x="262" 
d="M151 499v-80h-40v80h40zM149 286v-486h-35v486h35z" />
    <glyph glyph-name="ecaron" unicode="&#x11b;" horiz-adv-x="507" 
d="M249 23c70 0 177 9 177 9l2 -32s-107 -9 -180 -9c-139 0 -184 106 -184 259c0 188 84 259 198 259c113 0 185 -67 185 -240v-33h-346c0 -118 32 -213 148 -213zM101 268h309c0 153 -54 209 -148 209c-90 0 -161 -57 -161 -209zM239 600l-121 132h42l94 -99l93 99h42
l-122 -132h-28z" />
    <glyph glyph-name="ccaron" unicode="&#x10d;" horiz-adv-x="437" 
d="M275 509c38 0 110 -10 110 -10l-2 -32s-70 10 -108 10c-128 0 -168 -68 -168 -216c0 -162 26 -238 168 -238c38 0 110 9 110 9l2 -32s-74 -9 -112 -9c-167 0 -205 79 -205 270c0 175 56 248 205 248zM224 600l-121 132h42l94 -99l93 99h42l-122 -132h-28z" />
    <glyph glyph-name="ccircumflex" unicode="&#x109;" horiz-adv-x="437" 
d="M275 509c38 0 110 -10 110 -10l-2 -32s-70 10 -108 10c-128 0 -168 -68 -168 -216c0 -162 26 -238 168 -238c38 0 110 9 110 9l2 -32s-74 -9 -112 -9c-167 0 -205 79 -205 270c0 175 56 248 205 248zM103 600l121 132h28l122 -132h-43l-92 100l-93 -100h-43z" />
    <glyph glyph-name="cacute" unicode="&#x107;" horiz-adv-x="437" 
d="M275 509c38 0 110 -10 110 -10l-2 -32s-70 10 -108 10c-128 0 -168 -68 -168 -216c0 -162 26 -238 168 -238c38 0 110 9 110 9l2 -32s-74 -9 -112 -9c-167 0 -205 79 -205 270c0 175 56 248 205 248zM135 636l192 96l16 -31l-193 -92z" />
    <glyph glyph-name="gcircumflex" unicode="&#x11d;" horiz-adv-x="504" 
d="M253 -239c-134 0 -194 43 -194 159c0 62 41 95 85 128c-16 10 -22 34 -22 65c0 15 30 79 30 79c-46 22 -86 64 -86 151c0 101 66 167 167 167c54 0 88 -13 88 -13l152 3v-35h-113c25 -23 46 -60 46 -122c0 -112 -65 -164 -177 -164c-8 0 -38 2 -50 4c0 0 -23 -57 -23 -70
c0 -49 8 -54 129 -54c124 0 180 -21 180 -134c0 -108 -73 -164 -212 -164zM283 27c-41 0 -113 3 -113 3c-48 -38 -75 -61 -75 -109c0 -95 51 -128 159 -128c114 0 174 46 174 132c0 90 -44 102 -145 102zM229 211c92 0 140 40 140 132c0 91 -46 135 -137 135
c-83 0 -130 -52 -130 -135c0 -86 41 -132 127 -132zM117 600l121 132h28l122 -132h-43l-92 100l-93 -100h-43z" />
    <glyph glyph-name="hcircumflex" unicode="&#x125;" horiz-adv-x="567" 
d="M136 0h-35v730h35v-260s88 39 164 39c136 0 164 -65 164 -249v-260h-35v258c0 160 -18 219 -129 219c-79 0 -164 -40 -164 -40v-437zM148 790l121 132h28l122 -132h-43l-92 100l-93 -100h-43z" />
    <glyph glyph-name="itilde" unicode="&#x129;" horiz-adv-x="261" 
d="M113 0v500h35v-500h-35zM272 703l9 -30s-42 -43 -73 -43c-40 0 -115 54 -147 54c-21 0 -70 -45 -70 -45l-10 29s49 47 82 47c40 0 115 -53 147 -53c18 0 62 41 62 41z" />
    <glyph glyph-name="lacute" unicode="&#x13a;" horiz-adv-x="225" 
d="M95 0v730h35v-730h-35zM9 836l192 96l16 -31l-193 -92z" />
    <glyph glyph-name="nacute" unicode="&#x144;" horiz-adv-x="573" 
d="M146 0h-35v500h35v-40s79 49 165 49c136 0 164 -65 164 -249v-260h-35v258c0 160 -18 219 -129 219c-89 0 -165 -50 -165 -50v-427zM192 636l192 96l16 -31l-193 -92z" />
    <glyph glyph-name="ncaron" unicode="&#x148;" horiz-adv-x="573" 
d="M146 0h-35v500h35v-40s79 49 165 49c136 0 164 -65 164 -249v-260h-35v258c0 160 -18 219 -129 219c-89 0 -165 -50 -165 -50v-427zM272 600l-121 132h42l94 -99l93 99h42l-122 -132h-28z" />
    <glyph glyph-name="scircumflex" unicode="&#x15d;" horiz-adv-x="483" 
d="M398 495l-2 -33s-97 15 -165 15c-65 0 -129 -22 -129 -100c0 -57 25 -82 137 -99c131 -20 177 -42 177 -134c0 -118 -72 -153 -185 -153c-57 0 -160 15 -160 15l4 33s103 -16 154 -16c94 0 150 22 150 118c0 70 -31 85 -150 104c-115 18 -164 43 -164 130
c0 103 84 134 166 134c77 0 167 -14 167 -14zM106 600l121 132h28l122 -132h-43l-92 100l-93 -100h-43z" />
    <glyph glyph-name="sacute" unicode="&#x15b;" horiz-adv-x="483" 
d="M398 495l-2 -33s-97 15 -165 15c-65 0 -129 -22 -129 -100c0 -57 25 -82 137 -99c131 -20 177 -42 177 -134c0 -118 -72 -153 -185 -153c-57 0 -160 15 -160 15l4 33s103 -16 154 -16c94 0 150 22 150 118c0 70 -31 85 -150 104c-115 18 -164 43 -164 130
c0 103 84 134 166 134c77 0 167 -14 167 -14zM138 636l192 96l16 -31l-193 -92z" />
    <glyph glyph-name="racute" unicode="&#x155;" horiz-adv-x="354" 
d="M101 0v500h35v-78s88 66 188 88v-34c-88 -19 -188 -87 -188 -87v-389h-35zM93 636l192 96l16 -31l-193 -92z" />
    <glyph glyph-name="utilde" unicode="&#x169;" horiz-adv-x="557" 
d="M421 500h35v-500h-35v40s-78 -49 -154 -49c-136 0 -164 65 -164 249v260h35v-258c0 -160 18 -219 129 -219c79 0 154 50 154 50v427zM420 703l9 -30s-42 -43 -73 -43c-40 0 -115 54 -147 54c-21 0 -70 -45 -70 -45l-10 29s49 47 82 47c40 0 115 -53 147 -53
c18 0 62 41 62 41z" />
    <glyph glyph-name="rcaron" unicode="&#x159;" horiz-adv-x="354" 
d="M101 0v500h35v-78s88 66 188 88v-34c-88 -19 -188 -87 -188 -87v-389h-35zM183 600l-121 132h42l94 -99l93 99h42l-122 -132h-28z" />
    <glyph glyph-name="ycircumflex" unicode="&#x177;" horiz-adv-x="480" 
d="M39 500h37l141 -468h44l143 468h37l-225 -730h-37l73 230h-63zM105 600l121 132h28l122 -132h-43l-92 100l-93 -100h-43z" />
    <glyph glyph-name="ygrave" unicode="&#x1ef3;" horiz-adv-x="480" 
d="M39 500h37l141 -468h44l143 468h37l-225 -730h-37l73 230h-63zM151 732l192 -96l-15 -27l-193 92z" />
    <glyph glyph-name="wdieresis" unicode="&#x1e85;" horiz-adv-x="761" 
d="M42 500h37l123 -468h23l136 458h39l136 -458h22l124 468h37l-133 -500h-78l-128 448l-129 -448h-78zM268 638v62h35v-62h-35zM458 638v62h35v-62h-35z" />
    <glyph glyph-name="wcircumflex" unicode="&#x175;" horiz-adv-x="761" 
d="M42 500h37l123 -468h23l136 458h39l136 -458h22l124 468h37l-133 -500h-78l-128 448l-129 -448h-78zM245 600l121 132h28l122 -132h-43l-92 100l-93 -100h-43z" />
    <glyph glyph-name="wacute" unicode="&#x1e83;" horiz-adv-x="761" 
d="M42 500h37l123 -468h23l136 458h39l136 -458h22l124 468h37l-133 -500h-78l-128 448l-129 -448h-78zM276 636l192 96l16 -31l-193 -92z" />
    <glyph glyph-name="wgrave" unicode="&#x1e81;" horiz-adv-x="761" 
d="M42 500h37l123 -468h23l136 458h39l136 -458h22l124 468h37l-133 -500h-78l-128 448l-129 -448h-78zM292 732l192 -96l-15 -27l-193 92z" />
    <glyph glyph-name="guilsinglright" unicode="&#x203a;" horiz-adv-x="272" 
d="M195 254l-135 106v39l167 -129v-36l-167 -138v41z" />
    <glyph glyph-name="quotedblbase" unicode="&#x201e;" horiz-adv-x="300" 
d="M58 -85l40 200h38l-49 -200h-29zM202 -85l40 200h38l-49 -200h-29z" />
    <glyph glyph-name="quotesinglbase" unicode="&#x201a;" horiz-adv-x="170" 
d="M55 -85l40 200h38l-49 -200h-29z" />
    <glyph glyph-name="asciicircum" unicode="^" 
d="M417 333l-158 291l-149 -291h-40l171 327h37l181 -327h-42z" />
    <glyph glyph-name="approxequal" unicode="&#x2248;" 
d="M455 420l7 -37s-54 -52 -100 -52c-62 0 -143 54 -192 54c-37 0 -95 -53 -95 -53l-7 35s56 54 102 54c63 0 147 -54 191 -54c37 0 94 53 94 53zM454 250l7 -37s-54 -52 -100 -52c-62 0 -143 54 -192 54c-37 0 -95 -53 -95 -53l-7 35s56 54 102 54c63 0 147 -54 191 -54
c37 0 94 53 94 53z" />
    <glyph glyph-name="periodcentered" unicode="&#xb7;" horiz-adv-x="248" 
d="M98 270v80h40v-80h-40z" />
    <glyph glyph-name="zacute" unicode="&#x17a;" horiz-adv-x="481" 
d="M60 468v32h360l2 -32l-320 -436h320v-32h-360l-2 32l320 436h-320zM147 636l192 96l16 -31l-193 -92z" />
    <glyph glyph-name="uring" unicode="&#x16f;" horiz-adv-x="557" 
d="M421 500h35v-500h-35v40s-78 -49 -154 -49c-136 0 -164 65 -164 249v260h35v-258c0 -160 18 -219 129 -219c79 0 154 50 154 50v427zM191 650c0 53 42 95 96 95c53 0 94 -42 94 -95c0 -54 -41 -95 -94 -95c-54 0 -96 41 -96 95zM225 650c0 -35 27 -64 62 -64
c34 0 61 29 61 64c0 34 -27 63 -61 63c-35 0 -62 -29 -62 -63z" />
    <glyph glyph-name="aeacute" unicode="&#x1fd;" horiz-adv-x="828" 
d="M570 23c70 0 182 9 182 9l2 -32s-112 -9 -185 -9c-69 0 -115 22 -143 58l-38 -16s-93 -42 -206 -42c-82 0 -127 48 -127 146c0 112 52 132 185 149l143 15v52c0 88 -39 122 -111 122c-74 0 -188 -9 -188 -9l-2 33s110 10 190 10c78 0 123 -32 139 -96c36 71 98 96 172 96
c123 0 190 -67 190 -240v-33h-355c0 -138 36 -213 152 -213zM183 23c93 0 211 44 228 51c-24 47 -30 112 -30 194l-184 -18c-74 -7 -105 -41 -105 -113c0 -74 35 -114 91 -114zM418 268h318c0 153 -49 209 -153 209c-100 0 -165 -58 -165 -209zM320 636l192 96l16 -31
l-193 -92z" />
    <glyph glyph-name="oslashacute" unicode="&#x1ff;" horiz-adv-x="526" 
d="M265 509c32 0 59 -5 83 -14l45 110l30 -11l-47 -113c58 -36 85 -108 85 -222c0 -177 -41 -268 -196 -268c-34 0 -62 4 -85 11l-47 -116l-30 10l48 118c-65 35 -86 114 -86 247c0 175 52 248 200 248zM102 261c0 -111 12 -182 64 -215l170 418c-20 8 -44 13 -71 13
c-120 0 -163 -58 -163 -216zM265 23c137 0 159 87 159 236c0 94 -19 156 -61 189l-171 -415c20 -7 44 -10 73 -10zM159 636l192 96l16 -31l-193 -92z" />
    <glyph glyph-name="grave.cap" horiz-adv-x="500" 
d="M166 922l192 -96l-15 -27l-193 92z" />
    <glyph glyph-name="acute.cap" horiz-adv-x="516" 
d="M150 826l192 96l16 -31l-193 -92z" />
    <glyph glyph-name="circumflex.cap" horiz-adv-x="446" 
d="M74 809l134 125h30l134 -125h-45l-104 96l-103 -96h-46z" />
    <glyph glyph-name="caron.cap" horiz-adv-x="446" 
d="M372 934l-134 -125h-30l-134 125h45l104 -96l103 96h46z" />
    <glyph glyph-name="tilde.cap" horiz-adv-x="440" 
d="M393 914l11 -28s-52 -55 -83 -55c-43 0 -127 64 -159 64c-21 0 -80 -55 -80 -55l-10 29s57 57 90 57c43 0 127 -63 159 -63c18 0 72 51 72 51z" />
    <glyph glyph-name="dieresis.cap" horiz-adv-x="392" 
d="M109 838v62h35v-62h-35zM305 838v62h35v-62h-35z" />
    <glyph glyph-name="macron.cap" horiz-adv-x="446" 
d="M80 832v32h287v-32h-287z" />
    <glyph glyph-name="breve" unicode="&#x2d8;" horiz-adv-x="446" 
d="M85 723h35c0 -55 38 -96 103 -96s103 41 103 96h35c0 -74 -54 -128 -138 -128s-138 54 -138 128z" />
    <glyph glyph-name="breve.cap" horiz-adv-x="446" 
d="M85 924h35c0 -55 48 -87 103 -87s103 32 103 87h35c0 -74 -64 -119 -138 -119s-138 45 -138 119z" />
    <glyph glyph-name="ring.cap" horiz-adv-x="316" 
d="M255 822c0 -58 -39 -92 -97 -92s-97 34 -97 92s39 92 97 92s97 -34 97 -92zM94 822c0 -40 24 -62 64 -62s64 22 64 62s-24 62 -64 62s-64 -22 -64 -62z" />
    <glyph glyph-name="hungarumlaut" unicode="&#x2dd;" horiz-adv-x="685" 
d="M334 622l163 104l18 -27l-163 -104zM149 622l163 104l18 -27l-163 -104z" />
    <glyph glyph-name="hungarumlaut.cap" horiz-adv-x="685" 
d="M329 791l191 87l15 -29l-192 -88zM138 791l192 88l14 -30l-191 -87z" />
    <glyph glyph-name="dotaccent" unicode="&#x2d9;" horiz-adv-x="215" 
d="M90 645v55h35v-55h-35z" />
    <glyph glyph-name="AEacute" unicode="&#x1fc;" horiz-adv-x="847" 
d="M383 0v215h-255l-67 -215h-36l215 700h542v-34h-363v-289h303v-34h-303v-309h363v-34h-399zM265 666l-127 -417h245v417h-118zM319 826l192 96l16 -31l-193 -92z" />
    <glyph glyph-name="Cacute" unicode="&#x106;" horiz-adv-x="537" 
d="M484 45l3 -34s-101 -20 -180 -20c-206 0 -244 144 -244 356c0 208 31 362 244 362c95 0 180 -19 180 -19l-3 -35s-96 20 -177 20c-188 0 -206 -139 -206 -328c0 -190 22 -322 206 -322c71 0 177 20 177 20zM184 826l192 96l16 -31l-193 -92z" />
    <glyph glyph-name="Racute" unicode="&#x154;" horiz-adv-x="630" 
d="M374 291l-25 -1h-205v-290h-36v700h241c139 0 208 -70 208 -200c0 -101 -38 -185 -145 -205l158 -295h-41zM519 500c0 106 -53 166 -170 166h-205v-342h205c131 0 170 79 170 176zM211 826l192 96l16 -31l-193 -92z" />
    <glyph glyph-name="Ecaron" unicode="&#x11a;" horiz-adv-x="572" 
d="M108 0v700h399v-34h-363v-289h303v-34h-303v-309h363v-34h-399zM458 934l-134 -125h-30l-134 125h45l104 -96l103 96h46z" />
    <glyph glyph-name="Dcaron" unicode="&#x10e;" horiz-adv-x="653" 
d="M358 0h-250v700h250c176 0 234 -174 234 -340s-58 -360 -234 -360zM554 360c0 140 -46 306 -196 306h-214v-632h214c150 0 196 186 196 326zM448 934l-134 -125h-30l-134 125h45l104 -96l103 96h46z" />
    <glyph glyph-name="Ccaron" unicode="&#x10c;" horiz-adv-x="537" 
d="M484 45l3 -34s-101 -20 -180 -20c-206 0 -244 144 -244 356c0 208 31 362 244 362c95 0 180 -19 180 -19l-3 -35s-96 20 -177 20c-188 0 -206 -139 -206 -328c0 -190 22 -322 206 -322c71 0 177 20 177 20zM440 934l-134 -125h-30l-134 125h45l104 -96l103 96h46z" />
    <glyph glyph-name="Ebreve" unicode="&#x114;" horiz-adv-x="572" 
d="M108 0v700h399v-34h-363v-289h303v-34h-303v-309h363v-34h-399zM178 924h35c0 -55 48 -87 103 -87s103 32 103 87h35c0 -74 -64 -119 -138 -119s-138 45 -138 119z" />
    <glyph glyph-name="Emacron" unicode="&#x112;" horiz-adv-x="572" 
d="M108 0v700h399v-34h-363v-289h303v-34h-303v-309h363v-34h-399zM152 832v32h287v-32h-287z" />
    <glyph glyph-name="Scedilla" unicode="&#x15e;" horiz-adv-x="536" 
d="M390 -127c0 -53 -34 -74 -82 -74c-44 0 -81 4 -81 4l2 28s44 -4 78 -4c29 0 48 11 48 46c0 31 -19 42 -48 42h-54v78c-77 2 -191 16 -191 16l4 35s133 -17 204 -17c114 0 170 58 170 173c0 92 -47 125 -170 144c-137 21 -212 54 -212 191c0 119 78 176 211 176
c77 0 194 -16 194 -16l-4 -35s-132 17 -190 17c-114 0 -173 -50 -173 -140c0 -112 57 -137 183 -157c132 -21 199 -61 199 -177c0 -141 -64 -205 -192 -209v-51c71 0 104 -14 104 -70z" />
    <glyph glyph-name="Ycircumflex" unicode="&#x176;" horiz-adv-x="540" 
d="M289 301v-301h-36v301l-223 399h41l200 -359l197 359h42zM122 804l134 125h30l134 -125h-45l-104 96l-103 -96h-46z" />
    <glyph glyph-name="Scircumflex" unicode="&#x15c;" horiz-adv-x="536" 
d="M463 695l-4 -35s-132 17 -190 17c-114 0 -173 -50 -173 -140c0 -112 57 -137 183 -157c132 -21 199 -61 199 -177c0 -146 -69 -210 -207 -210c-75 0 -209 16 -209 16l4 35s133 -17 204 -17c114 0 170 58 170 173c0 92 -47 125 -170 144c-137 21 -212 54 -212 191
c0 119 78 176 211 176c77 0 194 -16 194 -16zM120 804l134 125h30l134 -125h-45l-104 96l-103 -96h-46z" />
    <glyph glyph-name="Lacute" unicode="&#x139;" 
d="M475 0h-367v700h36v-666h331v-34zM161 826l192 96l16 -31l-193 -92z" />
    <glyph glyph-name="Nacute" unicode="&#x143;" horiz-adv-x="687" 
d="M108 0v700h85l323 -666h27v666h36v-700h-85l-324 666h-26v-666h-36zM239 826l192 96l16 -31l-193 -92z" />
    <glyph glyph-name="Imacron" unicode="&#x12a;" horiz-adv-x="226" 
d="M95 0v700h36v-700h-36zM-30 842v32h287v-32h-287z" />
    <glyph glyph-name="Ibreve" unicode="&#x12c;" horiz-adv-x="226" 
d="M95 0v700h36v-700h-36zM-25 923h35c0 -55 48 -87 103 -87s103 32 103 87h35c0 -74 -64 -119 -138 -119s-138 45 -138 119z" />
    <glyph glyph-name="Idotaccent" unicode="&#x130;" horiz-adv-x="226" 
d="M95 0v700h36v-700h-36zM95 845v55h35v-55h-35z" />
    <glyph glyph-name="Jcircumflex" unicode="&#x134;" horiz-adv-x="304" 
d="M208 701l1 -596c0 -158 -39 -178 -169 -178v34c107 0 132 20 132 154v586h36zM4 804l134 125h30l134 -125h-45l-104 96l-103 -96h-46z" />
    <glyph glyph-name="Itilde" unicode="&#x128;" horiz-adv-x="226" 
d="M95 0v700h36v-700h-36zM275 903l11 -28s-52 -55 -83 -55c-43 0 -127 64 -159 64c-21 0 -80 -55 -80 -55l-10 29s57 57 90 57c43 0 127 -63 159 -63c18 0 72 51 72 51z" />
    <glyph glyph-name="Hcircumflex" unicode="&#x124;" horiz-adv-x="696" 
d="M552 0v334h-408v-334h-36v700h36v-332h408v332h36v-700h-36zM200 804l134 125h30l134 -125h-45l-104 96l-103 -96h-46z" />
    <glyph glyph-name="Gdotaccent" unicode="&#x120;" horiz-adv-x="617" 
d="M356 313v34h181v-331s-136 -25 -215 -25c-206 0 -257 144 -257 356c0 208 44 362 257 362c105 0 215 -25 215 -25l-3 -35s-121 26 -212 26c-188 0 -219 -139 -219 -328c0 -190 35 -322 219 -322c71 0 173 20 179 20v268h-145zM291 845v55h35v-55h-35z" />
    <glyph glyph-name="Cdotaccent" unicode="&#x10a;" horiz-adv-x="537" 
d="M484 45l3 -34s-101 -20 -180 -20c-206 0 -244 144 -244 356c0 208 31 362 244 362c95 0 180 -19 180 -19l-3 -35s-96 20 -177 20c-188 0 -206 -139 -206 -328c0 -190 22 -322 206 -322c71 0 177 20 177 20zM271 845v55h35v-55h-35z" />
    <glyph glyph-name="dotaccent.cap" horiz-adv-x="215" 
d="M90 783v55h35v-55h-35z" />
    <glyph glyph-name="Amacron" unicode="&#x100;" horiz-adv-x="604" 
d="M40 0l215 700h96l214 -700h-36l-68 215h-318l-67 -215h-36zM280 666l-127 -417h298l-127 417h-44zM158 842v32h287v-32h-287z" />
    <glyph glyph-name="Abreve" unicode="&#x102;" horiz-adv-x="604" 
d="M40 0l215 700h96l214 -700h-36l-68 215h-318l-67 -215h-36zM280 666l-127 -417h298l-127 417h-44zM164 923h35c0 -55 48 -87 103 -87s103 32 103 87h35c0 -74 -64 -119 -138 -119s-138 45 -138 119z" />
    <glyph glyph-name="Aringacute" unicode="&#x1fa;" horiz-adv-x="604" 
d="M397 760c0 -36 -15 -63 -41 -78l209 -682h-36l-68 215h-318l-67 -215h-36l208 679c-28 14 -45 42 -45 81c0 58 39 92 97 92s97 -34 97 -92zM280 666l-127 -417h298l-127 417h-44zM236 760c0 -33 16 -54 44 -60h39c28 6 45 27 45 60c0 40 -24 62 -64 62s-64 -22 -64 -62z
M198 916l192 96l16 -31l-193 -92z" />
    <glyph glyph-name="Ncaron" unicode="&#x147;" horiz-adv-x="687" 
d="M108 0v700h85l323 -666h27v666h36v-700h-85l-324 666h-26v-666h-36zM493 929l-134 -125h-30l-134 125h45l104 -96l103 96h46z" />
    <glyph glyph-name="Gcircumflex" unicode="&#x11c;" horiz-adv-x="617" 
d="M356 313v34h181v-331s-136 -25 -215 -25c-206 0 -257 144 -257 356c0 208 44 362 257 362c105 0 215 -25 215 -25l-3 -35s-121 26 -212 26c-188 0 -219 -139 -219 -328c0 -190 35 -322 219 -322c71 0 173 20 179 20v268h-145zM170 804l134 125h30l134 -125h-45l-104 96
l-103 -96h-46z" />
    <glyph glyph-name="Gbreve" unicode="&#x11e;" horiz-adv-x="617" 
d="M356 313v34h181v-331s-136 -25 -215 -25c-206 0 -257 144 -257 356c0 208 44 362 257 362c105 0 215 -25 215 -25l-3 -35s-121 26 -212 26c-188 0 -219 -139 -219 -328c0 -190 35 -322 219 -322c71 0 173 20 179 20v268h-145zM190 923h35c0 -55 48 -87 103 -87
s103 32 103 87h35c0 -74 -64 -119 -138 -119s-138 45 -138 119z" />
    <glyph glyph-name="Omacron" unicode="&#x14c;" horiz-adv-x="656" 
d="M328 25c173 0 225 92 225 322c0 217 -57 328 -225 328c-170 0 -225 -109 -225 -328c0 -220 52 -322 225 -322zM328 -9c-196 0 -263 114 -263 356c0 238 69 362 263 362s263 -122 263 -362c0 -252 -68 -356 -263 -356zM184 842v32h287v-32h-287z" />
    <glyph glyph-name="Obreve" unicode="&#x14e;" horiz-adv-x="656" 
d="M328 25c173 0 225 92 225 322c0 217 -57 328 -225 328c-170 0 -225 -109 -225 -328c0 -220 52 -322 225 -322zM328 -9c-196 0 -263 114 -263 356c0 238 69 362 263 362s263 -122 263 -362c0 -252 -68 -356 -263 -356zM190 923h35c0 -55 48 -87 103 -87s103 32 103 87h35
c0 -74 -64 -119 -138 -119s-138 45 -138 119z" />
    <glyph glyph-name="Rcaron" unicode="&#x158;" horiz-adv-x="630" 
d="M374 291l-25 -1h-205v-290h-36v700h241c139 0 208 -70 208 -200c0 -101 -38 -185 -145 -205l158 -295h-41zM519 500c0 106 -53 166 -170 166h-205v-342h205c131 0 170 79 170 176zM465 929l-134 -125h-30l-134 125h45l104 -96l103 96h46z" />
    <glyph glyph-name="Sacute" unicode="&#x15a;" horiz-adv-x="536" 
d="M463 695l-4 -35s-132 17 -190 17c-114 0 -173 -50 -173 -140c0 -112 57 -137 183 -157c132 -21 199 -61 199 -177c0 -146 -69 -210 -207 -210c-75 0 -209 16 -209 16l4 35s133 -17 204 -17c114 0 170 58 170 173c0 92 -47 125 -170 144c-137 21 -212 54 -212 191
c0 119 78 176 211 176c77 0 194 -16 194 -16zM164 826l192 96l16 -31l-193 -92z" />
    <glyph glyph-name="Tcaron" unicode="&#x164;" horiz-adv-x="500" 
d="M9 666v34h481v-34h-221v-666h-36v666h-224zM400 929l-134 -125h-30l-134 125h45l104 -96l103 96h46z" />
    <glyph glyph-name="Utilde" unicode="&#x168;" horiz-adv-x="642" 
d="M127 196c0 -116 72 -171 189 -171c126 0 199 54 199 171v504h36v-504c0 -139 -85 -205 -235 -205c-140 0 -225 65 -225 205v504h36v-504zM482 903l11 -28s-52 -55 -83 -55c-43 0 -127 64 -159 64c-21 0 -80 -55 -80 -55l-10 29s57 57 90 57c43 0 127 -63 159 -63
c18 0 72 51 72 51z" />
    <glyph glyph-name="zdotaccent" unicode="&#x17c;" horiz-adv-x="481" 
d="M60 468v32h360l2 -32l-320 -436h320v-32h-360l-2 32l320 436h-320zM223 645v55h35v-55h-35z" />
    <glyph glyph-name="umacron" unicode="&#x16b;" horiz-adv-x="557" 
d="M421 500h35v-500h-35v40s-78 -49 -154 -49c-136 0 -164 65 -164 249v260h35v-258c0 -160 18 -219 129 -219c79 0 154 50 154 50v427zM145 642v32h267v-32h-267z" />
    <glyph glyph-name="ubreve" unicode="&#x16d;" horiz-adv-x="557" 
d="M421 500h35v-500h-35v40s-78 -49 -154 -49c-136 0 -164 65 -164 249v260h35v-258c0 -160 18 -219 129 -219c79 0 154 50 154 50v427zM140 723h35c0 -55 38 -96 103 -96s103 41 103 96h35c0 -74 -54 -128 -138 -128s-138 54 -138 128z" />
    <glyph glyph-name="amacron" unicode="&#x101;" horiz-adv-x="518" 
d="M418 353v-287c15 -28 41 -39 75 -42l-2 -32c-43 0 -75 12 -99 42c0 0 -92 -43 -195 -43c-78 0 -132 59 -132 146c0 85 47 136 143 146l175 18v52c0 87 -38 122 -111 122s-179 -16 -179 -16l-3 33s102 17 182 17c101 0 146 -53 146 -156zM383 268l-171 -16
c-78 -7 -110 -53 -110 -115c0 -63 40 -114 96 -114c99 0 185 40 185 40v205zM125 642v32h267v-32h-267z" />
    <glyph glyph-name="abreve" unicode="&#x103;" horiz-adv-x="518" 
d="M418 353v-287c15 -28 41 -39 75 -42l-2 -32c-43 0 -75 12 -99 42c0 0 -92 -43 -195 -43c-78 0 -132 59 -132 146c0 85 47 136 143 146l175 18v52c0 87 -38 122 -111 122s-179 -16 -179 -16l-3 33s102 17 182 17c101 0 146 -53 146 -156zM383 268l-171 -16
c-78 -7 -110 -53 -110 -115c0 -63 40 -114 96 -114c99 0 185 40 185 40v205zM121 723h35c0 -55 38 -96 103 -96s103 41 103 96h35c0 -74 -54 -128 -138 -128s-138 54 -138 128z" />
    <glyph glyph-name="cdotaccent" unicode="&#x10b;" horiz-adv-x="437" 
d="M275 509c38 0 110 -10 110 -10l-2 -32s-70 10 -108 10c-128 0 -168 -68 -168 -216c0 -162 26 -238 168 -238c38 0 110 9 110 9l2 -32s-74 -9 -112 -9c-167 0 -205 79 -205 270c0 175 56 248 205 248zM221 645v55h35v-55h-35z" />
    <glyph glyph-name="Umacron" unicode="&#x16a;" horiz-adv-x="642" 
d="M127 196c0 -116 72 -171 189 -171c126 0 199 54 199 171v504h36v-504c0 -139 -85 -205 -235 -205c-140 0 -225 65 -225 205v504h36v-504zM177 842v32h287v-32h-287z" />
    <glyph glyph-name="Ubreve" unicode="&#x16c;" horiz-adv-x="642" 
d="M127 196c0 -116 72 -171 189 -171c126 0 199 54 199 171v504h36v-504c0 -139 -85 -205 -235 -205c-140 0 -225 65 -225 205v504h36v-504zM183 923h35c0 -55 48 -87 103 -87s103 32 103 87h35c0 -74 -64 -119 -138 -119s-138 45 -138 119z" />
    <glyph glyph-name="Uring" unicode="&#x16e;" horiz-adv-x="642" 
d="M127 196c0 -116 72 -171 189 -171c126 0 199 54 199 171v504h36v-504c0 -139 -85 -205 -235 -205c-140 0 -225 65 -225 205v504h36v-504zM418 850c0 -58 -39 -92 -97 -92s-97 34 -97 92s39 92 97 92s97 -34 97 -92zM257 850c0 -40 24 -62 64 -62s64 22 64 62
s-24 62 -64 62s-64 -22 -64 -62z" />
    <glyph glyph-name="Wgrave" unicode="&#x1e80;" horiz-adv-x="872" 
d="M50 700h35l143 -666h38l150 656h40l155 -656h38l138 666h35l-144 -700h-96l-146 643l-141 -643h-96zM338 922l192 -96l-15 -27l-193 92z" />
    <glyph glyph-name="Wacute" unicode="&#x1e82;" horiz-adv-x="872" 
d="M50 700h35l143 -666h38l150 656h40l155 -656h38l138 666h35l-144 -700h-96l-146 643l-141 -643h-96zM342 826l192 96l16 -31l-193 -92z" />
    <glyph glyph-name="Wcircumflex" unicode="&#x174;" horiz-adv-x="872" 
d="M50 700h35l143 -666h38l150 656h40l155 -656h38l138 666h35l-144 -700h-96l-146 643l-141 -643h-96zM287 804l134 125h30l134 -125h-45l-104 96l-103 -96h-46z" />
    <glyph glyph-name="Wdieresis" unicode="&#x1e84;" horiz-adv-x="872" 
d="M50 700h35l143 -666h38l150 656h40l155 -656h38l138 666h35l-144 -700h-96l-146 643l-141 -643h-96zM320 838v62h35v-62h-35zM516 838v62h35v-62h-35z" />
    <glyph glyph-name="Ygrave" unicode="&#x1ef2;" horiz-adv-x="540" 
d="M289 301v-301h-36v301l-223 399h41l200 -359l197 359h42zM182 922l192 -96l-15 -27l-193 92z" />
    <glyph glyph-name="Zacute" unicode="&#x179;" horiz-adv-x="570" 
d="M65 666v34h440v-70l-403 -575v-22h403v-34h-440v69l403 574v24h-403zM181 826l192 96l16 -31l-193 -92z" />
    <glyph glyph-name="Zdotaccent" unicode="&#x17b;" horiz-adv-x="570" 
d="M65 666v34h440v-70l-403 -575v-22h403v-34h-440v69l403 574v24h-403zM267 845v55h35v-55h-35z" />
    <glyph glyph-name="Edotaccent" unicode="&#x116;" horiz-adv-x="572" 
d="M108 0v700h399v-34h-363v-289h303v-34h-303v-309h363v-34h-399zM288 845v55h35v-55h-35z" />
    <glyph glyph-name="Ccircumflex" unicode="&#x108;" horiz-adv-x="537" 
d="M484 45l3 -34s-101 -20 -180 -20c-206 0 -244 144 -244 356c0 208 31 362 244 362c95 0 180 -19 180 -19l-3 -35s-96 20 -177 20c-188 0 -206 -139 -206 -328c0 -190 22 -322 206 -322c71 0 177 20 177 20zM160 804l134 125h30l134 -125h-45l-104 96l-103 -96h-46z" />
    <glyph glyph-name="emacron" unicode="&#x113;" horiz-adv-x="507" 
d="M249 23c70 0 177 9 177 9l2 -32s-107 -9 -180 -9c-139 0 -184 106 -184 259c0 188 84 259 198 259c113 0 185 -67 185 -240v-33h-346c0 -118 32 -213 148 -213zM101 268h309c0 153 -54 209 -148 209c-90 0 -161 -57 -161 -209zM130 642v32h267v-32h-267z" />
    <glyph glyph-name="ebreve" unicode="&#x115;" horiz-adv-x="507" 
d="M249 23c70 0 177 9 177 9l2 -32s-107 -9 -180 -9c-139 0 -184 106 -184 259c0 188 84 259 198 259c113 0 185 -67 185 -240v-33h-346c0 -118 32 -213 148 -213zM101 268h309c0 153 -54 209 -148 209c-90 0 -161 -57 -161 -209zM124 723h35c0 -55 38 -96 103 -96
s103 41 103 96h35c0 -74 -54 -128 -138 -128s-138 54 -138 128z" />
    <glyph glyph-name="edotaccent" unicode="&#x117;" horiz-adv-x="507" 
d="M249 23c70 0 177 9 177 9l2 -32s-107 -9 -180 -9c-139 0 -184 106 -184 259c0 188 84 259 198 259c113 0 185 -67 185 -240v-33h-346c0 -118 32 -213 148 -213zM101 268h309c0 153 -54 209 -148 209c-90 0 -161 -57 -161 -209zM236 645v55h35v-55h-35z" />
    <glyph glyph-name="gbreve" unicode="&#x11f;" horiz-adv-x="504" 
d="M253 -239c-134 0 -194 43 -194 159c0 62 41 95 85 128c-16 10 -22 34 -22 65c0 15 30 79 30 79c-46 22 -86 64 -86 151c0 101 66 167 167 167c54 0 88 -13 88 -13l152 3v-35h-113c25 -23 46 -60 46 -122c0 -112 -65 -164 -177 -164c-8 0 -38 2 -50 4c0 0 -23 -57 -23 -70
c0 -49 8 -54 129 -54c124 0 180 -21 180 -134c0 -108 -73 -164 -212 -164zM283 27c-41 0 -113 3 -113 3c-48 -38 -75 -61 -75 -109c0 -95 51 -128 159 -128c114 0 174 46 174 132c0 90 -44 102 -145 102zM229 211c92 0 140 40 140 132c0 91 -46 135 -137 135
c-83 0 -130 -52 -130 -135c0 -86 41 -132 127 -132zM114 723h35c0 -55 38 -96 103 -96s103 41 103 96h35c0 -74 -54 -128 -138 -128s-138 54 -138 128z" />
    <glyph glyph-name="gdotaccent" unicode="&#x121;" horiz-adv-x="504" 
d="M253 -239c-134 0 -194 43 -194 159c0 62 41 95 85 128c-16 10 -22 34 -22 65c0 15 30 79 30 79c-46 22 -86 64 -86 151c0 101 66 167 167 167c54 0 88 -13 88 -13l152 3v-35h-113c25 -23 46 -60 46 -122c0 -112 -65 -164 -177 -164c-8 0 -38 2 -50 4c0 0 -23 -57 -23 -70
c0 -49 8 -54 129 -54c124 0 180 -21 180 -134c0 -108 -73 -164 -212 -164zM283 27c-41 0 -113 3 -113 3c-48 -38 -75 -61 -75 -109c0 -95 51 -128 159 -128c114 0 174 46 174 132c0 90 -44 102 -145 102zM229 211c92 0 140 40 140 132c0 91 -46 135 -137 135
c-83 0 -130 -52 -130 -135c0 -86 41 -132 127 -132zM234 645v55h35v-55h-35z" />
    <glyph glyph-name="ibreve" unicode="&#x12d;" horiz-adv-x="261" 
d="M113 0v500h35v-500h-35zM-7 723h35c0 -55 38 -96 103 -96s103 41 103 96h35c0 -74 -54 -128 -138 -128s-138 54 -138 128z" />
    <glyph glyph-name="imacron" unicode="&#x12b;" horiz-adv-x="261" 
d="M113 0v500h35v-500h-35zM-3 642v32h267v-32h-267z" />
    <glyph glyph-name="dotlessj" unicode="&#x237;" horiz-adv-x="233" 
d="M108 6v494h35v-495c0 -115 -30 -154 -149 -223l-14 31c104 62 128 95 128 193z" />
    <glyph glyph-name="jcircumflex" unicode="&#x135;" horiz-adv-x="233" 
d="M108 6v494h35v-495c0 -115 -30 -154 -149 -223l-14 31c104 62 128 95 128 193zM-19 600l121 132h28l122 -132h-43l-92 100l-93 -100h-43z" />
    <glyph glyph-name="omacron" unicode="&#x14d;" horiz-adv-x="526" 
d="M265 509c135 0 196 -78 196 -250c0 -177 -41 -268 -196 -268c-157 0 -200 79 -200 270c0 175 52 248 200 248zM265 23c137 0 159 87 159 236c0 150 -48 218 -159 218c-120 0 -163 -58 -163 -216c0 -162 26 -238 163 -238zM129 642v32h267v-32h-267z" />
    <glyph glyph-name="obreve" unicode="&#x14f;" horiz-adv-x="526" 
d="M265 509c135 0 196 -78 196 -250c0 -177 -41 -268 -196 -268c-157 0 -200 79 -200 270c0 175 52 248 200 248zM265 23c137 0 159 87 159 236c0 150 -48 218 -159 218c-120 0 -163 -58 -163 -216c0 -162 26 -238 163 -238zM125 723h35c0 -55 38 -96 103 -96s103 41 103 96
h35c0 -74 -54 -128 -138 -128s-138 54 -138 128z" />
    <glyph glyph-name="ellipsis" unicode="&#x2026;" horiz-adv-x="744" 
d="M107 0v80h40v-80h-40zM361 0v80h40v-80h-40zM615 0v80h40v-80h-40z" />
    <glyph glyph-name="perthousand" unicode="&#x2030;" horiz-adv-x="833" 
d="M131 669c-49 0 -68 -34 -68 -101c0 -68 19 -107 68 -107c50 0 68 38 68 106s-18 102 -68 102zM165 8l184 693l33 -8l-185 -692zM28 568c0 95 41 133 103 133c61 0 103 -38 103 -134s-43 -138 -103 -138c-61 0 -103 42 -103 139zM307 139c0 95 41 133 103 133
c61 0 103 -38 103 -134s-43 -138 -103 -138c-61 0 -103 42 -103 139zM342 139c0 -69 19 -107 68 -107c50 0 68 38 68 106s-18 102 -68 102c-49 0 -68 -34 -68 -101zM565 139c0 95 41 133 103 133c61 0 103 -38 103 -134s-43 -138 -103 -138c-61 0 -103 42 -103 139zM600 139
c0 -69 19 -107 68 -107c50 0 68 38 68 106s-18 102 -68 102c-49 0 -68 -34 -68 -101z" />
    <glyph glyph-name="zerosuperior" unicode="&#x2070;" horiz-adv-x="265" 
d="M134 799c70 0 113 -41 113 -164c0 -125 -46 -166 -112 -166s-113 41 -113 167c0 123 45 163 112 163zM134 765c-51 0 -75 -38 -75 -130c0 -99 28 -132 76 -132s75 33 75 133c0 89 -23 129 -76 129z" />
    <glyph glyph-name="onesuperior" unicode="&#xb9;" horiz-adv-x="265" 
d="M39 723l99 67h36v-312h-36v273l-82 -56z" />
    <glyph glyph-name="twosuperior" unicode="&#xb2;" horiz-adv-x="265" 
d="M223 478h-195v34l98 104c29 31 54 59 54 99c0 36 -25 50 -57 50c-34 0 -90 -12 -90 -12l-2 33s51 13 93 13c60 0 92 -28 92 -85c0 -47 -26 -80 -65 -121l-76 -81h148v-34z" />
    <glyph glyph-name="threesuperior" unicode="&#xb3;" horiz-adv-x="265" 
d="M33 788c0 0 53 11 98 11c65 0 96 -24 96 -80c0 -57 -43 -76 -48 -78c35 -10 57 -22 57 -79c0 -64 -37 -93 -100 -93c-49 0 -107 11 -107 11l3 32s54 -9 104 -9c44 0 63 24 63 58c0 46 -26 61 -60 61h-65v34h65c22 0 51 28 51 63c0 30 -14 46 -58 46c-46 0 -96 -9 -96 -9z
" />
    <glyph glyph-name="foursuperior" unicode="&#x2074;" horiz-adv-x="265" 
d="M164 478v57h-146v32l89 223h38l-87 -221h106v87h36v-87h37v-34h-37v-57h-36z" />
    <glyph glyph-name="fivesuperior" unicode="&#x2075;" horiz-adv-x="265" 
d="M50 790h174v-35h-140l-7 -102s22 22 65 22c51 0 96 -24 96 -99c0 -72 -45 -107 -101 -107c-45 0 -99 12 -99 12l3 35s53 -12 96 -12c35 0 62 24 62 72c0 50 -27 64 -57 64c-40 0 -70 -22 -70 -22l-31 2z" />
    <glyph glyph-name="sixsuperior" unicode="&#x2076;" horiz-adv-x="265" 
d="M225 790l-2 -32s-40 7 -78 7c-51 0 -78 -27 -79 -104c0 -1 39 19 73 19c69 0 102 -37 102 -101c0 -67 -39 -110 -105 -110c-71 0 -109 50 -109 166c0 123 44 164 118 164c37 0 80 -9 80 -9zM138 646c-37 0 -73 -21 -73 -22c1 -77 19 -121 71 -121c51 0 67 34 67 76
c0 50 -18 67 -65 67z" />
    <glyph glyph-name="sevensuperior" unicode="&#x2077;" horiz-adv-x="265" 
d="M30 756v34h194v-61l-112 -259l-36 8l110 253v25h-156z" />
    <glyph glyph-name="eightsuperior" unicode="&#x2078;" horiz-adv-x="265" 
d="M132 799c69 0 108 -24 108 -82c0 -43 -12 -62 -55 -75c40 -12 60 -31 60 -79c0 -74 -47 -94 -113 -94c-63 0 -113 21 -113 88c0 54 22 69 61 85c-38 14 -56 32 -56 75c0 57 38 82 108 82zM132 503c49 0 75 16 75 59c0 39 -17 51 -57 61h-36c-38 -10 -57 -22 -57 -65
c0 -39 29 -55 75 -55zM132 765c-51 0 -70 -16 -70 -48c0 -34 14 -45 52 -57h36c40 11 52 23 52 56s-19 49 -70 49z" />
    <glyph glyph-name="ninesuperior" unicode="&#x2079;" horiz-adv-x="265" 
d="M37 479l3 31s42 -7 79 -7c57 0 83 34 84 103c0 0 -43 -17 -79 -17c-62 0 -101 42 -101 105c0 68 47 105 107 105c73 0 109 -52 109 -168c0 -124 -41 -162 -120 -162c-37 0 -82 10 -82 10zM125 623c33 0 78 21 78 21c-2 76 -20 121 -73 121c-42 0 -69 -23 -69 -70
c0 -41 22 -72 64 -72z" />
    <glyph glyph-name="Delta" unicode="&#x394;" 
d="M47 26l182 634h76l182 -634l1 -26h-441v26zM279 626h-25l-167 -592h359z" />
    <glyph glyph-name="Delta" unicode="&#x2206;" 
d="M47 26l182 634h76l182 -634l1 -26h-441v26zM279 626h-25l-167 -592h359z" />
    <glyph glyph-name="radical" unicode="&#x221a;" 
d="M16 330l130 44l127 -440h28l179 926h36l-186 -960h-86l-122 428l-94 -32z" />
    <glyph glyph-name="lozenge" unicode="&#x25ca;" 
d="M467 330l-192 -330h-36l-197 330l196 330h36zM429 330l-172 298l-177 -298l177 -298z" />
    <glyph glyph-name="product" unicode="&#x220f;" 
d="M25 660h480v-34h-78v-726h-35v726h-254v-726h-35v726h-78v34z" />
    <glyph glyph-name="dagger" unicode="&#x2020;" 
d="M64 464v34h183v202h35v-202h183v-34h-183v-543h-35v543h-183z" />
    <glyph glyph-name="ogonek" unicode="&#x2db;" horiz-adv-x="434" 
d="M308 -159l4 -33s-36 -8 -64 -8c-46 0 -80 31 -80 82c0 44 83 124 83 124l35 -5s-81 -85 -81 -117c0 -27 19 -50 47 -50c19 0 56 7 56 7z" />
    <glyph glyph-name="scedilla" unicode="&#x15f;" horiz-adv-x="483" 
d="M351 -127c0 -53 -34 -74 -82 -74c-44 0 -81 4 -81 4l2 28s44 -4 78 -4c29 0 48 11 48 46c0 31 -19 42 -48 42h-54v76c-59 3 -143 15 -143 15l4 33s103 -16 154 -16c94 0 150 22 150 118c0 70 -31 85 -150 104c-115 18 -164 43 -164 130c0 103 84 134 166 134
c77 0 167 -14 167 -14l-2 -33s-97 15 -165 15c-65 0 -129 -22 -129 -100c0 -57 25 -82 137 -99c131 -20 177 -42 177 -134c0 -113 -66 -149 -169 -153v-48c71 0 104 -14 104 -70z" />
    <glyph glyph-name="aogonek" unicode="&#x105;" horiz-adv-x="518" 
d="M489 -159l4 -33s-36 -8 -64 -8c-46 0 -80 31 -80 82c0 43 75 117 81 122c-15 7 -27 16 -38 30c0 0 -92 -43 -195 -43c-78 0 -132 59 -132 146c0 85 47 136 143 146l175 18v52c0 87 -38 122 -111 122s-179 -16 -179 -16l-3 33s102 17 182 17c101 0 146 -53 146 -156v-287
c15 -28 41 -39 75 -42l-2 -32c-11 0 -21 1 -30 3c-17 -19 -75 -83 -75 -111c0 -27 19 -50 47 -50c19 0 56 7 56 7zM383 268l-171 -16c-78 -7 -110 -53 -110 -115c0 -63 40 -114 96 -114c99 0 185 40 185 40v205z" />
    <glyph glyph-name="Aogonek" unicode="&#x104;" horiz-adv-x="604" 
d="M586 -159l4 -33s-36 -8 -64 -8c-46 0 -80 31 -80 82c0 43 77 118 81 122l-66 211h-318l-67 -215h-36l215 700h96l214 -700h-2c-5 -4 -80 -85 -80 -116c0 -27 19 -50 47 -50c19 0 56 7 56 7zM280 666l-127 -417h298l-127 417h-44z" />
    <glyph glyph-name="Eogonek" unicode="&#x118;" horiz-adv-x="572" 
d="M108 0v700h399v-34h-363v-289h303v-34h-303v-309h363v-34h-27c-5 -4 -80 -85 -80 -116c0 -27 19 -50 47 -50c19 0 56 7 56 7l4 -33s-36 -8 -64 -8c-46 0 -80 31 -80 82c0 40 63 104 77 118h-332z" />
    <glyph glyph-name="Iogonek" unicode="&#x12e;" horiz-adv-x="226" 
d="M153 -159l4 -33s-36 -8 -64 -8c-46 0 -80 31 -80 82c0 43 79 120 82 123v695h36v-700h-1c-5 -4 -80 -85 -80 -116c0 -27 19 -50 47 -50c19 0 56 7 56 7z" />
    <glyph glyph-name="Uogonek" unicode="&#x172;" horiz-adv-x="642" 
d="M427 -159l4 -33s-36 -8 -64 -8c-46 0 -80 31 -80 82c0 34 47 88 70 111c-13 -1 -27 -2 -41 -2c-140 0 -225 65 -225 205v504h36v-504c0 -116 72 -171 189 -171c126 0 199 54 199 171v504h36v-504c0 -109 -52 -173 -147 -196c-2 -2 -80 -84 -80 -116c0 -27 19 -50 47 -50
c19 0 56 7 56 7z" />
    <glyph glyph-name="Dcroat" unicode="&#x110;" horiz-adv-x="653" 
d="M26 334v34h82v332h250c176 0 234 -174 234 -340s-58 -360 -234 -360h-250v334h-82zM554 360c0 140 -46 306 -196 306h-214v-298h172v-34h-172v-300h214c150 0 196 186 196 326z" />
    <glyph glyph-name="uhungarumlaut" unicode="&#x171;" horiz-adv-x="557" 
d="M421 500h35v-500h-35v40s-78 -49 -154 -49c-136 0 -164 65 -164 249v260h35v-258c0 -160 18 -219 129 -219c79 0 154 50 154 50v427zM321 622l163 104l18 -27l-163 -104zM136 622l163 104l18 -27l-163 -104z" />
    <glyph glyph-name="Uhungarumlaut" unicode="&#x170;" horiz-adv-x="642" 
d="M127 196c0 -116 72 -171 189 -171c126 0 199 54 199 171v504h36v-504c0 -139 -85 -205 -235 -205c-140 0 -225 65 -225 205v504h36v-504zM348 791l191 87l15 -29l-192 -88zM157 791l192 88l14 -30l-191 -87z" />
    <glyph glyph-name="uogonek" unicode="&#x173;" horiz-adv-x="557" 
d="M479 -159l4 -33s-36 -8 -64 -8c-46 0 -80 31 -80 82c0 43 79 120 82 123v35s-78 -49 -154 -49c-136 0 -164 65 -164 249v260h35v-258c0 -160 18 -219 129 -219c79 0 154 50 154 50v427h35v-499h1s-81 -85 -81 -117c0 -27 19 -50 47 -50c19 0 56 7 56 7z" />
    <glyph glyph-name="Ohungarumlaut" unicode="&#x150;" horiz-adv-x="656" 
d="M328 25c173 0 225 92 225 322c0 217 -57 328 -225 328c-170 0 -225 -109 -225 -328c0 -220 52 -322 225 -322zM328 -9c-196 0 -263 114 -263 356c0 238 69 362 263 362s263 -122 263 -362c0 -252 -68 -356 -263 -356zM325 818l191 87l15 -29l-192 -88zM134 818l192 88
l14 -30l-191 -87z" />
    <glyph glyph-name="Oslashacute" unicode="&#x1fe;" horiz-adv-x="656" 
d="M220 826l192 96l16 -31l-193 -92zM328 25c173 0 225 92 225 322c0 217 -57 328 -225 328c-170 0 -225 -109 -225 -328c0 -220 52 -322 225 -322zM328 -9c-196 0 -263 114 -263 356c0 238 69 362 263 362s263 -122 263 -362c0 -252 -68 -356 -263 -356z" />
    <glyph glyph-name="eogonek" unicode="&#x119;" horiz-adv-x="507" 
d="M443 -159l4 -33s-36 -8 -64 -8c-46 0 -80 31 -80 82c0 36 53 94 73 114c-38 -2 -87 -5 -128 -5c-139 0 -184 106 -184 259c0 188 84 259 198 259c113 0 185 -67 185 -240v-33h-346c0 -118 32 -213 148 -213c70 0 177 9 177 9l2 -32s-5 0 -9 -1c-9 -9 -79 -85 -79 -115
c0 -27 19 -50 47 -50c19 0 56 7 56 7zM101 268h309c0 153 -54 209 -148 209c-90 0 -161 -57 -161 -209z" />
    <glyph glyph-name="currency" unicode="&#xa4;" horiz-adv-x="529" 
d="M442 49l-70 71c-62 -51 -152 -51 -214 0l-70 -71l-26 26l71 70c-51 62 -51 152 0 214l-71 70l26 26l70 -71c62 51 152 51 214 0l70 71l26 -26l-71 -70c51 -62 51 -152 0 -214l71 -70zM170 157c52 -51 138 -51 190 0c51 52 51 138 0 190c-52 51 -138 51 -190 0
c-51 -52 -51 -138 0 -190z" />
    <glyph glyph-name="logicalnot" unicode="&#xac;" 
d="M69 332h396v-206h-36v172h-360v34z" />
    <glyph glyph-name="infinity" unicode="&#x221e;" 
d="M133 121c-80 0 -116 66 -116 171s36 171 114 171c74 0 106 -52 134 -127c28 75 59 127 134 127c78 0 114 -66 114 -171s-36 -171 -116 -171c-73 0 -104 52 -132 126c-33 -98 -57 -126 -132 -126zM280 292c27 -63 44 -136 118 -136c55 0 77 48 77 136s-21 136 -77 136
c-74 0 -91 -73 -118 -136zM250 292c-27 63 -44 136 -118 136c-56 0 -77 -48 -77 -136c0 -78 22 -136 77 -136c74 0 91 73 118 136z" />
    <glyph glyph-name="integral" unicode="&#x222b;" 
d="M436 821c0 0 -58 5 -78 5c-75 0 -91 -40 -91 -122l30 -789c0 -102 -18 -155 -125 -155c-21 0 -79 6 -79 6v33s58 -5 79 -5c75 0 91 41 91 121l-30 789c0 103 17 156 125 156c20 0 78 -6 78 -6v-33z" />
    <glyph glyph-name="partialdiff" unicode="&#x2202;" 
d="M134 623l-4 33s65 14 139 14c139 0 218 -82 218 -323c0 -236 -97 -356 -243 -356c-127 0 -201 72 -201 197c0 132 84 218 217 218c118 0 190 -71 190 -71c-1 233 -58 301 -181 301c-77 0 -135 -13 -135 -13zM261 372c-105 0 -180 -72 -180 -184c0 -109 59 -163 163 -163
c127 0 190 110 204 270c0 0 -87 77 -187 77z" />
    <glyph glyph-name="Omega" unicode="&#x3a9;" 
d="M26 20h151s-121 190 -121 350c0 194 36 300 209 300s208 -106 208 -300c0 -160 -121 -350 -121 -350h152v-29h-189v19s121 206 121 350c0 180 -22 272 -171 272c-151 0 -171 -92 -171 -272c0 -144 121 -350 121 -350v-19h-189v29z" />
    <glyph glyph-name="Omega" unicode="&#x2126;" 
d="M26 20h151s-121 190 -121 350c0 194 36 300 209 300s208 -106 208 -300c0 -160 -121 -350 -121 -350h152v-29h-189v19s121 206 121 350c0 180 -22 272 -171 272c-151 0 -171 -92 -171 -272c0 -144 121 -350 121 -350v-19h-189v29z" />
    <glyph glyph-name="zero.slash" 
d="M264 670c38 0 72 -5 102 -19l58 147l33 -12l-61 -152c61 -46 96 -140 96 -320c0 -255 -95 -323 -227 -323c-43 0 -82 7 -116 25l-52 -131l-32 11l56 141c-52 46 -84 131 -84 279c0 286 93 354 227 354zM454 316c0 156 -25 240 -72 283l-220 -550c29 -18 64 -24 103 -24
c114 0 189 53 189 291zM264 636c-121 0 -189 -61 -189 -322c0 -127 22 -201 60 -242l218 547c-25 12 -55 17 -89 17z" />
    <glyph glyph-name="zero.slash.001" 
d="M264 670c140 0 228 -70 228 -356c0 -255 -95 -323 -227 -323s-228 68 -228 325c0 286 93 354 227 354zM454 316c0 154 -24 239 -71 282l-220 -549c28 -18 63 -24 102 -24c114 0 189 53 189 291zM264 636c-121 0 -189 -61 -189 -322c0 -128 22 -202 60 -243l219 547
c-26 13 -56 18 -90 18z" />
    <glyph glyph-name="eng" unicode="&#x14b;" horiz-adv-x="573" 
d="M160 0h-35v500h35v-40s79 49 165 49c136 0 164 -65 164 -249v-267c0 -115 -30 -154 -149 -223l-14 31c104 62 128 95 128 193v264c0 160 -18 219 -129 219c-89 0 -165 -50 -165 -50v-427z" />
    <glyph glyph-name="Eng" unicode="&#x14a;" horiz-adv-x="687" 
d="M108 0v700h85l323 -666h27v666h36v-99l1 -596c0 -158 -39 -178 -169 -178v34c103 0 130 19 132 139h-49l-324 666h-26v-666h-36z" />
    <glyph glyph-name="lessequal" unicode="&#x2264;" 
d="M418 510l-295 -146l295 -157v-41l-327 178v36l327 169v-39zM91 66v36h327v-36h-327z" />
    <glyph glyph-name="greaterequal" unicode="&#x2265;" 
d="M407 364l-295 146v39l327 -169v-36l-327 -178v41zM112 66v36h327v-36h-327z" />
    <glyph glyph-name="caronSlovak" horiz-adv-x="135" 
d="M84 700v-217h-34v217h34z" />
    <glyph glyph-name="lcaron" unicode="&#x13e;" horiz-adv-x="395" 
d="M95 0v730h35v-730h-35zM309 700v-217h-34v217h34z" />
    <glyph glyph-name="Lcaron" unicode="&#x13d;" 
d="M475 0h-367v700h36v-666h331v-34zM435 700v-217h-34v217h34z" />
    <glyph glyph-name="dcaron" unicode="&#x10f;" horiz-adv-x="708" 
d="M437 730v-730h-35v36s-82 -45 -163 -45c-122 0 -169 99 -169 252c0 172 56 266 210 266c47 0 97 -8 122 -12v233h35zM239 23c75 0 163 47 163 47v397c-26 4 -83 10 -122 10c-132 0 -175 -85 -175 -237c0 -129 38 -217 134 -217zM622 700v-217h-34v217h34z" />
    <glyph glyph-name="iogonek" unicode="&#x12f;" horiz-adv-x="215" 
d="M147 -159l4 -33s-36 -8 -64 -8c-46 0 -80 31 -80 82c0 44 83 124 83 124v494h35v-500h-1c-5 -4 -80 -85 -80 -116c0 -27 19 -50 47 -50c19 0 56 7 56 7zM90 645v55h35v-55h-35z" />
    <glyph glyph-name="aringacute" unicode="&#x1fb;" horiz-adv-x="518" 
d="M418 353v-287c15 -28 41 -39 75 -42l-2 -32c-43 0 -75 12 -99 42c0 0 -92 -43 -195 -43c-78 0 -132 59 -132 146c0 85 47 136 143 146l175 18v52c0 87 -38 122 -111 122s-179 -16 -179 -16l-3 33s102 17 182 17c101 0 146 -53 146 -156zM383 268l-171 -16
c-78 -7 -110 -53 -110 -115c0 -63 40 -114 96 -114c99 0 185 40 185 40v205zM164 650c0 53 42 95 96 95c53 0 94 -42 94 -95c0 -54 -41 -95 -94 -95c-54 0 -96 41 -96 95zM198 650c0 -35 27 -64 62 -64c34 0 61 29 61 64c0 34 -27 63 -61 63c-35 0 -62 -29 -62 -63zM155 806
l192 96l16 -31l-193 -92z" />
    <glyph glyph-name="ohungarumlaut" unicode="&#x151;" horiz-adv-x="526" 
d="M265 509c135 0 196 -78 196 -250c0 -177 -41 -268 -196 -268c-157 0 -200 79 -200 270c0 175 52 248 200 248zM265 23c137 0 159 87 159 236c0 150 -48 218 -159 218c-120 0 -163 -58 -163 -216c0 -162 26 -238 163 -238zM305 622l163 104l18 -27l-163 -104zM120 622
l163 104l18 -27l-163 -104z" />
    <glyph glyph-name="dcroat" unicode="&#x111;" horiz-adv-x="538" 
d="M229 622v32h173v76h35v-76h59v-32h-59v-622h-35v36s-82 -45 -163 -45c-122 0 -169 99 -169 252c0 172 56 266 210 266c47 0 97 -8 122 -12v125h-173zM239 23c75 0 163 47 163 47v397c-26 4 -83 10 -122 10c-132 0 -175 -85 -175 -237c0 -129 38 -217 134 -217z" />
    <glyph glyph-name="hbar" unicode="&#x127;" horiz-adv-x="567" 
d="M30 612v32h71v86h35v-86h161v-32h-161v-142s88 39 164 39c136 0 164 -65 164 -249v-260h-35v258c0 160 -18 219 -129 219c-79 0 -164 -40 -164 -40v-437h-35v612h-71z" />
    <glyph glyph-name="tcaron" unicode="&#x165;" horiz-adv-x="542" 
d="M321 468h-172v-262c0 -139 11 -184 92 -184c28 0 88 7 88 7l3 -32s-56 -7 -91 -7c-91 0 -127 44 -127 178v300h-79v32h79v163h35v-163h172v-32zM456 700v-217h-34v217h34z" />
    <glyph glyph-name="uni0326" unicode="&#x326;" horiz-adv-x="170" 
d="M42 -267l38 189h36l-46 -189h-28z" />
    <glyph glyph-name="tbar" unicode="&#x167;" horiz-adv-x="372" 
d="M53 292v32h61v144h-79v32h79v163h35v-163h172v-32h-172v-144h171v-32h-171v-86c0 -139 11 -184 92 -184c28 0 88 7 88 7l3 -32s-56 -7 -91 -7c-91 0 -127 44 -127 178v124h-61z" />
    <glyph glyph-name="Hbar" unicode="&#x126;" horiz-adv-x="696" 
d="M19 522v32h89v146h36v-146h408v146h36v-146h98v-32h-98v-522h-36v334h-408v-334h-36v522h-89zM144 368h408v154h-408v-154z" />
    <glyph glyph-name="Tbar" unicode="&#x166;" horiz-adv-x="500" 
d="M57 332v32h176v302h-224v34h481v-34h-221v-302h188v-32h-188v-332h-36v332h-176z" />
    <glyph glyph-name="commaaccent" horiz-adv-x="170" 
d="M42 -267l38 189h36l-46 -189h-28z" />
    <glyph glyph-name="Gcommaaccent" unicode="&#x122;" horiz-adv-x="617" 
d="M356 313v34h181v-331s-136 -25 -215 -25c-206 0 -257 144 -257 356c0 208 44 362 257 362c105 0 215 -25 215 -25l-3 -35s-121 26 -212 26c-188 0 -219 -139 -219 -328c0 -190 35 -322 219 -322c71 0 173 20 179 20v268h-145zM271 -267l38 189h36l-46 -189h-28z" />
    <glyph glyph-name="Lcommaaccent" unicode="&#x13b;" 
d="M475 0h-367v700h36v-666h331v-34zM228 -267l38 189h36l-46 -189h-28z" />
    <glyph glyph-name="Ncommaaccent" unicode="&#x145;" horiz-adv-x="687" 
d="M108 0v700h85l323 -666h27v666h36v-700h-85l-324 666h-26v-666h-36zM306 -267l38 189h36l-46 -189h-28z" />
    <glyph glyph-name="Rcommaaccent" unicode="&#x156;" horiz-adv-x="630" 
d="M374 291l-25 -1h-205v-290h-36v700h241c139 0 208 -70 208 -200c0 -101 -38 -185 -145 -205l158 -295h-41zM519 500c0 106 -53 166 -170 166h-205v-342h205c131 0 170 79 170 176zM278 -267l38 189h36l-46 -189h-28z" />
    <glyph glyph-name="Scommaaccent" unicode="&#x218;" horiz-adv-x="536" 
d="M463 695l-4 -35s-132 17 -190 17c-114 0 -173 -50 -173 -140c0 -112 57 -137 183 -157c132 -21 199 -61 199 -177c0 -146 -69 -210 -207 -210c-75 0 -209 16 -209 16l4 35s133 -17 204 -17c114 0 170 58 170 173c0 92 -47 125 -170 144c-137 21 -212 54 -212 191
c0 119 78 176 211 176c77 0 194 -16 194 -16zM231 -267l38 189h36l-46 -189h-28z" />
    <glyph glyph-name="Tcommaaccent" unicode="&#x162;" horiz-adv-x="500" 
d="M9 666v34h481v-34h-221v-666h-36v666h-224zM213 -267l38 189h36l-46 -189h-28z" />
    <glyph glyph-name="ncommaaccent" unicode="&#x146;" horiz-adv-x="573" 
d="M146 0h-35v500h35v-40s79 49 165 49c136 0 164 -65 164 -249v-260h-35v258c0 160 -18 219 -129 219c-89 0 -165 -50 -165 -50v-427zM249 -267l38 189h36l-46 -189h-28z" />
    <glyph glyph-name="lcommaaccent" unicode="&#x13c;" horiz-adv-x="225" 
d="M95 0v730h35v-730h-35zM75 -267l38 189h36l-46 -189h-28z" />
    <glyph glyph-name="kcommaaccent" unicode="&#x137;" horiz-adv-x="483" 
d="M146 0h-35v730h35v-438h88l178 208h41l-188 -226l188 -274h-41l-178 257h-88v-257zM204 -267l38 189h36l-46 -189h-28z" />
    <glyph glyph-name="tcommaaccent" unicode="&#x163;" horiz-adv-x="372" 
d="M321 468h-172v-262c0 -139 11 -184 92 -184c28 0 88 7 88 7l3 -32s-56 -7 -91 -7c-91 0 -127 44 -127 178v300h-79v32h79v163h35v-163h172v-32zM149 -267l38 189h36l-46 -189h-28z" />
    <glyph glyph-name="scommaaccent" unicode="&#x219;" horiz-adv-x="483" 
d="M398 495l-2 -33s-97 15 -165 15c-65 0 -129 -22 -129 -100c0 -57 25 -82 137 -99c131 -20 177 -42 177 -134c0 -118 -72 -153 -185 -153c-57 0 -160 15 -160 15l4 33s103 -16 154 -16c94 0 150 22 150 118c0 70 -31 85 -150 104c-115 18 -164 43 -164 130
c0 103 84 134 166 134c77 0 167 -14 167 -14zM204 -267l38 189h36l-46 -189h-28z" />
    <glyph glyph-name="rcommaaccent" unicode="&#x157;" horiz-adv-x="354" 
d="M101 0v500h35v-78s88 66 188 88v-34c-88 -19 -188 -87 -188 -87v-389h-35zM140 -267l38 189h36l-46 -189h-28z" />
    <glyph glyph-name="commaaccent.alt" horiz-adv-x="170" 
d="M116 782l-38 -189h-36l46 189h28z" />
    <glyph glyph-name="commaaccentcomb" horiz-adv-x="170" 
d="M42 -267l38 189h36l-46 -189h-28z" />
    <glyph glyph-name="commaaccentcomb.alt" horiz-adv-x="170" 
d="M116 782l-38 -189h-36l46 189h28z" />
    <glyph glyph-name="gcommaaccent" unicode="&#x123;" horiz-adv-x="504" 
d="M253 -239c-134 0 -194 43 -194 159c0 62 41 95 85 128c-16 10 -22 34 -22 65c0 15 30 79 30 79c-46 22 -86 64 -86 151c0 101 66 167 167 167c54 0 88 -13 88 -13l152 3v-35h-113c25 -23 46 -60 46 -122c0 -112 -65 -164 -177 -164c-8 0 -38 2 -50 4c0 0 -23 -57 -23 -70
c0 -49 8 -54 129 -54c124 0 180 -21 180 -134c0 -108 -73 -164 -212 -164zM283 27c-41 0 -113 3 -113 3c-48 -38 -75 -61 -75 -109c0 -95 51 -128 159 -128c114 0 174 46 174 132c0 90 -44 102 -145 102zM229 211c92 0 140 40 140 132c0 91 -46 135 -137 135
c-83 0 -130 -52 -130 -135c0 -86 41 -132 127 -132zM278 782l-38 -189h-36l46 189h28z" />
    <glyph glyph-name="braceleft.cap" horiz-adv-x="285" 
d="M139 199c0 -39 -7 -77 -7 -116c0 -88 29 -140 143 -145l-2 -32c-128 5 -176 58 -176 177c0 39 7 98 7 123c0 64 -28 96 -104 118v32c77 19 104 55 104 120c0 28 -7 91 -7 128c0 119 48 172 176 177l2 -32c-114 -5 -143 -55 -143 -145c0 -33 7 -90 7 -119
c0 -88 -27 -120 -100 -144c73 -24 100 -58 100 -142z" />
    <glyph glyph-name="uni0312" unicode="&#x312;" horiz-adv-x="170" 
d="M116 782l-38 -189h-36l46 189h28z" />
    <glyph glyph-name="questiondown.cap" horiz-adv-x="386" 
d="M30 149c0 133 189 211 189 323v38h35v-41c0 -124 -189 -208 -189 -320c0 -96 49 -125 155 -125c48 0 151 25 151 25l5 -33s-102 -25 -156 -25c-127 0 -190 41 -190 158zM256 699v-80h-40v80h40z" />
    <glyph glyph-name="uni1EF9" unicode="&#x1ef9;" horiz-adv-x="480" 
d="M39 500h37l141 -468h44l143 468h37l-225 -730h-37l73 230h-63zM381 703l9 -30s-42 -43 -73 -43c-40 0 -115 54 -147 54c-21 0 -70 -45 -70 -45l-10 29s49 47 82 47c40 0 115 -53 147 -53c18 0 62 41 62 41z" />
    <glyph glyph-name="uni1EB0" unicode="&#x1eb0;" horiz-adv-x="604" 
d="M40 0l215 700h96l214 -700h-36l-68 215h-318l-67 -215h-36zM280 666l-127 -417h298l-127 417h-44zM164 894h35c0 -55 48 -87 103 -87s103 32 103 87h35c0 -74 -64 -119 -138 -119s-138 45 -138 119zM214 1062l192 -96l-15 -27l-193 92z" />
    <glyph glyph-name="uni1EF8" unicode="&#x1ef8;" horiz-adv-x="540" 
d="M289 301v-301h-36v301l-223 399h41l200 -359l197 359h42zM411 903l9 -30s-42 -43 -73 -43c-40 0 -115 54 -147 54c-21 0 -70 -45 -70 -45l-10 29s49 47 82 47c40 0 115 -53 147 -53c18 0 62 41 62 41z" />
    <glyph glyph-name="uni1EC5" unicode="&#x1ec5;" horiz-adv-x="507" 
d="M249 23c70 0 177 9 177 9l2 -32s-107 -9 -180 -9c-139 0 -184 106 -184 259c0 188 84 259 198 259c113 0 185 -67 185 -240v-33h-346c0 -118 32 -213 148 -213zM101 268h309c0 153 -54 209 -148 209c-90 0 -161 -57 -161 -209zM120 570l121 132h28l122 -132h-43l-92 100
l-93 -100h-43zM389 803l9 -30s-42 -43 -73 -43c-40 0 -115 54 -147 54c-21 0 -70 -45 -70 -45l-10 29s49 47 82 47c40 0 115 -53 147 -53c18 0 62 41 62 41z" />
    <glyph glyph-name="uni1ED7" unicode="&#x1ed7;" horiz-adv-x="536" 
d="M265 509c135 0 196 -78 196 -250c0 -177 -41 -268 -196 -268c-157 0 -200 79 -200 270c0 175 52 248 200 248zM265 23c137 0 159 87 159 236c0 150 -48 218 -159 218c-120 0 -163 -58 -163 -216c0 -162 26 -238 163 -238zM128 570l121 132h28l122 -132h-43l-92 100
l-93 -100h-43zM409 803l9 -30s-42 -43 -73 -43c-40 0 -115 54 -147 54c-21 0 -70 -45 -70 -45l-10 29s49 47 82 47c40 0 115 -53 147 -53c18 0 62 41 62 41z" />
    <glyph glyph-name="uni1EAB" unicode="&#x1eab;" horiz-adv-x="536" 
d="M418 353v-287c15 -28 41 -39 75 -42l-2 -32c-43 0 -75 12 -99 42c0 0 -92 -43 -195 -43c-78 0 -132 59 -132 146c0 85 47 136 143 146l175 18v52c0 87 -38 122 -111 122s-179 -16 -179 -16l-3 33s102 17 182 17c101 0 146 -53 146 -156zM383 268l-171 -16
c-78 -7 -110 -53 -110 -115c0 -63 40 -114 96 -114c99 0 185 40 185 40v205zM128 570l121 132h28l122 -132h-43l-92 100l-93 -100h-43zM409 803l9 -30s-42 -43 -73 -43c-40 0 -115 54 -147 54c-21 0 -70 -45 -70 -45l-10 29s49 47 82 47c40 0 115 -53 147 -53
c18 0 62 41 62 41z" />
    <glyph glyph-name="Kcommaaccent" unicode="&#x136;" horiz-adv-x="597" 
d="M496 0l-231 329h-121v-329h-36v700h36v-337h119l220 337h43l-231 -352l247 -348h-46zM261 -267l38 189h36l-46 -189h-28z" />
    <glyph glyph-name="braceright.cap" horiz-adv-x="285" 
d="M135 484c0 39 7 77 7 116c0 88 -29 140 -143 145l2 32c128 -5 176 -58 176 -177c0 -39 -7 -98 -7 -123c0 -64 28 -96 104 -118v-32c-77 -19 -104 -55 -104 -120c0 -28 7 -91 7 -128c0 -119 -48 -172 -176 -177l-2 32c114 5 143 55 143 145c0 33 -7 90 -7 119
c0 88 27 120 100 144c-73 24 -100 58 -100 142z" />
    <glyph glyph-name="bracketright.cap" horiz-adv-x="300" 
d="M51 747v32h183v-872h-183v32h147v808h-147z" />
    <glyph glyph-name="parenright.cap" horiz-adv-x="260" 
d="M91 -90h-35s95 260 95 449c0 186 -95 426 -95 426h35s97 -226 97 -426s-97 -449 -97 -449z" />
    <glyph glyph-name="parenleft.cap" horiz-adv-x="260" 
d="M153 780h35s-95 -260 -95 -449c0 -186 95 -426 95 -426h-35s-97 226 -97 426s97 449 97 449z" />
    <glyph glyph-name="bracketleft.cap" horiz-adv-x="300" 
d="M231 779v-32h-147v-808h147v-32h-183v872h183z" />
    <glyph glyph-name="endash.cap" horiz-adv-x="500" 
d="M0 316h500v-34h-500v34z" />
    <glyph glyph-name="emdash.cap" horiz-adv-x="1000" 
d="M0 316h1000v-34h-1000v34z" />
    <glyph glyph-name="at.cap" horiz-adv-x="985" 
d="M925 405v-17c0 -289 -68 -298 -163 -298c-56 0 -89 3 -107 63c-34 -19 -120 -62 -191 -62c-62 0 -169 9 -169 252c0 172 46 266 210 266c57 0 132 -27 132 -27v18h35v-200c0 -272 13 -280 90 -280s126 9 126 268v18c0 264 -102 381 -384 381c-277 0 -407 -107 -407 -426
c0 -332 130 -428 407 -428c40 0 143 10 143 10l3 -33s-98 -9 -146 -9c-296 0 -444 99 -444 460c0 338 148 458 444 458c305 0 421 -130 421 -414zM464 123c69 0 146 38 184 60c-8 46 -11 114 -11 217v150s-73 27 -132 27c-142 0 -175 -85 -175 -237c0 -199 78 -217 134 -217
z" />
    <glyph glyph-name="periodcentered.cap" horiz-adv-x="248" 
d="M98 300v80h40v-80h-40z" />
    <glyph glyph-name="zeroinferior" unicode="&#x2080;" horiz-adv-x="265" 
d="M134 321c70 0 113 -41 113 -164c0 -125 -46 -166 -112 -166s-113 41 -113 167c0 123 45 163 112 163zM134 287c-51 0 -75 -38 -75 -130c0 -99 28 -132 76 -132s75 33 75 133c0 89 -23 129 -76 129z" />
    <glyph glyph-name="oneinferior" unicode="&#x2081;" horiz-adv-x="265" 
d="M39 245l99 67h36v-312h-36v273l-82 -56z" />
    <glyph glyph-name="twoinferior" unicode="&#x2082;" horiz-adv-x="265" 
d="M223 0h-195v34l98 104c29 31 54 59 54 99c0 36 -25 50 -57 50c-34 0 -90 -12 -90 -12l-2 33s51 13 93 13c60 0 92 -28 92 -85c0 -47 -26 -80 -65 -121l-76 -81h148v-34z" />
    <glyph glyph-name="threeinferior" unicode="&#x2083;" horiz-adv-x="265" 
d="M33 310c0 0 53 11 98 11c65 0 96 -24 96 -80c0 -57 -43 -76 -48 -78c35 -10 57 -22 57 -79c0 -64 -37 -93 -100 -93c-49 0 -107 11 -107 11l3 32s54 -9 104 -9c44 0 63 24 63 58c0 46 -26 61 -60 61h-65v34h65c22 0 51 28 51 63c0 30 -14 46 -58 46c-46 0 -96 -9 -96 -9z
" />
    <glyph glyph-name="fourinferior" unicode="&#x2084;" horiz-adv-x="265" 
d="M164 0v57h-146v32l89 223h38l-87 -221h106v87h36v-87h37v-34h-37v-57h-36z" />
    <glyph glyph-name="fiveinferior" unicode="&#x2085;" horiz-adv-x="265" 
d="M50 312h174v-35h-140l-7 -102s22 22 65 22c51 0 96 -24 96 -99c0 -72 -45 -107 -101 -107c-45 0 -99 12 -99 12l3 35s53 -12 96 -12c35 0 62 24 62 72c0 50 -27 64 -57 64c-40 0 -70 -22 -70 -22l-31 2z" />
    <glyph glyph-name="sixinferior" unicode="&#x2086;" horiz-adv-x="265" 
d="M225 312l-2 -32s-40 7 -78 7c-51 0 -78 -27 -79 -104c0 -1 39 19 73 19c69 0 102 -37 102 -101c0 -67 -39 -110 -105 -110c-71 0 -109 50 -109 166c0 123 44 164 118 164c37 0 80 -9 80 -9zM138 168c-37 0 -73 -21 -73 -22c1 -77 19 -121 71 -121c51 0 67 34 67 76
c0 50 -18 67 -65 67z" />
    <glyph glyph-name="seveninferior" unicode="&#x2087;" horiz-adv-x="265" 
d="M30 278v34h194v-61l-112 -259l-36 8l110 253v25h-156z" />
    <glyph glyph-name="eightinferior" unicode="&#x2088;" horiz-adv-x="265" 
d="M132 321c69 0 108 -24 108 -82c0 -43 -12 -62 -55 -75c40 -12 60 -31 60 -79c0 -74 -47 -94 -113 -94c-63 0 -113 21 -113 88c0 54 22 69 61 85c-38 14 -56 32 -56 75c0 57 38 82 108 82zM132 25c49 0 75 16 75 59c0 39 -17 51 -57 61h-36c-38 -10 -57 -22 -57 -65
c0 -39 29 -55 75 -55zM132 287c-51 0 -70 -16 -70 -48c0 -34 14 -45 52 -57h36c40 11 52 23 52 56s-19 49 -70 49z" />
    <glyph glyph-name="nineinferior" unicode="&#x2089;" horiz-adv-x="265" 
d="M37 1l3 31s42 -7 79 -7c57 0 83 34 84 103c0 0 -43 -17 -79 -17c-62 0 -101 42 -101 105c0 68 47 105 107 105c73 0 109 -52 109 -168c0 -124 -41 -162 -120 -162c-37 0 -82 10 -82 10zM125 145c33 0 78 21 78 21c-2 76 -20 121 -73 121c-42 0 -69 -23 -69 -70
c0 -41 22 -72 64 -72z" />
    <glyph glyph-name="zero.dnom" horiz-adv-x="265" 
d="M134 221c70 0 113 -41 113 -164c0 -125 -46 -166 -112 -166s-113 41 -113 167c0 123 45 163 112 163zM134 187c-51 0 -75 -38 -75 -130c0 -99 28 -132 76 -132s75 33 75 133c0 89 -23 129 -76 129z" />
    <glyph glyph-name="one.dnom" horiz-adv-x="265" 
d="M39 145l99 67h36v-312h-36v273l-82 -56z" />
    <glyph glyph-name="two.dnom" horiz-adv-x="265" 
d="M223 -100h-195v34l98 104c29 31 54 59 54 99c0 36 -25 50 -57 50c-34 0 -90 -12 -90 -12l-2 33s51 13 93 13c60 0 92 -28 92 -85c0 -47 -26 -80 -65 -121l-76 -81h148v-34z" />
    <glyph glyph-name="three.dnom" horiz-adv-x="265" 
d="M33 210c0 0 53 11 98 11c65 0 96 -24 96 -80c0 -57 -43 -76 -48 -78c35 -10 57 -22 57 -79c0 -64 -37 -93 -100 -93c-49 0 -107 11 -107 11l3 32s54 -9 104 -9c44 0 63 24 63 58c0 46 -26 61 -60 61h-65v34h65c22 0 51 28 51 63c0 30 -14 46 -58 46c-46 0 -96 -9 -96 -9z
" />
    <glyph glyph-name="four.dnom" horiz-adv-x="265" 
d="M164 -100v57h-146v32l89 223h38l-87 -221h106v87h36v-87h37v-34h-37v-57h-36z" />
    <glyph glyph-name="five.dnom" horiz-adv-x="265" 
d="M50 212h174v-35h-140l-7 -102s22 22 65 22c51 0 96 -24 96 -99c0 -72 -45 -107 -101 -107c-45 0 -99 12 -99 12l3 35s53 -12 96 -12c35 0 62 24 62 72c0 50 -27 64 -57 64c-40 0 -70 -22 -70 -22l-31 2z" />
    <glyph glyph-name="six.dnom" horiz-adv-x="265" 
d="M225 212l-2 -32s-40 7 -78 7c-51 0 -78 -27 -79 -104c0 -1 39 19 73 19c69 0 102 -37 102 -101c0 -67 -39 -110 -105 -110c-71 0 -109 50 -109 166c0 123 44 164 118 164c37 0 80 -9 80 -9zM138 68c-37 0 -73 -21 -73 -22c1 -77 19 -121 71 -121c51 0 67 34 67 76
c0 50 -18 67 -65 67z" />
    <glyph glyph-name="seven.dnom" horiz-adv-x="265" 
d="M30 178v34h194v-61l-112 -259l-36 8l110 253v25h-156z" />
    <glyph glyph-name="eight.dnom" horiz-adv-x="265" 
d="M132 221c69 0 108 -24 108 -82c0 -43 -12 -62 -55 -75c40 -12 60 -31 60 -79c0 -74 -47 -94 -113 -94c-63 0 -113 21 -113 88c0 54 22 69 61 85c-38 14 -56 32 -56 75c0 57 38 82 108 82zM132 -75c49 0 75 16 75 59c0 39 -17 51 -57 61h-36c-38 -10 -57 -22 -57 -65
c0 -39 29 -55 75 -55zM132 187c-51 0 -70 -16 -70 -48c0 -34 14 -45 52 -57h36c40 11 52 23 52 56s-19 49 -70 49z" />
    <glyph glyph-name="nine.dnom" horiz-adv-x="265" 
d="M37 -99l3 31s42 -7 79 -7c57 0 83 34 84 103c0 0 -43 -17 -79 -17c-62 0 -101 42 -101 105c0 68 47 105 107 105c73 0 109 -52 109 -168c0 -124 -41 -162 -120 -162c-37 0 -82 10 -82 10zM125 45c33 0 78 21 78 21c-2 76 -20 121 -73 121c-42 0 -69 -23 -69 -70
c0 -41 22 -72 64 -72z" />
    <glyph glyph-name="zero.numr" horiz-adv-x="265" 
d="M134 699c70 0 113 -41 113 -164c0 -125 -46 -166 -112 -166s-113 41 -113 167c0 123 45 163 112 163zM134 665c-51 0 -75 -38 -75 -130c0 -99 28 -132 76 -132s75 33 75 133c0 89 -23 129 -76 129z" />
    <glyph glyph-name="one.numr" horiz-adv-x="265" 
d="M39 623l99 67h36v-312h-36v273l-82 -56z" />
    <glyph glyph-name="two.numr" horiz-adv-x="265" 
d="M223 378h-195v34l98 104c29 31 54 59 54 99c0 36 -25 50 -57 50c-34 0 -90 -12 -90 -12l-2 33s51 13 93 13c60 0 92 -28 92 -85c0 -47 -26 -80 -65 -121l-76 -81h148v-34z" />
    <glyph glyph-name="three.numr" horiz-adv-x="265" 
d="M33 688c0 0 53 11 98 11c65 0 96 -24 96 -80c0 -57 -43 -76 -48 -78c35 -10 57 -22 57 -79c0 -64 -37 -93 -100 -93c-49 0 -107 11 -107 11l3 32s54 -9 104 -9c44 0 63 24 63 58c0 46 -26 61 -60 61h-65v34h65c22 0 51 28 51 63c0 30 -14 46 -58 46c-46 0 -96 -9 -96 -9z
" />
    <glyph glyph-name="four.numr" horiz-adv-x="265" 
d="M164 378v57h-146v32l89 223h38l-87 -221h106v87h36v-87h37v-34h-37v-57h-36z" />
    <glyph glyph-name="five.numr" horiz-adv-x="265" 
d="M50 690h174v-35h-140l-7 -102s22 22 65 22c51 0 96 -24 96 -99c0 -72 -45 -107 -101 -107c-45 0 -99 12 -99 12l3 35s53 -12 96 -12c35 0 62 24 62 72c0 50 -27 64 -57 64c-40 0 -70 -22 -70 -22l-31 2z" />
    <glyph glyph-name="six.numr" horiz-adv-x="265" 
d="M225 690l-2 -32s-40 7 -78 7c-51 0 -78 -27 -79 -104c0 -1 39 19 73 19c69 0 102 -37 102 -101c0 -67 -39 -110 -105 -110c-71 0 -109 50 -109 166c0 123 44 164 118 164c37 0 80 -9 80 -9zM138 546c-37 0 -73 -21 -73 -22c1 -77 19 -121 71 -121c51 0 67 34 67 76
c0 50 -18 67 -65 67z" />
    <glyph glyph-name="seven.numr" horiz-adv-x="265" 
d="M30 656v34h194v-61l-112 -259l-36 8l110 253v25h-156z" />
    <glyph glyph-name="eight.numr" horiz-adv-x="265" 
d="M132 699c69 0 108 -24 108 -82c0 -43 -12 -62 -55 -75c40 -12 60 -31 60 -79c0 -74 -47 -94 -113 -94c-63 0 -113 21 -113 88c0 54 22 69 61 85c-38 14 -56 32 -56 75c0 57 38 82 108 82zM132 403c49 0 75 16 75 59c0 39 -17 51 -57 61h-36c-38 -10 -57 -22 -57 -65
c0 -39 29 -55 75 -55zM132 665c-51 0 -70 -16 -70 -48c0 -34 14 -45 52 -57h36c40 11 52 23 52 56s-19 49 -70 49z" />
    <glyph glyph-name="nine.numr" horiz-adv-x="265" 
d="M37 379l3 31s42 -7 79 -7c57 0 83 34 84 103c0 0 -43 -17 -79 -17c-62 0 -101 42 -101 105c0 68 47 105 107 105c73 0 109 -52 109 -168c0 -124 -41 -162 -120 -162c-37 0 -82 10 -82 10zM125 523c33 0 78 21 78 21c-2 76 -20 121 -73 121c-42 0 -69 -23 -69 -70
c0 -41 22 -72 64 -72z" />
    <glyph glyph-name="exclamdown.cap" horiz-adv-x="262" 
d="M151 699v-80h-40v80h40zM149 486v-486h-35v486h35z" />
    <glyph glyph-name="uni0315" unicode="&#x315;" horiz-adv-x="135" 
d="M84 700v-217h-34v217h34z" />
    <glyph glyph-name="hyphen.cap" horiz-adv-x="440" 
d="M70 284v34h300v-34h-300z" />
    <glyph glyph-name="gravecomb" unicode="&#x300;" horiz-adv-x="545" 
d="M166 732l192 -96l-15 -27l-193 92z" />
    <glyph glyph-name="gravecomb.cap" horiz-adv-x="500" 
d="M166 922l192 -96l-15 -27l-193 92z" />
    <glyph glyph-name="acutecomb" unicode="&#x301;" horiz-adv-x="833" 
d="M150 636l192 96l16 -31l-193 -92z" />
    <glyph glyph-name="acutecomb.cap" horiz-adv-x="516" 
d="M150 826l192 96l16 -31l-193 -92z" />
    <glyph glyph-name="uni0302" unicode="&#x302;" horiz-adv-x="833" 
d="M275 600l121 132h28l122 -132h-43l-92 100l-93 -100h-43z" />
    <glyph glyph-name="uni0302.cap" horiz-adv-x="446" 
d="M74 809l134 125h30l134 -125h-45l-104 96l-103 -96h-46z" />
    <glyph glyph-name="uni030C" unicode="&#x30c;" horiz-adv-x="833" 
d="M396 600l-121 132h42l94 -99l93 99h42l-122 -132h-28z" />
    <glyph glyph-name="uni030C.cap" horiz-adv-x="446" 
d="M372 934l-134 -125h-30l-134 125h45l104 -96l103 96h46z" />
    <glyph glyph-name="tildecomb" unicode="&#x303;" horiz-adv-x="474" 
d="M373 703l9 -30s-42 -43 -73 -43c-40 0 -115 54 -147 54c-21 0 -70 -45 -70 -45l-10 29s49 47 82 47c40 0 115 -53 147 -53c18 0 62 41 62 41z" />
    <glyph glyph-name="tildecomb.cap" horiz-adv-x="440" 
d="M394 914l11 -28s-52 -55 -83 -55c-43 0 -127 64 -159 64c-21 0 -80 -55 -80 -55l-10 29s57 57 90 57c43 0 127 -63 159 -63c18 0 72 51 72 51z" />
    <glyph glyph-name="uni0308" unicode="&#x308;" horiz-adv-x="833" 
d="M112 638v62h35v-62h-35zM302 638v62h35v-62h-35z" />
    <glyph glyph-name="uni0308.cap" horiz-adv-x="392" 
d="M109 838v62h35v-62h-35zM305 838v62h35v-62h-35z" />
    <glyph glyph-name="uni0304" unicode="&#x304;" horiz-adv-x="446" 
d="M90 642v32h267v-32h-267z" />
    <glyph glyph-name="uni0304.cap" horiz-adv-x="446" 
d="M80 832v32h287v-32h-287z" />
    <glyph glyph-name="uni0306" unicode="&#x306;" horiz-adv-x="446" 
d="M85 723h35c0 -55 38 -96 103 -96s103 41 103 96h35c0 -74 -54 -128 -138 -128s-138 54 -138 128z" />
    <glyph glyph-name="uni0306.cap" horiz-adv-x="446" 
d="M85 924h35c0 -55 48 -87 103 -87s103 32 103 87h35c0 -74 -64 -119 -138 -119s-138 45 -138 119z" />
    <glyph glyph-name="uni030A" unicode="&#x30a;" horiz-adv-x="833" 
d="M173 650c0 53 42 95 96 95c53 0 94 -42 94 -95c0 -54 -41 -95 -94 -95c-54 0 -96 41 -96 95zM207 650c0 -35 27 -64 62 -64c34 0 61 29 61 64c0 34 -27 63 -61 63c-35 0 -62 -29 -62 -63z" />
    <glyph glyph-name="uni030A.cap" horiz-adv-x="316" 
d="M255 822c0 -58 -39 -92 -97 -92s-97 34 -97 92s39 92 97 92s97 -34 97 -92zM94 822c0 -40 24 -62 64 -62s64 22 64 62s-24 62 -64 62s-64 -22 -64 -62z" />
    <glyph glyph-name="uni030B" unicode="&#x30b;" horiz-adv-x="685" 
d="M334 622l163 104l18 -27l-163 -104zM149 622l163 104l18 -27l-163 -104z" />
    <glyph glyph-name="uni030B.cap" horiz-adv-x="685" 
d="M329 791l191 87l15 -29l-192 -88zM138 791l192 88l14 -30l-191 -87z" />
    <glyph glyph-name="uni0307" unicode="&#x307;" horiz-adv-x="215" 
d="M90 645v55h35v-55h-35z" />
    <glyph glyph-name="uni0307.cap" horiz-adv-x="215" 
d="M90 783v55h35v-55h-35z" />
    <glyph glyph-name="uni0327" unicode="&#x327;" horiz-adv-x="394" 
d="M334 -127c0 -53 -34 -74 -82 -74c-44 0 -81 4 -81 4l2 28s44 -4 78 -4c29 0 48 11 48 46c0 31 -19 42 -48 42h-54v86h33v-58c71 0 104 -14 104 -70z" />
    <glyph glyph-name="uni0328" unicode="&#x328;" horiz-adv-x="434" 
d="M308 -159l4 -33s-36 -8 -64 -8c-46 0 -80 31 -80 82c0 44 83 124 83 124l35 -5s-81 -85 -81 -117c0 -27 19 -50 47 -50c19 0 56 7 56 7z" />
  </font>
</defs>
</svg>
