<?xml version="1.0" standalone="no"?>
<!DOCTYPE svg PUBLIC "-//W3C//DTD SVG 1.1//EN" "http://www.w3.org/Graphics/SVG/1.1/DTD/svg11.dtd" >
<svg xmlns="http://www.w3.org/2000/svg" xmlns:xlink="http://www.w3.org/1999/xlink" version="1.1">
<metadata>
Created by FontForge 20141024 at Wed Mar 25 10:55:45 2015
 By System Administrator
Copyright (c) 2009 by Accademia di Belle Arti di Urbino and students of MA course of Visual design. All rights reserved.
</metadata>
<defs>
<font id="TitilliumMaps29L-800wt" horiz-adv-x="530" >
  <font-face 
    font-family="TitilliumMaps29L"
    font-weight="800"
    font-stretch="normal"
    units-per-em="1000"
    panose-1="0 0 0 0 0 0 0 0 0 0"
    ascent="750"
    descent="-250"
    x-height="499"
    cap-height="692"
    bbox="-52 -302 1000 1121"
    underline-thickness="30"
    underline-position="-70"
    stemh="112"
    stemv="116"
    unicode-range="U+0020-25CA"
  />
<missing-glyph horiz-adv-x="235" 
 />
    <glyph glyph-name=".notdef" horiz-adv-x="235" 
 />
    <glyph glyph-name=".null" horiz-adv-x="0" 
 />
    <glyph glyph-name="CR" horiz-adv-x="235" 
 />
    <glyph glyph-name="space" unicode=" " horiz-adv-x="235" 
 />
    <glyph glyph-name="C" unicode="C" horiz-adv-x="531" 
d="M489 114l3 -105s-120 -20 -191 -20c-201 0 -252 122 -252 356c0 250 64 358 252 358c79 0 192 -23 192 -23l-4 -103s-120 14 -172 14c-113 0 -147 -63 -147 -246c0 -174 27 -244 151 -244c46 0 168 13 168 13z" />
    <glyph glyph-name="c" unicode="c" horiz-adv-x="436" 
d="M252 511c70 0 146 -16 146 -16l-4 -97s-73 8 -111 8c-90 0 -121 -44 -121 -150c0 -110 29 -163 122 -163c38 0 111 7 111 7l3 -97s-80 -14 -149 -14c-144 0 -203 87 -203 267c0 168 65 255 206 255z" />
    <glyph glyph-name="d" unicode="d" horiz-adv-x="544" 
d="M467 706v-706h-115v23s-63 -34 -120 -34c-137 0 -186 101 -186 264c0 171 72 258 204 258c39 0 97 -12 102 -13v208h115zM250 92c46 0 102 24 102 24v284c-5 1 -52 11 -94 11c-63 0 -96 -56 -96 -159c0 -99 23 -160 88 -160z" />
    <glyph glyph-name="e" unicode="e" horiz-adv-x="507" 
d="M267 89c71 0 179 9 179 9l2 -85s-94 -24 -190 -24c-155 0 -213 89 -213 255c0 168 73 267 212 267c140 0 208 -84 208 -228l-8 -81h-297c1 -66 29 -113 107 -113zM159 289h193c0 83 -26 126 -95 126s-97 -46 -98 -126z" />
    <glyph glyph-name="f" unicode="f" horiz-adv-x="340" 
d="M192 400v-400h-114v400h-53v99h53v31c0 134 44 186 142 186c33 0 103 -11 103 -11l-1 -94s-42 4 -73 4c-44 0 -57 -29 -57 -86v-30h125v-99h-125z" />
    <glyph glyph-name="g" unicode="g" horiz-adv-x="531" 
d="M271 -240c-135 0 -227 38 -227 151c0 49 25 86 74 123c-21 14 -34 41 -34 72c0 23 38 82 38 82c-37 24 -72 66 -72 147c0 121 92 175 197 175c38 0 95 -13 95 -13l153 3v-91h-73c12 -16 23 -40 23 -74c0 -127 -76 -174 -200 -174c-10 0 -29 2 -39 4c0 0 -12 -32 -12 -45
c0 -30 7 -37 99 -37c146 0 206 -35 206 -148c0 -124 -105 -175 -228 -175zM284 -14c-31 0 -91 6 -91 6c-23 -21 -36 -40 -36 -69c0 -43 46 -63 115 -63c71 0 112 23 112 69c0 48 -33 57 -100 57zM245 253c54 0 87 25 87 82c0 54 -28 81 -86 81c-55 0 -82 -29 -82 -81
s27 -82 81 -82z" />
    <glyph glyph-name="h" unicode="h" horiz-adv-x="562" 
d="M192 0h-114v706h114v-223s75 28 128 28c131 0 170 -92 170 -249v-262h-115v262c0 84 -11 145 -77 145c-43 0 -106 -20 -106 -20v-387z" />
    <glyph glyph-name="i" unicode="i" horiz-adv-x="257" 
d="M72 0v499h114v-499h-114zM72 574v119h114v-119h-114z" />
    <glyph glyph-name="j" unicode="j" horiz-adv-x="263" 
d="M78 6v493h114v-494c0 -134 -29 -177 -172 -247l-51 95c96 53 109 71 109 153zM78 573v119h114v-119h-114z" />
    <glyph glyph-name="k" unicode="k" horiz-adv-x="511" 
d="M194 0h-114v706h114v-401l50 7l115 187h128l-140 -234l146 -265h-129l-117 203l-53 -8v-195z" />
    <glyph glyph-name="l" unicode="l" horiz-adv-x="259" 
d="M73 0v706h114v-706h-114z" />
    <glyph glyph-name="m" unicode="m" horiz-adv-x="853" 
d="M196 0h-114v499h113v-27s74 39 121 39c52 0 95 -17 123 -44c0 0 114 44 173 44c128 0 170 -85 170 -250v-261h-114v256c0 93 -9 151 -78 151c-47 0 -107 -28 -107 -28c3 -8 8 -72 8 -120v-259h-114v257c0 96 -17 150 -83 150c-42 0 -98 -26 -98 -26v-381z" />
    <glyph glyph-name="A" unicode="A" horiz-adv-x="605" 
d="M28 0l165 692h221l163 -692h-118l-38 138h-241l-34 -138h-118zM285 589l-81 -342h195l-78 342h-36z" />
    <glyph glyph-name="p" unicode="p" horiz-adv-x="545" 
d="M80 -214v713h114v-26s62 38 119 38c122 0 188 -81 188 -256c0 -200 -75 -266 -220 -266c-41 0 -82 7 -87 8v-211h-114zM292 408c-44 0 -98 -28 -98 -28v-283c4 -1 40 -8 79 -8c86 0 112 59 112 166c0 93 -29 153 -93 153z" />
    <glyph glyph-name="q" unicode="q" horiz-adv-x="543" 
d="M249 -11c-150 0 -203 92 -203 257s60 265 221 265c56 0 198 -12 198 -12v-714h-114v221s-58 -17 -102 -17zM267 411c-81 0 -106 -63 -106 -164c0 -96 27 -156 96 -156c43 0 94 14 94 14v300s-57 6 -84 6z" />
    <glyph glyph-name="r" unicode="r" horiz-adv-x="359" 
d="M74 0v499h114v-53s62 48 145 65v-122c-91 -18 -145 -48 -145 -48v-341h-114z" />
    <glyph glyph-name="s" unicode="s" horiz-adv-x="494" 
d="M424 488l-2 -93s-123 16 -175 16c-51 0 -78 -18 -78 -55c0 -30 20 -39 99 -53c124 -23 171 -55 171 -154c0 -117 -80 -160 -194 -160c-71 0 -185 23 -185 23l4 93s119 -16 170 -16c66 0 91 17 91 57c0 31 -15 40 -91 55c-112 23 -179 49 -179 152c0 114 92 158 184 158
c73 0 185 -23 185 -23z" />
    <glyph glyph-name="u" unicode="u" horiz-adv-x="560" 
d="M368 499h114v-499h-114v25s-74 -36 -126 -36c-128 0 -169 76 -169 249v261h114v-260c0 -104 14 -150 78 -150c42 0 103 26 103 26v384z" />
    <glyph glyph-name="w" unicode="w" horiz-adv-x="752" 
d="M18 499h113l73 -396h24l88 387h120l88 -387h24l73 396h113l-101 -499h-187l-71 334l-71 -334h-185z" />
    <glyph glyph-name="y" unicode="y" horiz-adv-x="484" 
d="M18 499h113l101 -389h19l102 389h113l-185 -712h-113l55 214h-76z" />
    <glyph glyph-name="z" unicode="z" horiz-adv-x="478" 
d="M58 398v102h361l1 -102l-228 -296h228v-102h-361l-1 102l228 296h-228z" />
    <glyph glyph-name="Z" unicode="Z" horiz-adv-x="570" 
d="M65 582v110h440v-117l-295 -449v-16h295v-110h-440v117l295 448v17h-295z" />
    <glyph glyph-name="zero" unicode="0" 
d="M265 672c151 0 247 -83 247 -348c0 -259 -97 -335 -247 -335s-247 76 -247 335c0 265 97 348 247 348zM266 563c-85 0 -122 -58 -122 -239c0 -177 39 -227 122 -227s120 50 120 227c0 181 -36 239 -120 239z" />
    <glyph glyph-name="one" unicode="1" 
d="M45 518l209 142h110v-660h-118v525l-146 -100z" />
    <glyph glyph-name="two" unicode="2" 
d="M474 0h-424v105l160 158c83 86 130 139 130 208c0 61 -37 88 -115 88c-68 0 -163 -17 -163 -17l-8 104s108 26 199 26c137 0 208 -62 208 -185c0 -103 -37 -161 -132 -256l-126 -121h271v-110z" />
    <glyph glyph-name="three" unicode="3" 
d="M60 646c0 0 109 26 191 26c158 0 220 -58 220 -179c0 -82 -45 -118 -84 -144c59 -28 97 -58 97 -153c0 -137 -70 -207 -217 -207c-98 0 -215 23 -215 23l11 100s116 -14 188 -13c73 0 112 33 112 94c0 63 -42 88 -104 89h-129v102h128c47 0 92 46 92 92
c0 60 -42 86 -107 86c-80 0 -172 -15 -172 -15z" />
    <glyph glyph-name="five" unicode="5" 
d="M79 661h387v-110h-281l-17 -158s66 25 108 25c130 0 212 -58 212 -202c0 -154 -87 -227 -219 -227c-101 0 -225 31 -225 31l13 101s124 -24 207 -24c60 0 103 37 103 113c0 70 -38 101 -103 101s-115 -23 -115 -23l-92 19z" />
    <glyph glyph-name="six.001" 
d="M452 651l-4 -33s-72 18 -156 18c-130 0 -208 -73 -208 -284c0 1 103 58 191 58c153 0 209 -80 209 -202c0 -135 -64 -217 -214 -217c-156 0 -224 120 -224 346c0 252 97 333 246 333c84 0 160 -19 160 -19zM273 376c-92 -3 -190 -59 -190 -59c3 -187 53 -292 187 -292
c131 0 176 64 176 183c0 99 -39 168 -173 168z" />
    <glyph glyph-name="seven" unicode="7" 
d="M55 550v111h407v-141l-238 -536l-110 31l227 507v28h-286z" />
    <glyph glyph-name="eight" unicode="8" 
d="M269 672c134 0 236 -62 236 -178c0 -81 -21 -110 -85 -152c59 -32 95 -76 95 -155c0 -141 -109 -200 -247 -200c-137 0 -244 51 -244 189c0 87 43 132 93 166c-61 42 -82 79 -82 153c0 114 98 177 234 177zM268 94c75 0 121 29 121 102c0 47 -26 74 -74 90h-93
c-50 -17 -72 -46 -72 -92c0 -71 45 -100 118 -100zM270 566c-69 0 -109 -29 -109 -89c0 -42 18 -68 61 -91h93c44 22 64 49 64 91c0 59 -40 89 -109 89z" />
    <glyph glyph-name="nine.001" 
d="M74 12l6 32s82 -19 166 -19c130 0 201 78 201 289c0 -1 -103 -58 -191 -58c-147 0 -209 81 -209 197c0 135 71 217 218 217c154 0 219 -120 219 -346c0 -252 -89 -333 -238 -333c-84 0 -172 21 -172 21zM258 290c92 3 190 59 190 59c-3 183 -56 287 -183 287
c-124 0 -180 -64 -180 -183c0 -91 47 -163 173 -163z" />
    <glyph glyph-name="E" unicode="E" horiz-adv-x="557" 
d="M82 0v692h422v-108h-306v-188h246v-105h-246v-183h306v-108h-422z" />
    <glyph glyph-name="F" unicode="F" horiz-adv-x="543" 
d="M82 0v692h422v-109h-306v-229h246v-106h-246v-248h-116z" />
    <glyph glyph-name="G" unicode="G" horiz-adv-x="599" 
d="M349 268v102h194v-362s-145 -19 -224 -19c-206 0 -270 130 -270 358c0 240 70 356 266 356c97 0 228 -24 228 -24l-3 -102s-125 16 -208 16c-124 0 -162 -65 -162 -246c0 -176 31 -248 159 -248c39 0 97 7 98 7v162h-78z" />
    <glyph glyph-name="H" unicode="H" horiz-adv-x="670" 
d="M472 0v297h-274v-297h-116v692h116v-286h274v286h116v-692h-116z" />
    <glyph glyph-name="K" unicode="K" horiz-adv-x="592" 
d="M425 0l-138 286l-89 -8v-278h-116v692h116v-307l87 8l134 299h136l-165 -345l171 -347h-136z" />
    <glyph glyph-name="Q" unicode="Q" horiz-adv-x="646" 
d="M461 -152l-81 145c-17 -3 -36 -4 -57 -4c-206 0 -274 122 -274 352s68 362 274 362s274 -132 274 -362c0 -151 -27 -256 -106 -309l73 -134zM323 97c120 0 153 75 153 244c0 167 -34 254 -153 254s-153 -87 -153 -254s35 -244 153 -244z" />
    <glyph glyph-name="R" unicode="R" horiz-adv-x="616" 
d="M342 241l-22 -1h-122v-240h-116v692h249c151 0 234 -67 234 -223c0 -102 -37 -164 -108 -200l108 -269h-129zM445 467c0 74 -45 117 -114 117h-133v-239h135c73 0 112 53 112 122z" />
    <glyph glyph-name="S" unicode="S" horiz-adv-x="531" 
d="M485 681l-4 -100s-137 14 -195 14c-74 0 -118 -27 -118 -85c0 -59 35 -80 145 -116c140 -48 191 -79 191 -195c0 -145 -70 -210 -231 -210c-92 0 -211 22 -211 22l6 101s132 -15 195 -15c79 0 125 25 125 98c0 51 -37 70 -138 103c-147 49 -198 94 -198 211
c0 129 82 195 227 195c93 0 206 -23 206 -23z" />
    <glyph glyph-name="T" unicode="T" horiz-adv-x="484" 
d="M8 579v113h468v-113h-174v-579h-116v579h-178z" />
    <glyph glyph-name="V" unicode="V" horiz-adv-x="606" 
d="M455 692h123l-166 -692h-219l-165 692h123l132 -586h40z" />
    <glyph glyph-name="N" unicode="N" horiz-adv-x="698" 
d="M82 0v692h197l206 -570h14v570h118v-692h-193l-211 570h-14v-570h-117z" />
    <glyph glyph-name="DLE" horiz-adv-x="0" 
 />
    <glyph glyph-name="endash" unicode="&#x2013;" horiz-adv-x="500" 
d="M0 325h500v-104h-500v104z" />
    <glyph glyph-name="macron" unicode="&#xaf;" horiz-adv-x="478" 
d="M76 626v99h315v-99h-315z" />
    <glyph glyph-name="dollar" unicode="$" 
d="M156 -113l22 109c-61 6 -116 15 -116 15l8 103s65 -9 129 -14l38 192c-123 36 -185 65 -185 197c0 129 85 182 226 182c11 0 23 -1 35 -1l25 120h51l-25 -124c58 -4 110 -11 110 -11l-3 -105s-69 6 -128 10l-35 -173c142 -43 185 -73 185 -197c0 -143 -76 -201 -213 -201
c-15 0 -33 1 -51 3l-22 -112zM375 190c0 51 -24 67 -89 88l-36 -181h29c65 0 96 24 96 93zM170 489c0 -47 20 -64 89 -87l33 161h-14c-65 0 -108 -12 -108 -74z" />
    <glyph glyph-name="exclam" unicode="!" horiz-adv-x="476" 
d="M182 0v149h123v-149h-123zM185 251l-4 449h125l-4 -449h-117z" />
    <glyph glyph-name="OE.001" horiz-adv-x="944" 
d="M328 -9c-216 0 -268 124 -268 356c0 228 54 362 268 362c33 0 121 -3 147 -9h409v-36h-373v-286h313v-36h-313v-306h373v-36h-407v-1c-26 -6 -116 -8 -149 -8zM328 25c33 0 120 3 147 9v629c-26 8 -114 12 -147 12c-190 0 -230 -119 -230 -328c0 -210 37 -322 230 -322z
M476 663h-1l1 -332v332z" />
    <glyph glyph-name="summation" unicode="&#x2211;" 
d="M474 -89h-416v140l161 235l-161 233v140h416v-116h-278v-23l169 -234l-169 -236v-23h278v-116z" />
    <glyph glyph-name="a" unicode="a" horiz-adv-x="526" 
d="M444 342v-206c3 -35 17 -44 46 -51l-7 -96c-71 0 -105 13 -135 35c0 0 -70 -35 -146 -35c-87 0 -153 63 -153 160c0 103 65 145 164 152l117 10v32c0 42 -20 63 -58 63c-90 0 -194 -10 -194 -10l-4 94s130 21 204 21c107 0 166 -46 166 -169zM330 226l-104 -6
c-42 -2 -62 -30 -62 -68c0 -40 21 -67 54 -67c53 0 112 20 112 20v121z" />
    <glyph glyph-name="o" unicode="o" horiz-adv-x="529" 
d="M265 511c166 0 219 -110 219 -259c0 -151 -49 -263 -219 -263c-171 0 -220 110 -220 263c0 150 51 259 220 259zM265 88c87 0 103 68 103 164c0 95 -22 159 -103 159c-83 0 -104 -62 -104 -159c0 -98 17 -164 104 -164z" />
    <glyph glyph-name="J" unicode="J" horiz-adv-x="312" 
d="M234 692l1 -579c0 -145 -45 -183 -199 -183v104c63 1 83 20 83 83v575h115z" />
    <glyph glyph-name="t" unicode="t" horiz-adv-x="354" 
d="M325 398h-129v-209c0 -68 14 -97 52 -97c28 0 75 3 75 3l5 -93s-61 -14 -96 -14c-107 0 -150 54 -150 188v222h-59v100h59v146h114v-146h129v-100z" />
    <glyph glyph-name="n" unicode="n" horiz-adv-x="563" 
d="M194 0h-114v499h114v-25s73 37 128 37c131 0 170 -92 170 -250v-261h-114v260c0 85 -12 147 -78 147c-44 0 -106 -25 -106 -25v-382z" />
    <glyph glyph-name="numbersign" unicode="#" 
d="M526 170h-101v-170h-100v170h-121v-170h-100v170h-101v96h101v130h-101v96h101v170h100v-170h121v170h100v-170h101v-96h-101v-130h101v-96zM325 266v130h-121v-130h121z" />
    <glyph glyph-name="W" unicode="W" horiz-adv-x="927" 
d="M33 692h123l108 -586h20l113 576h133l115 -576h19l107 586h123l-140 -692h-191l-100 526l-98 -526h-191z" />
    <glyph glyph-name="ampersand.001" horiz-adv-x="700" 
d="M303 694c109 0 153 -60 153 -145c0 -99 -50 -144 -165 -182l187 -185c14 40 24 88 31 146h35c-9 -69 -21 -126 -39 -172l140 -137l-24 -26l-131 130c-47 -94 -120 -132 -222 -132c-176 0 -230 83 -230 217c0 124 52 169 163 201c-47 51 -51 88 -51 141
c0 84 50 144 153 144zM270 24c90 0 154 37 194 124l-237 235c-113 -30 -154 -69 -154 -174c0 -119 52 -185 197 -185zM185 550c0 -41 6 -84 45 -123l36 -36c112 38 155 72 155 159c0 69 -32 112 -118 112c-77 0 -118 -38 -118 -112z" />
    <glyph glyph-name="sterling.001" horiz-adv-x="570" 
d="M463 668v-32s-87 12 -120 12c-68 0 -102 -27 -102 -147v-95h182v-32h-182v-340h174l82 16l7 -32l-81 -17l-309 -1v34h92v340h-69v32h69v95c0 146 47 179 137 179c38 0 120 -12 120 -12z" />
    <glyph glyph-name="Euro.001" horiz-adv-x="593" 
d="M68 427h64c13 159 66 250 246 250c95 0 175 -19 175 -19l-3 -35s-91 20 -172 20c-156 0 -198 -77 -208 -216l311 -1v-33h-313c-1 -20 -1 -41 -1 -62c0 -18 0 -36 1 -52l313 -1v-33h-312c10 -144 53 -220 209 -220c71 0 172 20 172 20l3 -34s-96 -20 -175 -20
c-178 0 -234 87 -246 254h-64v34h62c-1 16 -1 34 -1 52c0 21 0 42 1 62h-62v34z" />
    <glyph glyph-name="at" unicode="@" horiz-adv-x="985" 
d="M941 305v-17c0 -233 -68 -298 -187 -298c-59 0 -99 12 -125 47c-38 -19 -104 -46 -159 -46c-110 0 -184 56 -184 251c0 164 39 267 195 267c34 0 101 -23 101 -23v14h114v-200c0 -184 13 -200 58 -200c47 0 72 25 72 188v18c0 224 -96 310 -322 310
c-229 0 -345 -116 -345 -355c0 -260 96 -357 345 -357c40 0 143 9 143 9l5 -110s-100 -10 -148 -10c-296 0 -460 107 -460 468c0 322 180 466 460 466c297 0 437 -146 437 -422zM478 103c38 0 82 13 112 24c-6 33 -8 74 -8 125v136s-50 13 -77 13c-86 0 -103 -39 -103 -159
c0 -111 31 -139 76 -139z" />
    <glyph glyph-name="grave" unicode="`" horiz-adv-x="545" 
d="M140 766l244 -92l-33 -90l-247 81z" />
    <glyph glyph-name="acute" unicode="&#xb4;" horiz-adv-x="583" 
d="M101 674l244 93l39 -108l-248 -80z" />
    <glyph glyph-name="dieresis" unicode="&#xa8;" horiz-adv-x="599" 
d="M76 612v118h109v-118h-109zM287 612v118h109v-118h-109z" />
    <glyph glyph-name="circumflex" unicode="&#x2c6;" horiz-adv-x="833" 
d="M233 584l129 164h92l130 -164h-123l-52 69l-53 -69h-123z" />
    <glyph glyph-name="tilde" unicode="&#x2dc;" horiz-adv-x="462" 
d="M374 740l25 -87s-51 -59 -100 -59c-50 0 -116 46 -149 46c-27 0 -78 -41 -78 -41l-25 86s53 60 102 60c57 0 118 -45 147 -45c24 0 78 40 78 40z" />
    <glyph glyph-name="ring" unicode="&#x2da;" horiz-adv-x="833" 
d="M155 640c0 63 49 113 113 113c63 0 113 -50 113 -113c0 -64 -50 -112 -113 -112c-64 0 -113 48 -113 112zM232 640c0 -21 16 -37 37 -37c20 0 36 16 36 37s-16 37 -36 37c-21 0 -37 -16 -37 -37z" />
    <glyph glyph-name="caron" unicode="&#x2c7;" horiz-adv-x="833" 
d="M361 584l-128 164h124l52 -68l52 68h123l-128 -164h-95z" />
    <glyph glyph-name="ydieresis" unicode="&#xff;" horiz-adv-x="484" 
d="M18 499h113l101 -389h19l102 389h113l-185 -712h-113l55 214h-76zM82 612v118h109v-118h-109zM293 612v118h109v-118h-109z" />
    <glyph glyph-name="scaron" unicode="&#x161;" horiz-adv-x="494" 
d="M424 488l-2 -93s-123 16 -175 16c-51 0 -78 -18 -78 -55c0 -30 20 -39 99 -53c124 -23 171 -55 171 -154c0 -117 -80 -160 -194 -160c-71 0 -185 23 -185 23l4 93s119 -16 170 -16c66 0 91 17 91 57c0 31 -15 40 -91 55c-112 23 -179 49 -179 152c0 114 92 158 184 158
c73 0 185 -23 185 -23zM197 584l-128 164h124l52 -68l52 68h123l-128 -164h-95z" />
    <glyph glyph-name="yacute" unicode="&#xfd;" horiz-adv-x="480" 
d="M10 499h113l101 -389h19l102 389h113l-185 -712h-113l55 214h-76zM113 674l244 93l39 -108l-248 -80z" />
    <glyph glyph-name="zcaron" unicode="&#x17e;" horiz-adv-x="478" 
d="M58 398v102h361l1 -102l-228 -296h228v-102h-361l-1 102l228 296h-228zM186 584l-128 164h124l52 -68l52 68h123l-128 -164h-95z" />
    <glyph glyph-name="backslash.001" horiz-adv-x="833" 
d="M582 14l-35 -14l-301 687l35 14z" />
    <glyph glyph-name="underscore.001" horiz-adv-x="520" 
d="M27 -34h428v-34h-428v34z" />
    <glyph glyph-name="P.001" horiz-adv-x="615" 
d="M358 257h-219v-257h-36v700h255c139 0 207 -61 207 -211c0 -140 -49 -232 -207 -232zM139 291h219c129 0 169 85 169 198c0 123 -55 177 -169 177h-219v-375z" />
    <glyph glyph-name="M" unicode="M" horiz-adv-x="849" 
d="M82 0v692h192l151 -535l152 535h190v-692h-116v554h-15l-151 -526h-120l-153 526h-14v-554h-116z" />
    <glyph glyph-name="U" unicode="U" horiz-adv-x="645" 
d="M191 223c0 -88 42 -120 131 -120c90 0 132 33 132 120v469h117v-469c0 -164 -75 -232 -249 -232c-172 0 -248 68 -248 232v469h117v-469z" />
    <glyph glyph-name="X" unicode="X" horiz-adv-x="581" 
d="M156 692l135 -264l134 264h131l-190 -349l190 -343h-131l-134 259l-135 -259h-131l193 343l-193 349h131z" />
    <glyph glyph-name="Y" unicode="Y" horiz-adv-x="565" 
d="M342 296v-296h-116v296l-208 396h131l134 -272l133 272h131z" />
    <glyph glyph-name="degree" unicode="&#xb0;" 
d="M97 564c0 87 60 147 147 147s147 -60 147 -147s-60 -146 -147 -146s-147 59 -147 146zM164 564c0 -48 32 -81 80 -81s82 33 82 81s-34 82 -82 82s-80 -34 -80 -82z" />
    <glyph glyph-name="section" unicode="&#xa7;" 
d="M455 621l-6 -93s-111 15 -159 15c-81 0 -105 -20 -105 -74c0 -43 40 -54 138 -76c113 -26 155 -51 155 -149c0 -49 -25 -105 -48 -137c24 -21 38 -44 38 -106c0 -124 -65 -178 -208 -178c-68 0 -183 21 -183 21l11 93s109 -15 164 -15c72 0 107 21 107 71
c0 48 -36 55 -143 80c-111 26 -160 56 -160 154c0 52 37 111 62 131c-29 21 -44 50 -44 109c0 120 75 175 209 175c69 0 172 -21 172 -21zM270 301c-27 6 -56 11 -77 18c-6 -9 -22 -45 -22 -72c0 -47 19 -58 78 -71c38 -10 69 -19 93 -28c8 10 20 50 20 80
c0 43 -22 56 -92 73z" />
    <glyph glyph-name="copyright" unicode="&#xa9;" 
d="M9 433c0 150 109 268 256 268c153 0 256 -124 256 -267c0 -148 -103 -266 -258 -266c-144 0 -254 118 -254 265zM66 434c0 -115 84 -208 198 -208c117 0 201 93 201 208s-85 210 -200 210s-199 -95 -199 -210zM342 376v-89s-29 -8 -75 -8c-91 0 -127 48 -127 159
c0 100 36 150 127 150c46 0 76 -6 76 -6l-1 -91s-30 6 -75 6c-30 0 -38 -29 -38 -59c0 -34 10 -67 38 -67c44 0 75 5 75 5z" />
    <glyph glyph-name="trademark" unicode="&#x2122;" 
d="M7 570v69h200v-69h-49v-238h-77v238h-74zM234 331v308h92l50 -174l53 174h92v-308h-72v191l-45 -172h-51l-47 172v-191h-72z" />
    <glyph glyph-name="divide.001" 
d="M3 334v36h336v-36h-336zM151 483v80h40v-80h-40zM151 139v80h40v-80h-40z" />
    <glyph glyph-name="registered" unicode="&#xae;" 
d="M-6 434c0 152 101 280 271 280c169 0 276 -126 276 -280c0 -151 -108 -281 -276 -281c-170 0 -271 128 -271 281zM50 434c0 -122 94 -226 215 -226c120 0 216 103 216 226c0 127 -97 226 -216 226c-123 0 -215 -99 -215 -226zM303 276l-39 107h-36v-107h-83v315h119
c77 0 122 -26 122 -100c0 -51 -10 -76 -42 -97l49 -118h-90zM227 527v-81h38c27 0 40 12 40 40s-14 41 -44 41h-34z" />
    <glyph glyph-name="aacute" unicode="&#xe1;" 
d="M444 342v-206c3 -35 17 -44 46 -51l-7 -96c-71 0 -105 13 -135 35c0 0 -70 -35 -146 -35c-87 0 -153 63 -153 160c0 103 65 145 164 152l117 10v32c0 42 -20 63 -58 63c-90 0 -194 -10 -194 -10l-4 94s130 21 204 21c107 0 166 -46 166 -169zM330 226l-104 -6
c-42 -2 -62 -30 -62 -68c0 -40 21 -67 54 -67c53 0 112 20 112 20v121zM157 674l244 93l39 -108l-248 -80z" />
    <glyph glyph-name="agrave" unicode="&#xe0;" 
d="M444 342v-206c3 -35 17 -44 46 -51l-7 -96c-71 0 -105 13 -135 35c0 0 -70 -35 -146 -35c-87 0 -153 63 -153 160c0 103 65 145 164 152l117 10v32c0 42 -20 63 -58 63c-90 0 -194 -10 -194 -10l-4 94s130 21 204 21c107 0 166 -46 166 -169zM330 226l-104 -6
c-42 -2 -62 -30 -62 -68c0 -40 21 -67 54 -67c53 0 112 20 112 20v121zM153 766l244 -92l-33 -90l-247 81z" />
    <glyph glyph-name="acircumflex" unicode="&#xe2;" 
d="M444 342v-206c3 -35 17 -44 46 -51l-7 -96c-71 0 -105 13 -135 35c0 0 -70 -35 -146 -35c-87 0 -153 63 -153 160c0 103 65 145 164 152l117 10v32c0 42 -20 63 -58 63c-90 0 -194 -10 -194 -10l-4 94s130 21 204 21c107 0 166 -46 166 -169zM330 226l-104 -6
c-42 -2 -62 -30 -62 -68c0 -40 21 -67 54 -67c53 0 112 20 112 20v121zM76 584l129 164h92l130 -164h-123l-52 69l-53 -69h-123z" />
    <glyph glyph-name="adieresis" unicode="&#xe4;" 
d="M444 342v-206c3 -35 17 -44 46 -51l-7 -96c-71 0 -105 13 -135 35c0 0 -70 -35 -146 -35c-87 0 -153 63 -153 160c0 103 65 145 164 152l117 10v32c0 42 -20 63 -58 63c-90 0 -194 -10 -194 -10l-4 94s130 21 204 21c107 0 166 -46 166 -169zM330 226l-104 -6
c-42 -2 -62 -30 -62 -68c0 -40 21 -67 54 -67c53 0 112 20 112 20v121zM120 612v118h109v-118h-109zM331 612v118h109v-118h-109z" />
    <glyph glyph-name="atilde" unicode="&#xe3;" 
d="M444 342v-206c3 -35 17 -44 46 -51l-7 -96c-71 0 -105 13 -135 35c0 0 -70 -35 -146 -35c-87 0 -153 63 -153 160c0 103 65 145 164 152l117 10v32c0 42 -20 63 -58 63c-90 0 -194 -10 -194 -10l-4 94s130 21 204 21c107 0 166 -46 166 -169zM330 226l-104 -6
c-42 -2 -62 -30 -62 -68c0 -40 21 -67 54 -67c53 0 112 20 112 20v121zM403 740l25 -87s-51 -59 -100 -59c-50 0 -116 46 -149 46c-27 0 -78 -41 -78 -41l-25 86s53 60 102 60c57 0 118 -45 147 -45c24 0 78 40 78 40z" />
    <glyph glyph-name="aring" unicode="&#xe5;" 
d="M444 342v-206c3 -35 17 -44 46 -51l-7 -96c-71 0 -105 13 -135 35c0 0 -70 -35 -146 -35c-87 0 -153 63 -153 160c0 103 65 145 164 152l117 10v32c0 42 -20 63 -58 63c-90 0 -194 -10 -194 -10l-4 94s130 21 204 21c107 0 166 -46 166 -169zM330 226l-104 -6
c-42 -2 -62 -30 -62 -68c0 -40 21 -67 54 -67c53 0 112 20 112 20v121zM149 660c0 63 49 113 113 113c63 0 113 -50 113 -113c0 -64 -50 -112 -113 -112c-64 0 -113 48 -113 112zM226 660c0 -21 16 -37 37 -37c20 0 36 16 36 37s-16 37 -36 37c-21 0 -37 -16 -37 -37z" />
    <glyph glyph-name="eacute" unicode="&#xe9;" horiz-adv-x="507" 
d="M267 89c71 0 179 9 179 9l2 -85s-94 -24 -190 -24c-155 0 -213 89 -213 255c0 168 73 267 212 267c140 0 208 -84 208 -228l-8 -81h-297c1 -66 29 -113 107 -113zM159 289h193c0 83 -26 126 -95 126s-97 -46 -98 -126zM122 674l244 93l39 -108l-248 -80z" />
    <glyph glyph-name="egrave" unicode="&#xe8;" horiz-adv-x="507" 
d="M267 89c71 0 179 9 179 9l2 -85s-94 -24 -190 -24c-155 0 -213 89 -213 255c0 168 73 267 212 267c140 0 208 -84 208 -228l-8 -81h-297c1 -66 29 -113 107 -113zM159 289h193c0 83 -26 126 -95 126s-97 -46 -98 -126zM151 766l244 -92l-33 -90l-247 81z" />
    <glyph glyph-name="ecircumflex" unicode="&#xea;" horiz-adv-x="507" 
d="M267 89c71 0 179 9 179 9l2 -85s-94 -24 -190 -24c-155 0 -213 89 -213 255c0 168 73 267 212 267c140 0 208 -84 208 -228l-8 -81h-297c1 -66 29 -113 107 -113zM159 289h193c0 83 -26 126 -95 126s-97 -46 -98 -126zM88 584l129 164h92l130 -164h-123l-52 69l-53 -69
h-123z" />
    <glyph glyph-name="edieresis" unicode="&#xeb;" horiz-adv-x="507" 
d="M267 89c71 0 179 9 179 9l2 -85s-94 -24 -190 -24c-155 0 -213 89 -213 255c0 168 73 267 212 267c140 0 208 -84 208 -228l-8 -81h-297c1 -66 29 -113 107 -113zM159 289h193c0 83 -26 126 -95 126s-97 -46 -98 -126zM127 612v118h109v-118h-109zM338 612v118h109v-118
h-109z" />
    <glyph glyph-name="idieresis" unicode="&#xef;" horiz-adv-x="267" 
d="M-8 612v118h109v-118h-109zM203 612v118h109v-118h-109zM76 0v499h114v-499h-114z" />
    <glyph glyph-name="ntilde" unicode="&#xf1;" horiz-adv-x="574" 
d="M202 0h-114v499h114v-25s73 37 128 37c131 0 170 -92 170 -250v-261h-114v260c0 85 -12 147 -78 147c-44 0 -106 -25 -106 -25v-382zM439 740l25 -87s-51 -59 -100 -59c-50 0 -116 46 -149 46c-27 0 -78 -41 -78 -41l-25 86s53 60 102 60c57 0 118 -45 147 -45
c24 0 78 40 78 40z" />
    <glyph glyph-name="oacute" unicode="&#xf3;" horiz-adv-x="531" 
d="M265 511c166 0 219 -110 219 -259c0 -151 -49 -263 -219 -263c-171 0 -220 110 -220 263c0 150 51 259 220 259zM265 88c87 0 103 68 103 164c0 95 -22 159 -103 159c-83 0 -104 -62 -104 -159c0 -98 17 -164 104 -164zM107 674l244 93l39 -108l-248 -80z" />
    <glyph glyph-name="ograve" unicode="&#xf2;" horiz-adv-x="531" 
d="M265 511c166 0 219 -110 219 -259c0 -151 -49 -263 -219 -263c-171 0 -220 110 -220 263c0 150 51 259 220 259zM265 88c87 0 103 68 103 164c0 95 -22 159 -103 159c-83 0 -104 -62 -104 -159c0 -98 17 -164 104 -164zM138 766l244 -92l-33 -90l-247 81z" />
    <glyph glyph-name="ocircumflex" unicode="&#xf4;" horiz-adv-x="531" 
d="M265 511c166 0 219 -110 219 -259c0 -151 -49 -263 -219 -263c-171 0 -220 110 -220 263c0 150 51 259 220 259zM265 88c87 0 103 68 103 164c0 95 -22 159 -103 159c-83 0 -104 -62 -104 -159c0 -98 17 -164 104 -164zM68 584l129 164h92l130 -164h-123l-52 69l-53 -69
h-123z" />
    <glyph glyph-name="odieresis" unicode="&#xf6;" horiz-adv-x="531" 
d="M265 511c166 0 219 -110 219 -259c0 -151 -49 -263 -219 -263c-171 0 -220 110 -220 263c0 150 51 259 220 259zM265 88c87 0 103 68 103 164c0 95 -22 159 -103 159c-83 0 -104 -62 -104 -159c0 -98 17 -164 104 -164zM107 612v118h109v-118h-109zM318 612v118h109v-118
h-109z" />
    <glyph glyph-name="otilde" unicode="&#xf5;" horiz-adv-x="531" 
d="M265 511c166 0 219 -110 219 -259c0 -151 -49 -263 -219 -263c-171 0 -220 110 -220 263c0 150 51 259 220 259zM265 88c87 0 103 68 103 164c0 95 -22 159 -103 159c-83 0 -104 -62 -104 -159c0 -98 17 -164 104 -164zM388 740l25 -87s-51 -59 -100 -59
c-50 0 -116 46 -149 46c-27 0 -78 -41 -78 -41l-25 86s53 60 102 60c57 0 118 -45 147 -45c24 0 78 40 78 40z" />
    <glyph glyph-name="uacute" unicode="&#xfa;" horiz-adv-x="560" 
d="M368 499h114v-499h-114v25s-74 -36 -126 -36c-128 0 -169 76 -169 249v261h114v-260c0 -104 14 -150 78 -150c42 0 103 26 103 26v384zM126 674l244 93l39 -108l-248 -80z" />
    <glyph glyph-name="ugrave" unicode="&#xf9;" horiz-adv-x="560" 
d="M368 499h114v-499h-114v25s-74 -36 -126 -36c-128 0 -169 76 -169 249v261h114v-260c0 -104 14 -150 78 -150c42 0 103 26 103 26v384zM157 766l244 -92l-33 -90l-247 81z" />
    <glyph glyph-name="ucircumflex" unicode="&#xfb;" horiz-adv-x="560" 
d="M368 499h114v-499h-114v25s-74 -36 -126 -36c-128 0 -169 76 -169 249v261h114v-260c0 -104 14 -150 78 -150c42 0 103 26 103 26v384zM100 584l129 164h92l130 -164h-123l-52 69l-53 -69h-123z" />
    <glyph glyph-name="udieresis" unicode="&#xfc;" horiz-adv-x="560" 
d="M368 499h114v-499h-114v25s-74 -36 -126 -36c-128 0 -169 76 -169 249v261h114v-260c0 -104 14 -150 78 -150c42 0 103 26 103 26v384zM121 612v118h109v-118h-109zM332 612v118h109v-118h-109z" />
    <glyph glyph-name="minus" unicode="&#x2212;" 
d="M38 225v114h452v-114h-452z" />
    <glyph glyph-name="multiply" unicode="&#xd7;" 
d="M127 489l135 -136l140 139l79 -80l-138 -140l136 -135l-80 -80l-136 136l-139 -140l-80 81l139 139l-136 136z" />
    <glyph glyph-name="plus.001" horiz-adv-x="410" 
d="M-49 234v34h232v232h36v-232h234v-34h-234v-234h-36v234h-232z" />
    <glyph glyph-name="hyphen.001" horiz-adv-x="440" 
d="M60 264v34h320v-34h-320z" />
    <glyph glyph-name="less.001" 
d="M410 520l-315 -206l315 -217v-41s-313 213 -347 238v36l347 229v-39z" />
    <glyph glyph-name="equal.001" 
d="M1 343v34h505v-34h-505zM2 174v34h505v-34h-505z" />
    <glyph glyph-name="greater.001" 
d="M378 314l-315 206v39l347 -229v-36c-34 -25 -347 -238 -347 -238v41z" />
    <glyph glyph-name="slash.001" 
d="M46 12l277 690l33 -14l-277 -689z" />
    <glyph glyph-name="dotlessi" unicode="&#x131;" horiz-adv-x="267" 
d="M76 0v499h114v-499h-114z" />
    <glyph glyph-name="iacute" unicode="&#xed;" horiz-adv-x="261" 
d="M8 674l244 93l39 -108l-248 -80zM76 0v499h114v-499h-114z" />
    <glyph glyph-name="igrave" unicode="&#xec;" horiz-adv-x="267" 
d="M76 0v499h114v-499h-114zM-15 766l244 -92l-33 -90l-247 81z" />
    <glyph glyph-name="icircumflex" unicode="&#xee;" horiz-adv-x="267" 
d="M76 0v499h114v-499h-114zM-47 584l129 164h92l130 -164h-123l-52 69l-53 -69h-123z" />
    <glyph glyph-name="Atilde" unicode="&#xc3;" horiz-adv-x="605" 
d="M28 0l165 692h221l163 -692h-118l-38 138h-241l-34 -138h-118zM285 589l-81 -342h195l-78 342h-36zM464 933l25 -87s-53 -62 -102 -62c-50 0 -134 48 -167 48c-27 0 -80 -43 -80 -43l-25 87s54 62 103 62c58 0 137 -47 166 -47c24 0 80 42 80 42z" />
    <glyph glyph-name="Agrave" unicode="&#xc0;" horiz-adv-x="605" 
d="M28 0l165 692h221l163 -692h-118l-38 138h-241l-34 -138h-118zM285 589l-81 -342h195l-78 342h-36zM186 948l244 -92l-35 -96l-248 81z" />
    <glyph glyph-name="Otilde" unicode="&#xd5;" horiz-adv-x="646" 
d="M323 97c116 0 153 71 153 244c0 171 -38 254 -153 254s-153 -83 -153 -254s37 -244 153 -244zM323 -11c-202 0 -274 118 -274 352s72 362 274 362s274 -128 274 -362c0 -236 -72 -352 -274 -352zM486 932l25 -87s-53 -62 -102 -62c-50 0 -134 48 -167 48
c-27 0 -80 -43 -80 -43l-25 87s54 62 103 62c58 0 137 -47 166 -47c24 0 80 42 80 42z" />
    <glyph glyph-name="oe.001" horiz-adv-x="876" 
d="M618 23c70 0 182 9 182 9l2 -32s-112 -9 -185 -9c-94 1 -144 38 -169 107c-24 -74 -77 -107 -183 -107c-166 0 -205 69 -205 270c0 185 57 248 205 248c96 0 157 -35 184 -120c33 89 101 120 182 120c123 0 190 -67 190 -240v-33h-355c0 -138 36 -213 152 -213zM265 23
c147 0 164 77 164 236c0 160 -53 218 -164 218c-128 0 -168 -48 -168 -216c0 -172 21 -238 168 -238zM466 268h318c0 153 -49 209 -153 209c-100 0 -165 -57 -165 -209z" />
    <glyph glyph-name="Acircumflex" unicode="&#xc2;" horiz-adv-x="605" 
d="M28 0l165 692h221l163 -692h-118l-38 138h-241l-34 -138h-118zM285 589l-81 -342h195l-78 342h-36zM115 789l132 144h104l132 -144h-129l-54 53l-53 -53h-132z" />
    <glyph glyph-name="Ecircumflex" unicode="&#xca;" horiz-adv-x="557" 
d="M82 0v692h422v-108h-306v-188h246v-105h-246v-183h306v-108h-422zM114 791l132 144h104l132 -144h-129l-54 53l-53 -53h-132z" />
    <glyph glyph-name="Aacute" unicode="&#xc1;" horiz-adv-x="605" 
d="M28 0l165 692h221l163 -692h-118l-38 138h-241l-34 -138h-118zM285 589l-81 -342h195l-78 342h-36zM151 864l244 93l39 -108l-248 -80z" />
    <glyph glyph-name="Edieresis" unicode="&#xcb;" horiz-adv-x="557" 
d="M82 0v692h422v-108h-306v-188h246v-105h-246v-183h306v-108h-422zM142 803v118h109v-118h-109zM359 803v118h109v-118h-109z" />
    <glyph glyph-name="Egrave" unicode="&#xc8;" horiz-adv-x="557" 
d="M82 0v692h422v-108h-306v-188h246v-105h-246v-183h306v-108h-422zM196 948l244 -92l-35 -96l-248 81z" />
    <glyph glyph-name="Ocircumflex" unicode="&#xd4;" horiz-adv-x="646" 
d="M323 97c116 0 153 71 153 244c0 171 -38 254 -153 254s-153 -83 -153 -254s37 -244 153 -244zM323 -11c-202 0 -274 118 -274 352s72 362 274 362s274 -128 274 -362c0 -236 -72 -352 -274 -352zM145 790l132 144h104l132 -144h-129l-54 53l-53 -53h-132z" />
    <glyph glyph-name="Oacute" unicode="&#xd3;" horiz-adv-x="646" 
d="M323 97c116 0 153 71 153 244c0 171 -38 254 -153 254s-153 -83 -153 -254s37 -244 153 -244zM323 -11c-202 0 -274 118 -274 352s72 362 274 362s274 -128 274 -362c0 -236 -72 -352 -274 -352zM170 864l244 93l39 -108l-248 -80z" />
    <glyph glyph-name="Igrave" unicode="&#xcc;" horiz-adv-x="268" 
d="M75 0v692h118v-692h-118zM-1 948l244 -92l-35 -96l-248 81z" />
    <glyph glyph-name="Idieresis" unicode="&#xcf;" horiz-adv-x="268" 
d="M75 0v692h118v-692h-118zM-28 813v118h109v-118h-109zM189 813v118h109v-118h-109z" />
    <glyph glyph-name="Icircumflex" unicode="&#xce;" horiz-adv-x="268" 
d="M75 0v692h118v-692h-118zM-52 791l132 144h104l132 -144h-129l-54 53l-53 -53h-132z" />
    <glyph glyph-name="Iacute" unicode="&#xcd;" horiz-adv-x="268" 
d="M75 0v692h118v-692h-118zM16 864l244 93l39 -108l-248 -80z" />
    <glyph glyph-name="Ograve" unicode="&#xd2;" horiz-adv-x="646" 
d="M323 97c116 0 153 71 153 244c0 171 -38 254 -153 254s-153 -83 -153 -254s37 -244 153 -244zM323 -11c-202 0 -274 118 -274 352s72 362 274 362s274 -128 274 -362c0 -236 -72 -352 -274 -352zM217 948l244 -92l-35 -96l-248 81z" />
    <glyph glyph-name="Uacute" unicode="&#xda;" horiz-adv-x="645" 
d="M191 223c0 -88 42 -120 131 -120c90 0 132 33 132 120v469h117v-469c0 -164 -75 -232 -249 -232c-172 0 -248 68 -248 232v469h117v-469zM171 864l244 93l39 -108l-248 -80z" />
    <glyph glyph-name="Ucircumflex" unicode="&#xdb;" horiz-adv-x="645" 
d="M191 223c0 -88 42 -120 131 -120c90 0 132 33 132 120v469h117v-469c0 -164 -75 -232 -249 -232c-172 0 -248 68 -248 232v469h117v-469zM139 789l132 144h104l132 -144h-129l-54 53l-53 -53h-132z" />
    <glyph glyph-name="Ugrave" unicode="&#xd9;" horiz-adv-x="645" 
d="M191 223c0 -88 42 -120 131 -120c90 0 132 33 132 120v469h117v-469c0 -164 -75 -232 -249 -232c-172 0 -248 68 -248 232v469h117v-469zM210 948l244 -92l-35 -96l-248 81z" />
    <glyph glyph-name="cedilla" unicode="&#xb8;" horiz-adv-x="833" 
d="M566 -127c0 -65 -41 -98 -105 -98c-43 0 -91 10 -91 10l4 68s34 -2 54 -2c27 0 40 9 40 30c0 20 -13 26 -40 26h-30v94h49v-42c79 -1 119 -15 119 -86z" />
    <glyph glyph-name="AE.001" horiz-adv-x="898" 
d="M429 0v215h-276l-78 -215h-40l251 700h552v-34h-373v-288h313v-34h-313v-310h373v-34h-409zM314 666l-149 -417h264v417h-115z" />
    <glyph glyph-name="Oslash.001" horiz-adv-x="656" 
d="M89 -98l60 129c-80 53 -103 160 -103 316c0 228 54 362 268 362c57 0 103 -10 140 -28l52 111l33 -14l-55 -116c75 -58 98 -166 98 -315c0 -242 -53 -356 -268 -356c-54 0 -98 8 -134 23l-58 -125zM84 347c0 -138 16 -233 81 -283l273 584c-32 18 -72 27 -124 27
c-190 0 -230 -119 -230 -328zM314 25c193 0 230 102 230 322c0 130 -17 226 -76 280l-273 -581c31 -14 70 -21 119 -21z" />
    <glyph glyph-name="germandbls.001" horiz-adv-x="833" 
d="M249 0h-36v532c0 137 32 178 153 178c139 0 190 -41 190 -135c0 -59 -21 -83 -64 -100c-56 -22 -69 -23 -69 -45c0 -13 1 -14 84 -64c95 -58 134 -74 134 -115c0 -177 -37 -260 -238 -260c-30 0 -78 4 -78 4l4 34s57 -4 74 -4c183 0 200 75 200 226c0 16 -31 38 -121 89
c-91 51 -97 58 -97 90c0 51 29 49 87 74c44 19 46 26 46 71c0 75 -42 101 -152 101c-95 0 -117 -26 -117 -157v-519z" />
    <glyph glyph-name="Udieresis" unicode="&#xdc;" horiz-adv-x="645" 
d="M191 223c0 -88 42 -120 131 -120c90 0 132 33 132 120v469h117v-469c0 -164 -75 -232 -249 -232c-172 0 -248 68 -248 232v469h117v-469zM160 813v118h109v-118h-109zM377 813v118h109v-118h-109z" />
    <glyph glyph-name="Odieresis" unicode="&#xd6;" horiz-adv-x="646" 
d="M323 97c116 0 153 71 153 244c0 171 -38 254 -153 254s-153 -83 -153 -254s37 -244 153 -244zM323 -11c-202 0 -274 118 -274 352s72 362 274 362s274 -128 274 -362c0 -236 -72 -352 -274 -352zM162 803v118h109v-118h-109zM379 803v118h109v-118h-109z" />
    <glyph glyph-name="Ntilde" unicode="&#xd1;" horiz-adv-x="698" 
d="M82 0v692h197l206 -570h14v570h118v-692h-193l-211 570h-14v-570h-117zM514 932l25 -87s-53 -62 -102 -62c-50 0 -134 48 -167 48c-27 0 -80 -43 -80 -43l-25 87s54 62 103 62c58 0 137 -47 166 -47c24 0 80 42 80 42z" />
    <glyph glyph-name="Eacute" unicode="&#xc9;" horiz-adv-x="557" 
d="M82 0v692h422v-108h-306v-188h246v-105h-246v-183h306v-108h-422zM166 864l244 93l39 -108l-248 -80z" />
    <glyph glyph-name="Ccedilla" unicode="&#xc7;" horiz-adv-x="537" 
d="M437 -127c0 -65 -41 -98 -105 -98c-43 0 -91 10 -91 10l4 68s34 -2 54 -2c27 0 40 9 40 30c0 20 -13 26 -40 26h-30v83c-175 13 -220 134 -220 355c0 250 64 358 252 358c79 0 192 -23 192 -23l-4 -103s-120 14 -172 14c-113 0 -147 -63 -147 -246
c0 -174 27 -244 151 -244c46 0 168 13 168 13l3 -105s-103 -17 -174 -19v-31c79 -1 119 -15 119 -86z" />
    <glyph glyph-name="Aring" unicode="&#xc5;" horiz-adv-x="605" 
d="M444 729c0 -28 -9 -51 -23 -69l156 -660h-118l-38 138h-241l-34 -138h-118l158 661c-14 18 -21 41 -21 68c0 77 62 119 140 119c76 0 139 -42 139 -119zM285 589l-81 -342h195l-78 342h-36zM254 729c0 -19 11 -32 31 -37h39c19 5 31 18 31 37c0 24 -19 39 -50 39
c-32 0 -51 -15 -51 -39z" />
    <glyph glyph-name="Adieresis" unicode="&#xc4;" horiz-adv-x="605" 
d="M28 0l165 692h221l163 -692h-118l-38 138h-241l-34 -138h-118zM285 589l-81 -342h195l-78 342h-36zM142 803v118h109v-118h-109zM359 803v118h109v-118h-109z" />
    <glyph glyph-name="ccedilla" unicode="&#xe7;" horiz-adv-x="436" 
d="M389 -127c0 -65 -41 -98 -105 -98c-43 0 -91 10 -91 10l4 68s34 -2 54 -2c27 0 40 9 40 30c0 20 -13 26 -40 26h-30v83c-124 11 -175 98 -175 266s65 255 206 255c70 0 146 -16 146 -16l-4 -97s-73 8 -111 8c-90 0 -121 -44 -121 -150c0 -110 29 -163 122 -163
c38 0 111 7 111 7l3 -97s-65 -11 -128 -13v-31c79 -1 119 -15 119 -86z" />
    <glyph glyph-name="Scaron" unicode="&#x160;" horiz-adv-x="531" 
d="M485 681l-4 -100s-137 14 -195 14c-74 0 -118 -27 -118 -85c0 -59 35 -80 145 -116c140 -48 191 -79 191 -195c0 -145 -70 -210 -231 -210c-92 0 -211 22 -211 22l6 101s132 -15 195 -15c79 0 125 25 125 98c0 51 -37 70 -138 103c-147 49 -198 94 -198 211
c0 129 82 195 227 195c93 0 206 -23 206 -23zM467 931l-132 -144h-103l-133 144h131l54 -56l53 56h130z" />
    <glyph glyph-name="lslash" unicode="&#x142;" horiz-adv-x="259" 
d="M73 0v238l-45 -31l-56 78l101 69v352h114v-273l50 35l55 -77l-105 -73v-318h-114z" />
    <glyph glyph-name="Lslash" unicode="&#x141;" 
d="M35 207l-56 86l108 76v323h118v-241l134 94l57 -84l-191 -134v-214h275v-113h-393v244z" />
    <glyph glyph-name="eth" unicode="&#xf0;" 
d="M153 485l-47 66l56 43c-26 6 -55 11 -87 17l17 97c65 -8 124 -19 174 -35l97 74l47 -67l-57 -43c100 -56 153 -145 153 -288c0 -247 -71 -358 -247 -358c-149 0 -231 82 -231 239c0 126 86 205 215 205c71 0 140 -27 140 -27c-6 72 -36 120 -125 156zM250 335
c-63 0 -100 -49 -100 -105c0 -80 32 -133 109 -133c84 0 124 60 125 211c0 0 -62 27 -134 27z" />
    <glyph glyph-name="Eth" unicode="&#xd0;" horiz-adv-x="631" 
d="M18 288v113h64v291h227c217 0 274 -118 274 -334c0 -220 -51 -358 -274 -358h-227v288h-64zM462 358c0 140 -24 226 -153 226h-111v-183h134v-113h-134v-180h111c129 0 153 109 153 250z" />
    <glyph glyph-name="Yacute" unicode="&#xdd;" horiz-adv-x="565" 
d="M342 296v-296h-116v296l-208 396h131l134 -272l133 272h131zM165 864l244 93l39 -108l-248 -80z" />
    <glyph glyph-name="Thorn" unicode="&#xde;" horiz-adv-x="597" 
d="M322 220c79 0 116 50 116 132c0 77 -37 125 -116 125h-123v-257h123zM323 107h-124v-107h-117v692h117v-103h124c157 0 235 -84 235 -237c0 -157 -78 -245 -235 -245z" />
    <glyph glyph-name="thorn" unicode="&#xfe;" horiz-adv-x="546" 
d="M277 88c81 0 108 60 108 168c0 92 -29 152 -93 152c-44 0 -98 -16 -98 -16v-297s36 -7 83 -7zM306 511c131 0 195 -80 195 -255c0 -201 -72 -267 -222 -267c-41 0 -85 4 -85 4v-207h-114v920h114v-224s59 29 112 29z" />
    <glyph glyph-name="Zcaron" unicode="&#x17d;" horiz-adv-x="570" 
d="M65 582v110h440v-117l-295 -449v-16h295v-110h-440v117l295 448v17h-295zM469 930l-132 -144h-103l-133 144h131l54 -56l53 56h130z" />
    <glyph glyph-name="Ydieresis" unicode="&#x178;" horiz-adv-x="565" 
d="M342 296v-296h-116v296l-208 396h131l134 -272l133 272h131zM128 803v118h109v-118h-109zM345 803v118h109v-118h-109z" />
    <glyph glyph-name="oslash" unicode="&#xf8;" horiz-adv-x="529" 
d="M265 511c22 0 43 -2 62 -6l40 102l71 -27l-43 -103c65 -44 89 -126 89 -225c0 -151 -49 -263 -219 -263c-25 0 -47 2 -67 7l-43 -105l-70 26l45 107c-64 45 -85 127 -85 228c0 150 51 259 220 259zM265 88c87 0 103 68 103 164c0 47 -6 87 -21 115l-112 -276
c9 -2 19 -3 30 -3zM161 252c0 -49 4 -90 19 -118l109 274c-8 2 -16 3 -24 3c-83 0 -104 -62 -104 -159z" />
    <glyph glyph-name="ae.001" horiz-adv-x="828" 
d="M570 23c70 0 182 9 182 9l2 -32s-112 -9 -185 -9c-69 1 -114 21 -143 58l-38 -16s-93 -42 -206 -42c-82 0 -127 48 -127 146c0 95 40 128 138 144l190 20v52c0 87 -39 122 -111 122c-74 0 -188 -9 -188 -9l-2 33s110 10 190 10c78 0 123 -32 139 -96c36 71 98 96 172 96
c123 0 190 -67 190 -240v-33h-355c0 -138 36 -213 152 -213zM183 23c93 0 211 44 228 51c-22 43 -30 103 -30 176v18l-184 -18c-74 -7 -105 -41 -105 -113c0 -74 35 -114 91 -114zM418 268h318c0 153 -49 209 -153 209c-100 0 -165 -57 -165 -209z" />
    <glyph glyph-name="zero.pnum" 
d="M262 511c128 0 239 -51 239 -266c0 -194 -121 -256 -238 -256c-110 0 -238 60 -238 256c0 204 119 266 237 266zM264 403c-78 0 -113 -56 -113 -157c0 -99 35 -149 113 -149c79 0 111 50 111 148c0 102 -32 158 -111 158z" />
    <glyph glyph-name="one.pnum" 
d="M67 368l210 132h109v-500h-117v364l-148 -90z" />
    <glyph glyph-name="two.pnum" 
d="M478 0h-403v105l112 95c103 86 138 116 138 148c0 37 -18 51 -88 51c-66 0 -154 -15 -154 -16l-7 103s100 25 189 25c130 0 192 -40 192 -155c0 -71 -44 -110 -108 -158l-115 -88h244v-110z" />
    <glyph glyph-name="three.pnum" 
d="M95 486c0 0 106 24 185 24c137 0 206 -31 206 -139c0 -55 -45 -94 -80 -102c52 -14 92 -55 92 -114c0 -123 -75 -166 -206 -166c-91 0 -204 22 -204 22l11 100s112 -13 181 -13c64 0 101 14 101 55c0 39 -38 48 -92 49h-129v102h129c43 1 79 8 79 50c0 38 -31 46 -88 46
c-76 0 -174 -13 -174 -13z" />
    <glyph glyph-name="four.pnum" 
d="M301 -10v78h-269v89l160 342h127l-152 -327h134v136h117v-136h61v-104h-61v-78h-117z" />
    <glyph glyph-name="five.pnum" 
d="M95 499h374v-112h-275l-14 -88s55 23 105 23c123 0 205 -46 205 -159c0 -106 -82 -174 -213 -174c-92 0 -215 30 -215 30l13 95s126 -23 198 -23c54 0 99 20 99 66c0 48 -44 63 -101 63c-53 0 -107 -20 -107 -20l-89 19z" />
    <glyph glyph-name="six.pnum" 
d="M465 491l-10 -103s-87 15 -163 15c-89 0 -129 -27 -130 -116c0 1 57 30 124 30c135 0 202 -49 202 -160c0 -101 -77 -169 -217 -169c-148 0 -226 82 -226 246c0 199 95 277 247 277c74 0 173 -20 173 -20zM276 223c-62 -1 -114 -28 -114 -28c0 -66 38 -108 109 -108
c63 0 100 20 100 70s-38 66 -95 66z" />
    <glyph glyph-name="seven.pnum" 
d="M93 391v108h391v-144l-218 -377l-106 43l203 342v28h-270z" />
    <glyph glyph-name="eight.pnum" 
d="M261 511c143 0 226 -47 226 -134c0 -52 -19 -88 -79 -112c56 -23 89 -57 89 -125c0 -111 -95 -152 -236 -152c-140 0 -235 51 -235 151c0 69 35 101 89 126c-57 24 -79 52 -79 105c0 86 80 141 225 141zM261 96c69 0 110 18 110 58c0 26 -13 47 -59 55h-102
c-46 -8 -59 -32 -59 -57c0 -37 43 -56 110 -56zM261 411c-62 0 -99 -15 -99 -50c0 -22 9 -38 48 -52h102c40 13 50 29 50 51c0 35 -39 51 -101 51z" />
    <glyph glyph-name="nine.pnum" 
d="M66 9l10 100s81 -12 165 -12c89 0 131 29 131 118c0 0 -55 -39 -124 -39c-134 0 -200 55 -200 157c0 104 83 178 213 178c154 0 229 -79 229 -241c0 -200 -81 -282 -241 -282c-80 0 -183 21 -183 21zM258 278c61 1 115 21 115 21c-1 74 -35 113 -112 113
c-62 0 -95 -25 -95 -72c0 -45 31 -62 92 -62z" />
    <glyph glyph-name="brokenbar" unicode="&#xa6;" 
d="M205 751h117v-411h-117v411zM205 173h117v-423h-117v423z" />
    <glyph glyph-name="bar.001" 
d="M242 -59v759h35v-759h-35z" />
    <glyph glyph-name="cent.001" horiz-adv-x="437" 
d="M186 -86v127c-116 6 -174 48 -174 206c0 141 71 202 174 212v132h35v-130c39 -1 116 -11 116 -11l-2 -35s-75 9 -114 10v-348c39 0 116 8 116 8l2 -35s-79 -9 -118 -9v-127h-35zM52 247c0 -130 35 -164 134 -169v345c-88 -9 -134 -61 -134 -176z" />
    <glyph glyph-name="notequal.001" 
d="M61 340v34h247l72 163l35 -14l-66 -149h137v-34h-152l-66 -151h219v-34h-234l-72 -165l-35 14l66 151h-150v34h165l66 151h-232z" />
    <glyph glyph-name="plusminus" unicode="&#xb1;" 
d="M36 286v113h171v112h116v-112h171v-113h-171v-105h-116v105h-171zM36 141h458v-113h-458v113z" />
    <glyph glyph-name="pi" unicode="&#x3c0;" 
d="M319 154v245h-108l-27 -399h-115l27 399c-47 -3 -92 -13 -92 -13v101c57 11 150 13 150 13h216s95 0 144 16v-101s-26 -12 -80 -15v-246c0 -47 13 -63 75 -63v-99c-165 0 -190 38 -190 162z" />
    <glyph glyph-name="yen.001" horiz-adv-x="540" 
d="M47 331v34h171l-193 295h41l205 -309l202 309h42l-191 -295h168v-34h-190l-13 -20v-95h204v-34h-204v-182h-36v182h-205v34h205v95l-13 20h-193z" />
    <glyph glyph-name="mu.001" 
d="M90 -250v750h35v-258c0 -170 18 -219 129 -219c89 0 164 50 164 50v427h35v-500h-35v40s-78 -49 -164 -49c-66 0 -106 17 -129 51v-292h-35z" />
    <glyph glyph-name="florin.001" 
d="M289 352v-418c0 -134 -46 -179 -127 -179c-35 0 -92 3 -92 3l2 33s62 -3 90 -3c58 0 92 36 92 146v418h-69v32h69v111c0 124 46 178 127 178c35 0 93 -3 93 -3l-2 -32s-61 2 -91 2c-58 0 -92 -46 -92 -146v-110h162v-32h-162z" />
    <glyph glyph-name="comma.001" horiz-adv-x="170" 
d="M-6 -123l42 210h40l-51 -210h-31z" />
    <glyph glyph-name="period.001" horiz-adv-x="248" 
d="M98 0v80h40v-80h-40z" />
    <glyph glyph-name="quoteright.001" horiz-adv-x="170" 
d="M4 527l40 200h38l-48 -200h-30z" />
    <glyph glyph-name="bullet" unicode="&#x2022;" 
d="M144 102v282h242v-282h-242z" />
    <glyph glyph-name="paragraph.001" horiz-adv-x="833" 
d="M518 0v667h-172v-667h-36v350h-7c-103 0 -186 69 -186 174s83 176 186 176h348v-33h-97v-667h-36z" />
    <glyph glyph-name="ordfeminine" unicode="&#xaa;" 
d="M371 567v-110c1 -14 5 -25 25 -29l-4 -64c-25 1 -60 5 -76 20c0 0 -55 -20 -100 -20c-61 0 -95 35 -95 100c0 56 33 88 99 92l77 3v9c0 13 -4 33 -30 33c-34 0 -127 -6 -127 -6l-2 64s103 11 140 11c57 0 93 -40 93 -103zM297 502l-70 -3c-22 -1 -31 -12 -31 -36
c0 -25 11 -34 31 -34c26 0 70 10 70 10v63z" />
    <glyph glyph-name="ordmasculine" unicode="&#xba;" 
d="M257 669c84 0 137 -40 137 -150s-53 -155 -137 -155s-134 45 -134 155s50 150 134 150zM257 435c42 0 60 19 60 84c0 60 -20 80 -60 80s-57 -20 -57 -80c0 -65 17 -84 57 -84z" />
    <glyph glyph-name="braceright.001" horiz-adv-x="285" 
d="M135 454l7 116c0 90 -29 140 -143 145l2 32c128 -5 176 -58 176 -177c0 -39 -7 -98 -7 -123c0 -65 28 -97 104 -118v-32c-77 -19 -104 -55 -104 -120c0 -28 7 -91 7 -128c0 -119 -48 -172 -176 -177l-2 32c114 5 143 55 143 145c0 33 -7 90 -7 119c0 88 27 120 100 144
c-73 24 -100 58 -100 142z" />
    <glyph glyph-name="quoteleft.001" horiz-adv-x="170" 
d="M56 727l-40 -200h-38l48 200h30z" />
    <glyph glyph-name="guilsinglleft" unicode="&#x2039;" horiz-adv-x="541" 
d="M273 327l-114 -81l114 -92v-116l-212 164v84l212 157v-116z" />
    <glyph glyph-name="I" unicode="I" horiz-adv-x="268" 
d="M75 0v692h118v-692h-118z" />
    <glyph glyph-name="O" unicode="O" horiz-adv-x="646" 
d="M323 97c116 0 153 71 153 244c0 171 -38 254 -153 254s-153 -83 -153 -254s37 -244 153 -244zM323 -11c-202 0 -274 118 -274 352s72 362 274 362s274 -128 274 -362c0 -236 -72 -352 -274 -352z" />
    <glyph glyph-name="guillemotleft" unicode="&#xab;" horiz-adv-x="582" 
d="M273 327l-114 -81l114 -92v-116l-212 164v84l212 157v-116zM522 327l-114 -81l114 -92v-116l-212 164v84l212 157v-116z" />
    <glyph glyph-name="guillemotright" unicode="&#xbb;" horiz-adv-x="582" 
d="M424 254l-115 81v116l212 -157v-84l-212 -164v116zM174 254l-114 81v116l212 -157v-84l-212 -164v116z" />
    <glyph glyph-name="quotedblleft" unicode="&#x201c;" horiz-adv-x="444" 
d="M208 636l-48 -237h-117l56 237h109zM397 636l-48 -237h-117l56 237h109z" />
    <glyph glyph-name="asciitilde" unicode="~" 
d="M462 384l8 -107s-49 -53 -113 -53c-54 0 -141 46 -181 46c-46 0 -107 -42 -107 -42l-9 107s54 54 122 54c53 0 133 -46 180 -46c38 0 100 41 100 41z" />
    <glyph glyph-name="emdash" unicode="&#x2014;" horiz-adv-x="1000" 
d="M0 325h1000v-104h-1000v104z" />
    <glyph glyph-name="L" unicode="L" horiz-adv-x="494" 
d="M455 0h-373v692h116v-582h257v-110z" />
    <glyph glyph-name="B" unicode="B" horiz-adv-x="609" 
d="M82 692h250c118 0 210 -52 210 -174c0 -90 -25 -132 -80 -163c62 -25 95 -68 95 -160c0 -137 -92 -195 -218 -195h-257v692zM331 298h-133v-193h135c58 0 103 30 103 99c0 70 -58 94 -105 94zM326 587h-128v-188h131c57 0 92 37 92 99c0 59 -39 89 -95 89z" />
    <glyph glyph-name="D" unicode="D" horiz-adv-x="631" 
d="M309 0h-227v692h227c217 0 274 -118 274 -334c0 -220 -51 -358 -274 -358zM462 358c0 140 -24 226 -153 226h-111v-476h111c129 0 153 109 153 250z" />
    <glyph glyph-name="P" unicode="P" horiz-adv-x="597" 
d="M323 209h-124v-209h-117v692h241c149 0 235 -80 235 -235s-86 -248 -235 -248zM199 317h123c79 0 116 58 116 140c0 81 -37 127 -116 127h-123v-267z" />
    <glyph glyph-name="b" unicode="b" horiz-adv-x="544" 
d="M309 511c128 0 191 -90 191 -255c0 -186 -70 -267 -240 -267c-52 0 -180 12 -180 12v705h114v-221s62 26 115 26zM259 89c103 0 125 71 125 167s-30 152 -90 152c-52 0 -100 -16 -100 -16v-299s46 -4 65 -4z" />
    <glyph glyph-name="v" unicode="v" horiz-adv-x="483" 
d="M18 499h119l94 -405h22l96 405h116l-127 -499h-194z" />
    <glyph glyph-name="x" unicode="x" horiz-adv-x="465" 
d="M20 499h123l89 -168l90 168h122l-142 -250l142 -249h-122l-90 168l-89 -168h-122l141 249z" />
    <glyph glyph-name="six" unicode="6" 
d="M483 650l-11 -103s-98 15 -177 15c-93 0 -142 -57 -143 -178c0 -1 75 34 134 34c138 0 221 -63 221 -208c0 -147 -88 -221 -234 -221c-162 0 -243 121 -243 340c0 260 110 343 265 343c74 0 188 -22 188 -22zM276 315c-60 0 -125 -24 -125 -24c0 -104 33 -196 122 -196
c70 0 113 40 113 115c0 72 -43 105 -110 105z" />
    <glyph glyph-name="nine" unicode="9" 
d="M49 10l11 102s99 -16 177 -16c95 0 144 64 144 176c0 0 -82 -30 -136 -30c-132 0 -219 69 -219 210c0 143 100 220 232 220c159 0 244 -115 244 -340c0 -260 -108 -343 -265 -343c-74 0 -188 21 -188 21zM255 347c57 0 127 20 127 20c0 118 -39 198 -123 198
c-66 0 -112 -42 -112 -113s42 -105 108 -105z" />
    <glyph glyph-name="yen" unicode="&#xa5;" horiz-adv-x="540" 
d="M48 291v96h112l-159 273h131l139 -255l138 255h131l-157 -273h109v-96h-156l-5 -10v-45h161v-96h-161v-140h-118v140h-165v96h165v45l-5 10h-160z" />
    <glyph glyph-name="less" unicode="&#x3c;" 
d="M428 419l-231 -127l231 -132v-120l-343 190v120l343 189v-120z" />
    <glyph glyph-name="greater" unicode="&#x3e;" 
d="M328 292l-231 127v120l343 -189v-120l-343 -190v120z" />
    <glyph glyph-name="bracketleft" unicode="[" horiz-adv-x="300" 
d="M271 749v-112h-121v-648h121v-112h-238l-1 872h239z" />
    <glyph glyph-name="backslash" unicode="\" horiz-adv-x="528" 
d="M471 3l-118 -3l-307 699l119 3z" />
    <glyph glyph-name="bracketright" unicode="]" horiz-adv-x="300" 
d="M28 637v112h239l-1 -872h-238v112h121v648h-121z" />
    <glyph glyph-name="bar" unicode="|" 
d="M201 -250v1000h118v-1000h-118z" />
    <glyph glyph-name="notequal" unicode="&#x2260;" 
d="M55 317v112h223l65 147l89 -37l-49 -110h96v-112h-144l-41 -92h185v-111h-234l-65 -147l-88 37l48 110h-85v111h133l41 92h-174z" />
    <glyph glyph-name="AE" unicode="&#xc6;" horiz-adv-x="817" 
d="M342 0v138h-173l-34 -138h-118l165 692h582v-109h-307v-188h247v-103h-247v-183h307v-109h-422zM273 584l-80 -337h149v337h-69z" />
    <glyph glyph-name="mu" unicode="&#xb5;" 
d="M63 -222v721h114v-273c0 -90 13 -137 82 -137c42 0 100 24 100 24v386h114v-499h-114v25s-71 -36 -115 -36c-50 0 -67 30 -67 30v-241h-114z" />
    <glyph glyph-name="mu" unicode="&#x3bc;" 
d="M63 -222v721h114v-273c0 -90 13 -137 82 -137c42 0 100 24 100 24v386h114v-499h-114v25s-71 -36 -115 -36c-50 0 -67 30 -67 30v-241h-114z" />
    <glyph glyph-name="ae" unicode="&#xe6;" horiz-adv-x="828" 
d="M566 89c72 0 180 9 180 9l2 -85s-95 -24 -191 -24c-68 0 -122 16 -156 50l-26 -12c-27 -12 -82 -38 -163 -38c-87 0 -151 60 -151 160c0 108 65 144 168 153l115 9v32c0 40 -21 63 -58 63c-74 0 -193 -13 -193 -13l-4 98s125 20 199 20c60 0 106 -16 133 -52
c33 35 81 52 139 52c139 0 205 -84 205 -228l-8 -81h-298c1 -70 29 -113 107 -113zM230 85c52 0 116 20 119 22c-4 34 -6 77 -6 118l-105 -7c-39 -2 -62 -26 -62 -66c0 -43 25 -67 54 -67zM458 289h194c0 83 -24 126 -95 126c-72 0 -98 -46 -99 -126z" />
    <glyph glyph-name="florin" unicode="&#x192;" 
d="M315 -66c0 -140 -67 -179 -173 -179c-35 0 -78 11 -78 11v89s50 -3 78 -3c34 0 59 20 59 82v439h-99v103h99v33c0 148 37 194 142 194c39 0 99 -6 129 -12l-1 -93s-67 2 -99 2c-42 0 -57 -24 -57 -84v-40h150v-103h-150v-439z" />
    <glyph glyph-name="OE" unicode="&#x152;" horiz-adv-x="897" 
d="M844 0h-420c-40 -6 -89 -11 -126 -11c-194 0 -261 126 -261 356c0 246 82 358 261 358c37 0 86 -5 125 -11h421v-109h-305v-188h245v-103h-245v-183h305v-109zM314 99c22 0 72 3 109 6v481c-37 3 -87 7 -112 7c-109 0 -153 -69 -153 -248c0 -170 33 -246 156 -246z" />
    <glyph glyph-name="oe" unicode="&#x153;" horiz-adv-x="876" 
d="M614 89c72 0 180 9 180 9l2 -85s-95 -24 -191 -24c-73 0 -126 20 -159 60c-33 -39 -81 -60 -159 -60c-172 0 -221 108 -221 263c0 152 53 259 221 259c79 0 129 -23 164 -68c36 47 85 68 154 68c142 0 208 -84 208 -228l-8 -81h-298c1 -70 29 -113 107 -113zM287 88
c89 0 104 66 104 164c0 105 -22 159 -104 159c-84 0 -104 -60 -104 -159c0 -100 16 -164 104 -164zM506 289h194c0 87 -20 120 -91 120c-72 0 -102 -40 -103 -120z" />
    <glyph glyph-name="daggerdbl" unicode="&#x2021;" 
d="M209 -73v178h-154v112h154v168h-154v112h154v178h112v-178h153v-112h-153v-168h154v-112h-154v-178h-112z" />
    <glyph glyph-name="four" unicode="4" 
d="M313 -8v120h-287v94l177 454h128l-171 -439h153v186h118v-186h67v-109h-67v-120h-118z" />
    <glyph glyph-name="quotedbl" unicode="&#x22;" horiz-adv-x="340" 
d="M315 446h-105l-2 246h111zM143 446h-105l-2 246h111z" />
    <glyph glyph-name="quotesingle" unicode="'" horiz-adv-x="109" 
d="M1 450l-2 242h111l-5 -242h-104z" />
    <glyph glyph-name="parenleft" unicode="(" horiz-adv-x="260" 
d="M112 750h124s-95 -260 -95 -449c0 -186 95 -426 95 -426h-124s-97 226 -97 426s97 449 97 449z" />
    <glyph glyph-name="parenright" unicode=")" horiz-adv-x="260" 
d="M132 -120h-124s95 260 95 449c0 186 -95 426 -95 426h124s97 -226 97 -426s-97 -449 -97 -449z" />
    <glyph glyph-name="comma" unicode="," horiz-adv-x="170" 
d="M5 -123l50 250h123l-59 -250h-114z" />
    <glyph glyph-name="hyphen" unicode="-" horiz-adv-x="440" 
d="M70 216v108h300v-108h-300z" />
    <glyph glyph-name="period" unicode="." horiz-adv-x="248" 
d="M56 0v149h123v-149h-123z" />
    <glyph glyph-name="slash" unicode="/" 
d="M67 18l281 698l109 -38l-281 -697z" />
    <glyph glyph-name="colon" unicode=":" horiz-adv-x="212" 
d="M43 300v149h124v-149h-124zM43 0v149h124v-149h-124z" />
    <glyph glyph-name="semicolon" unicode=";" horiz-adv-x="227" 
d="M11 -115l57 258h124l-75 -258h-106zM60 300v149h123v-149h-123z" />
    <glyph glyph-name="equal" unicode="=" 
d="M53 317v111h423v-111h-423zM53 113v111h423v-111h-423z" />
    <glyph glyph-name="question" unicode="?" horiz-adv-x="386" 
d="M394 523c0 -140 -163 -209 -163 -279v-38h-116s-7 41 -7 57c0 102 161 175 161 246c0 58 -15 84 -98 84c-50 0 -149 -18 -149 -18l-13 103s113 35 175 35c143 0 210 -49 210 -190zM108 0v141h123v-141h-123z" />
    <glyph glyph-name="underscore" unicode="_" 
d="M27 -85h476v-104h-476v104z" />
    <glyph glyph-name="braceleft" unicode="{" horiz-adv-x="328" 
d="M238 171c0 -31 -7 -82 -7 -116c0 -50 14 -70 86 -75l-1 -112c-144 5 -208 54 -208 173c0 39 7 96 7 121c0 49 -20 81 -96 102v96c77 19 96 47 96 96c0 28 -7 91 -7 128c0 127 64 170 208 175l1 -112c-72 -5 -86 -21 -86 -71c0 -33 7 -98 7 -127c0 -81 -27 -112 -100 -136
c73 -24 100 -61 100 -142z" />
    <glyph glyph-name="braceright" unicode="}" horiz-adv-x="328" 
d="M88 452c0 31 7 82 7 116c0 50 -14 70 -86 75l1 112c144 -5 208 -54 208 -173c0 -39 -7 -96 -7 -121c0 -49 20 -81 96 -102v-96c-77 -19 -96 -47 -96 -96c0 -28 7 -91 7 -128c0 -127 -64 -170 -208 -175l-1 112c72 5 86 21 86 71c0 33 -7 98 -7 127c0 81 27 112 100 136
c-73 24 -100 61 -100 142z" />
    <glyph glyph-name="cent" unicode="&#xa2;" horiz-adv-x="437" 
d="M202 -77v108c-116 8 -181 68 -181 218c0 146 69 211 181 219v107h96v-111c42 -4 85 -10 85 -10l-3 -99s-84 4 -122 4c-89 0 -120 -24 -120 -110s30 -109 123 -109c38 0 119 5 119 5l4 -99s-45 -6 -85 -11v-112h-97z" />
    <glyph glyph-name="quoteleft" unicode="&#x2018;" horiz-adv-x="213" 
d="M188 745l-48 -237h-117l56 237h109z" />
    <glyph glyph-name="quoteright" unicode="&#x2019;" horiz-adv-x="213" 
d="M25 508l48 237h117l-56 -237h-109z" />
    <glyph glyph-name="divide" unicode="&#xf7;" 
d="M207 401v122h113v-122h-113zM45 224v114h436v-114h-436zM207 39v122h113v-122h-113z" />
    <glyph glyph-name="Euro" unicode="&#x20ac;" horiz-adv-x="580" 
d="M55 453h61c19 156 85 220 244 220c87 0 178 -19 178 -19l-7 -97s-96 10 -155 10c-96 0 -129 -37 -137 -115h229v-89h-237c0 -4 -1 -23 -1 -34c0 -14 1 -35 1 -38h237v-90h-228c7 -71 41 -106 139 -106c54 0 154 8 154 8l4 -97s-98 -17 -177 -17c-161 0 -226 66 -244 212
h-61v90h55c0 3 -2 24 -2 38c0 11 2 30 2 34h-55v90z" />
    <glyph glyph-name="Oslash" unicode="&#xd8;" horiz-adv-x="656" 
d="M323 -11c-44 0 -81 6 -113 16l-58 -125l-70 35l60 128c-66 56 -93 156 -93 298c0 234 72 362 274 362c45 0 85 -7 118 -20l56 120l73 -27l-63 -134c64 -60 90 -162 90 -301c0 -236 -72 -352 -274 -352zM170 341c0 -79 8 -138 28 -177l195 416c-20 10 -43 15 -70 15
c-115 0 -153 -83 -153 -254zM323 97c116 0 153 71 153 244c0 76 -7 136 -26 177l-192 -411c18 -7 40 -10 65 -10z" />
    <glyph glyph-name="ampersand" unicode="&#x26;" horiz-adv-x="700" 
d="M323 707c120 0 194 -56 194 -166c0 -92 -45 -142 -144 -198l107 -108c8 25 23 93 27 125l111 -2c-10 -62 -34 -146 -51 -192l108 -102l-68 -77l-108 95c-63 -62 -126 -93 -225 -93c-155 0 -237 70 -237 211c0 101 61 157 152 195c-40 51 -59 84 -59 147
c0 101 84 165 193 165zM278 88c60 0 109 21 144 58l-174 182c-56 -25 -93 -66 -93 -119c0 -71 41 -121 123 -121zM245 534c0 -44 15 -74 46 -106l21 -20c64 38 89 67 89 121c0 48 -26 77 -78 77c-47 0 -78 -27 -78 -72z" />
    <glyph glyph-name="asterisk" unicode="*" 
d="M442 487h-122l39 -116l-79 -24l-40 117l-100 -76l-49 64l102 75l-100 72l49 68l97 -69l41 115l80 -27l-39 -115h121v-84z" />
    <glyph glyph-name="sterling" unicode="&#xa3;" 
d="M465 658l-6 -98s-102 9 -127 9c-51 0 -70 -20 -70 -92v-39h193v-104h-194v-228h129l72 16l18 -104l-81 -17c-103 0 -242 -1 -345 -1v106h96v228h-81v104h81v41c0 151 60 201 153 201c54 0 162 -22 162 -22z" />
    <glyph glyph-name="paragraph" unicode="&#xb6;" 
d="M379 0v611h-80v-611h-98v315h-7c-111 0 -186 78 -186 191s77 194 188 194h330v-89h-48v-611h-99z" />
    <glyph glyph-name="dagger.001" 
d="M59 385v112h145v178h112v-178h146v-112h-146v-458h-112v458h-145z" />
    <glyph glyph-name="percent" unicode="%" 
d="M128 631c-24 0 -31 -22 -31 -72c0 -51 7 -75 31 -75s31 24 31 74c0 51 -7 73 -31 73zM116 6l225 710l76 -25l-226 -710zM11 559c0 96 43 142 117 142s116 -46 116 -143c0 -96 -43 -144 -116 -144c-74 0 -117 48 -117 145zM293 145c0 96 43 142 117 142
c73 0 116 -46 116 -143c0 -96 -43 -144 -116 -144c-74 0 -117 48 -117 145zM378 145c0 -51 7 -75 32 -75c24 0 31 24 31 74c0 51 -7 73 -31 73c-25 0 -32 -22 -32 -72z" />
    <glyph glyph-name="plus" unicode="+" 
d="M40 225v112h168v173h117v-173h170v-112h-170v-173h-117v173h-168z" />
    <glyph glyph-name="asciicircum.001" 
d="M388 313l-121 234l-122 -234h-120l181 347h120l183 -347h-121z" />
    <glyph glyph-name="germandbls" unicode="&#xdf;" horiz-adv-x="620" 
d="M188 0h-114v530c0 137 72 186 219 186c153 0 218 -41 218 -151c0 -76 -25 -96 -89 -127c-48 -23 -60 -36 -60 -57c0 -17 8 -26 92 -63c90 -40 118 -69 118 -149c0 -139 -57 -178 -204 -178c-30 0 -132 18 -132 18l4 92s103 -4 120 -4c75 0 94 15 94 64
c0 30 -16 48 -89 76c-95 37 -121 68 -121 140c0 62 25 87 78 113c57 28 71 40 71 67c0 43 -32 55 -100 55c-64 0 -105 -19 -105 -87v-525z" />
    <glyph glyph-name="quotedblright" unicode="&#x201d;" horiz-adv-x="432" 
d="M42 508l48 237h117l-56 -237h-109zM231 508l48 237h117l-56 -237h-109z" />
    <glyph glyph-name="questiondown" unicode="&#xbf;" horiz-adv-x="386" 
d="M8 -24c0 140 163 209 163 279v38h116s7 -41 7 -57c0 -102 -161 -175 -161 -246c0 -58 15 -84 98 -84c50 0 149 18 149 18l13 -103s-113 -35 -175 -35c-143 0 -210 49 -210 190zM294 499v-141h-123v141h123z" />
    <glyph glyph-name="exclamdown" unicode="&#xa1;" horiz-adv-x="476" 
d="M306 499v-149h-123v149h123zM303 248l4 -449h-125l4 449h117z" />
    <glyph glyph-name="ecaron" unicode="&#x11b;" horiz-adv-x="507" 
d="M267 89c71 0 179 9 179 9l2 -85s-94 -24 -190 -24c-155 0 -213 89 -213 255c0 168 73 267 212 267c140 0 208 -84 208 -228l-8 -81h-297c1 -66 29 -113 107 -113zM159 289h193c0 83 -26 126 -95 126s-97 -46 -98 -126zM206 584l-128 164h124l52 -68l52 68h123l-128 -164
h-95z" />
    <glyph glyph-name="ccaron" unicode="&#x10d;" horiz-adv-x="436" 
d="M252 511c70 0 146 -16 146 -16l-4 -97s-73 8 -111 8c-90 0 -121 -44 -121 -150c0 -110 29 -163 122 -163c38 0 111 7 111 7l3 -97s-80 -14 -149 -14c-144 0 -203 87 -203 267c0 168 65 255 206 255zM175 584l-128 164h124l52 -68l52 68h123l-128 -164h-95z" />
    <glyph glyph-name="ccircumflex" unicode="&#x109;" horiz-adv-x="436" 
d="M252 511c70 0 146 -16 146 -16l-4 -97s-73 8 -111 8c-90 0 -121 -44 -121 -150c0 -110 29 -163 122 -163c38 0 111 7 111 7l3 -97s-80 -14 -149 -14c-144 0 -203 87 -203 267c0 168 65 255 206 255zM47 584l129 164h92l130 -164h-123l-52 69l-53 -69h-123z" />
    <glyph glyph-name="cacute" unicode="&#x107;" horiz-adv-x="436" 
d="M252 511c70 0 146 -16 146 -16l-4 -97s-73 8 -111 8c-90 0 -121 -44 -121 -150c0 -110 29 -163 122 -163c38 0 111 7 111 7l3 -97s-80 -14 -149 -14c-144 0 -203 87 -203 267c0 168 65 255 206 255zM81 674l244 93l39 -108l-248 -80z" />
    <glyph glyph-name="gcircumflex" unicode="&#x11d;" horiz-adv-x="531" 
d="M271 -240c-135 0 -227 38 -227 151c0 49 25 86 74 123c-21 14 -34 41 -34 72c0 23 38 82 38 82c-37 24 -72 66 -72 147c0 121 92 175 197 175c38 0 95 -13 95 -13l153 3v-91h-73c12 -16 23 -40 23 -74c0 -127 -76 -174 -200 -174c-10 0 -29 2 -39 4c0 0 -12 -32 -12 -45
c0 -30 7 -37 99 -37c146 0 206 -35 206 -148c0 -124 -105 -175 -228 -175zM284 -14c-31 0 -91 6 -91 6c-23 -21 -36 -40 -36 -69c0 -43 46 -63 115 -63c71 0 112 23 112 69c0 48 -33 57 -100 57zM245 253c54 0 87 25 87 82c0 54 -28 81 -86 81c-55 0 -82 -29 -82 -81
s27 -82 81 -82zM90 584l129 164h92l130 -164h-123l-52 69l-53 -69h-123z" />
    <glyph glyph-name="hcircumflex" unicode="&#x125;" horiz-adv-x="562" 
d="M192 0h-114v706h93l63 80h92l130 -164h-123l-52 69l-53 -69h-36v-139s75 28 128 28c131 0 170 -92 170 -249v-262h-115v262c0 84 -11 145 -77 145c-43 0 -106 -20 -106 -20v-387z" />
    <glyph glyph-name="itilde" unicode="&#x129;" horiz-adv-x="267" 
d="M76 0v499h114v-499h-114zM279 740l25 -87s-51 -59 -100 -59c-50 0 -116 46 -149 46c-27 0 -78 -41 -78 -41l-25 86s53 60 102 60c57 0 118 -45 147 -45c24 0 78 40 78 40z" />
    <glyph glyph-name="lacute" unicode="&#x13a;" horiz-adv-x="259" 
d="M-11 714l244 93l39 -108l-85 -28v-671h-114v635l-49 -16z" />
    <glyph glyph-name="nacute" unicode="&#x144;" horiz-adv-x="563" 
d="M194 0h-114v499h114v-25s73 37 128 37c131 0 170 -92 170 -250v-261h-114v260c0 85 -12 147 -78 147c-44 0 -106 -25 -106 -25v-382zM142 674l244 93l39 -108l-248 -80z" />
    <glyph glyph-name="ncaron" unicode="&#x148;" horiz-adv-x="563" 
d="M194 0h-114v499h114v-25s73 37 128 37c131 0 170 -92 170 -250v-261h-114v260c0 85 -12 147 -78 147c-44 0 -106 -25 -106 -25v-382zM234 584l-128 164h124l52 -68l52 68h123l-128 -164h-95z" />
    <glyph glyph-name="scircumflex" unicode="&#x15d;" horiz-adv-x="494" 
d="M424 488l-2 -93s-123 16 -175 16c-51 0 -78 -18 -78 -55c0 -30 20 -39 99 -53c124 -23 171 -55 171 -154c0 -117 -80 -160 -194 -160c-71 0 -185 23 -185 23l4 93s119 -16 170 -16c66 0 91 17 91 57c0 31 -15 40 -91 55c-112 23 -179 49 -179 152c0 114 92 158 184 158
c73 0 185 -23 185 -23zM71 584l129 164h92l130 -164h-123l-52 69l-53 -69h-123z" />
    <glyph glyph-name="sacute" unicode="&#x15b;" horiz-adv-x="494" 
d="M424 488l-2 -93s-123 16 -175 16c-51 0 -78 -18 -78 -55c0 -30 20 -39 99 -53c124 -23 171 -55 171 -154c0 -117 -80 -160 -194 -160c-71 0 -185 23 -185 23l4 93s119 -16 170 -16c66 0 91 17 91 57c0 31 -15 40 -91 55c-112 23 -179 49 -179 152c0 114 92 158 184 158
c73 0 185 -23 185 -23zM106 674l244 93l39 -108l-248 -80z" />
    <glyph glyph-name="racute" unicode="&#x155;" horiz-adv-x="359" 
d="M74 0v499h114v-53s62 48 145 65v-122c-91 -18 -145 -48 -145 -48v-341h-114zM42 674l244 93l39 -108l-248 -80z" />
    <glyph glyph-name="utilde" unicode="&#x169;" horiz-adv-x="560" 
d="M368 499h114v-499h-114v25s-74 -36 -126 -36c-128 0 -169 76 -169 249v261h114v-260c0 -104 14 -150 78 -150c42 0 103 26 103 26v384zM425 740l25 -87s-51 -59 -100 -59c-50 0 -116 46 -149 46c-27 0 -78 -41 -78 -41l-25 86s53 60 102 60c57 0 118 -45 147 -45
c24 0 78 40 78 40z" />
    <glyph glyph-name="rcaron" unicode="&#x159;" horiz-adv-x="359" 
d="M74 0v499h114v-53s62 48 145 65v-122c-91 -18 -145 -48 -145 -48v-341h-114zM136 584l-128 164h124l52 -68l52 68h123l-128 -164h-95z" />
    <glyph glyph-name="ycircumflex" unicode="&#x177;" horiz-adv-x="484" 
d="M18 499h113l101 -389h19l102 389h113l-185 -712h-113l55 214h-76zM66 584l129 164h92l130 -164h-123l-52 69l-53 -69h-123z" />
    <glyph glyph-name="ygrave" unicode="&#x1ef3;" horiz-adv-x="484" 
d="M18 499h113l101 -389h19l102 389h113l-185 -712h-113l55 214h-76zM139 766l244 -92l-33 -90l-247 81z" />
    <glyph glyph-name="wdieresis" unicode="&#x1e85;" horiz-adv-x="752" 
d="M18 499h113l73 -396h24l88 387h120l88 -387h24l73 396h113l-101 -499h-187l-71 334l-71 -334h-185zM216 612v118h109v-118h-109zM427 612v118h109v-118h-109z" />
    <glyph glyph-name="wcircumflex" unicode="&#x175;" horiz-adv-x="752" 
d="M18 499h113l73 -396h24l88 387h120l88 -387h24l73 396h113l-101 -499h-187l-71 334l-71 -334h-185zM201 584l129 164h92l130 -164h-123l-52 69l-53 -69h-123z" />
    <glyph glyph-name="wacute" unicode="&#x1e83;" horiz-adv-x="752" 
d="M18 499h113l73 -396h24l88 387h120l88 -387h24l73 396h113l-101 -499h-187l-71 334l-71 -334h-185zM234 674l244 93l39 -108l-248 -80z" />
    <glyph glyph-name="wgrave" unicode="&#x1e81;" horiz-adv-x="752" 
d="M18 499h113l73 -396h24l88 387h120l88 -387h24l73 396h113l-101 -499h-187l-71 334l-71 -334h-185zM273 766l244 -92l-33 -90l-247 81z" />
    <glyph glyph-name="guilsinglright" unicode="&#x203a;" horiz-adv-x="541" 
d="M174 254l-114 81v116l212 -157v-84l-212 -164v116z" />
    <glyph glyph-name="quotedblbase" unicode="&#x201e;" horiz-adv-x="432" 
d="M42 -86l48 237h117l-56 -237h-109zM231 -86l48 237h117l-56 -237h-109z" />
    <glyph glyph-name="quotesinglbase" unicode="&#x201a;" horiz-adv-x="213" 
d="M25 -86l48 237h117l-56 -237h-109z" />
    <glyph glyph-name="asciicircum" unicode="^" 
d="M384 317l-119 230l-120 -230h-120l179 343h120l181 -343h-121z" />
    <glyph glyph-name="approxequal" unicode="&#x2248;" 
d="M462 462l8 -107s-49 -53 -113 -53c-54 0 -141 46 -181 46c-46 0 -107 -42 -107 -42l-9 107s54 54 122 54c53 0 133 -46 180 -46c38 0 100 41 100 41zM462 252l8 -107s-49 -53 -113 -53c-54 0 -141 46 -181 46c-46 0 -107 -42 -107 -42l-9 107s54 54 122 54
c53 0 133 -46 180 -46c38 0 100 41 100 41z" />
    <glyph glyph-name="periodcentered" unicode="&#xb7;" horiz-adv-x="248" 
d="M56 220v149h123v-149h-123z" />
    <glyph glyph-name="zacute" unicode="&#x17a;" horiz-adv-x="478" 
d="M58 398v102h361l1 -102l-228 -296h228v-102h-361l-1 102l228 296h-228zM100 674l244 93l39 -108l-248 -80z" />
    <glyph glyph-name="uring" unicode="&#x16f;" horiz-adv-x="560" 
d="M368 499h114v-499h-114v25s-74 -36 -126 -36c-128 0 -169 76 -169 249v261h114v-260c0 -104 14 -150 78 -150c42 0 103 26 103 26v384zM168 640c0 63 49 113 113 113c63 0 113 -50 113 -113c0 -64 -50 -112 -113 -112c-64 0 -113 48 -113 112zM245 640
c0 -21 16 -37 37 -37c20 0 36 16 36 37s-16 37 -36 37c-21 0 -37 -16 -37 -37z" />
    <glyph glyph-name="aeacute" unicode="&#x1fd;" horiz-adv-x="828" 
d="M566 89c72 0 180 9 180 9l2 -85s-95 -24 -191 -24c-68 0 -122 16 -156 50l-26 -12c-27 -12 -82 -38 -163 -38c-87 0 -151 60 -151 160c0 108 65 144 168 153l115 9v32c0 40 -21 63 -58 63c-74 0 -193 -13 -193 -13l-4 98s125 20 199 20c60 0 106 -16 133 -52
c33 35 81 52 139 52c139 0 205 -84 205 -228l-8 -81h-298c1 -70 29 -113 107 -113zM230 85c52 0 116 20 119 22c-4 34 -6 77 -6 118l-105 -7c-39 -2 -62 -26 -62 -66c0 -43 25 -67 54 -67zM458 289h194c0 83 -24 126 -95 126c-72 0 -98 -46 -99 -126zM282 674l244 93
l39 -108l-248 -80z" />
    <glyph glyph-name="oslashacute" unicode="&#x1ff;" horiz-adv-x="529" 
d="M265 511c22 0 43 -2 62 -6l40 102l71 -27l-43 -103c65 -44 89 -126 89 -225c0 -151 -49 -263 -219 -263c-25 0 -47 2 -67 7l-43 -105l-70 26l45 107c-64 45 -85 127 -85 228c0 150 51 259 220 259zM123 674l244 93l39 -108l-248 -80zM265 88c87 0 103 68 103 164
c0 47 -6 87 -21 115l-112 -276c9 -2 19 -3 30 -3zM161 252c0 -49 4 -90 19 -118l109 274c-8 2 -16 3 -24 3c-83 0 -104 -62 -104 -159z" />
    <glyph glyph-name="grave.cap" horiz-adv-x="532" 
d="M140 948l244 -92l-35 -96l-248 81z" />
    <glyph glyph-name="acute.cap" horiz-adv-x="548" 
d="M101 864l244 93l39 -108l-248 -80z" />
    <glyph glyph-name="circumflex.cap" horiz-adv-x="478" 
d="M34 790l132 144h104l132 -144h-129l-54 53l-53 -53h-132z" />
    <glyph glyph-name="caron.cap" horiz-adv-x="478" 
d="M402 931l-132 -144h-103l-133 144h131l54 -56l53 56h130z" />
    <glyph glyph-name="tilde.cap" horiz-adv-x="472" 
d="M394 935l25 -87s-53 -62 -102 -62c-50 0 -134 48 -167 48c-27 0 -80 -43 -80 -43l-25 87s54 62 103 62c58 0 137 -47 166 -47c24 0 80 42 80 42z" />
    <glyph glyph-name="dieresis.cap" horiz-adv-x="424" 
d="M73 803v118h109v-118h-109zM290 803v118h109v-118h-109z" />
    <glyph glyph-name="macron.cap" horiz-adv-x="478" 
d="M66 808v99h335v-99h-335z" />
    <glyph glyph-name="breve" unicode="&#x2d8;" horiz-adv-x="478" 
d="M39 743h118c4 -35 26 -54 64 -54c41 0 62 19 65 54h118c-8 -91 -67 -156 -183 -156c-115 0 -174 65 -182 156z" />
    <glyph glyph-name="breve.cap" horiz-adv-x="478" 
d="M45 929h118c4 -30 26 -49 58 -49c35 0 56 19 59 49h119c-8 -83 -66 -145 -178 -145c-111 0 -168 62 -176 145z" />
    <glyph glyph-name="ring.cap" horiz-adv-x="348" 
d="M299 741c0 -76 -63 -119 -139 -119c-78 0 -140 43 -140 119c0 77 62 119 140 119c76 0 139 -42 139 -119zM109 741c0 -24 19 -39 51 -39c31 0 50 15 50 39s-19 39 -50 39c-32 0 -51 -15 -51 -39z" />
    <glyph glyph-name="hungarumlaut" unicode="&#x2dd;" horiz-adv-x="717" 
d="M334 627l126 173l91 -59l-133 -172zM134 627l126 172l91 -58l-133 -172z" />
    <glyph glyph-name="hungarumlaut.cap" horiz-adv-x="717" 
d="M350 786l92 175l103 -42l-100 -170zM137 787l92 175l104 -42l-101 -170z" />
    <glyph glyph-name="dotaccent" unicode="&#x2d9;" horiz-adv-x="257" 
d="M72 574v119h114v-119h-114z" />
    <glyph glyph-name="AEacute" unicode="&#x1fc;" horiz-adv-x="817" 
d="M342 0v138h-173l-34 -138h-118l165 692h582v-109h-307v-188h247v-103h-247v-183h307v-109h-422zM273 584l-80 -337h149v337h-69zM267 864l244 93l39 -108l-248 -80z" />
    <glyph glyph-name="Cacute" unicode="&#x106;" horiz-adv-x="531" 
d="M489 114l3 -105s-120 -20 -191 -20c-201 0 -252 122 -252 356c0 250 64 358 252 358c79 0 192 -23 192 -23l-4 -103s-120 14 -172 14c-113 0 -147 -63 -147 -246c0 -174 27 -244 151 -244c46 0 168 13 168 13zM152 864l244 93l39 -108l-248 -80z" />
    <glyph glyph-name="Racute" unicode="&#x154;" horiz-adv-x="616" 
d="M342 241l-22 -1h-122v-240h-116v692h249c151 0 234 -67 234 -223c0 -102 -37 -164 -108 -200l108 -269h-129zM445 467c0 74 -45 117 -114 117h-133v-239h135c73 0 112 53 112 122zM166 864l244 93l39 -108l-248 -80z" />
    <glyph glyph-name="Ecaron" unicode="&#x11a;" horiz-adv-x="557" 
d="M82 0v692h422v-108h-306v-188h246v-105h-246v-183h306v-108h-422zM503 945l-132 -144h-103l-133 144h131l54 -56l53 56h130z" />
    <glyph glyph-name="Dcaron" unicode="&#x10e;" horiz-adv-x="631" 
d="M309 0h-227v692h227c217 0 274 -118 274 -334c0 -220 -51 -358 -274 -358zM462 358c0 140 -24 226 -153 226h-111v-476h111c129 0 153 109 153 250zM485 931l-132 -144h-103l-133 144h131l54 -56l53 56h130z" />
    <glyph glyph-name="Ccaron" unicode="&#x10c;" horiz-adv-x="531" 
d="M489 114l3 -105s-120 -20 -191 -20c-201 0 -252 122 -252 356c0 250 64 358 252 358c79 0 192 -23 192 -23l-4 -103s-120 14 -172 14c-113 0 -147 -63 -147 -246c0 -174 27 -244 151 -244c46 0 168 13 168 13zM485 931l-132 -144h-103l-133 144h131l54 -56l53 56h130z
" />
    <glyph glyph-name="Ebreve" unicode="&#x114;" horiz-adv-x="557" 
d="M82 0v692h422v-108h-306v-188h246v-105h-246v-183h306v-108h-422zM124 929h118c4 -30 26 -49 58 -49c35 0 56 19 59 49h119c-8 -83 -66 -145 -178 -145c-111 0 -168 62 -176 145z" />
    <glyph glyph-name="Emacron" unicode="&#x112;" horiz-adv-x="557" 
d="M82 0v692h422v-108h-306v-188h246v-105h-246v-183h306v-108h-422zM112 808v99h335v-99h-335z" />
    <glyph glyph-name="Scedilla" unicode="&#x15e;" horiz-adv-x="531" 
d="M419 -127c0 -65 -41 -98 -105 -98c-43 0 -91 10 -91 10l4 68s34 -2 54 -2c27 0 40 9 40 30c0 20 -13 26 -40 26h-30v83c-88 3 -189 21 -189 21l6 101s132 -15 195 -15c79 0 125 25 125 98c0 51 -37 70 -138 103c-147 49 -198 94 -198 211c0 129 82 195 227 195
c93 0 206 -23 206 -23l-4 -100s-137 14 -195 14c-74 0 -118 -27 -118 -85c0 -59 35 -80 145 -116c140 -48 191 -79 191 -195c0 -137 -62 -202 -204 -209v-31c79 -1 119 -15 119 -86z" />
    <glyph glyph-name="Ycircumflex" unicode="&#x176;" horiz-adv-x="565" 
d="M342 296v-296h-116v296l-208 396h131l134 -272l133 272h131zM98 789l132 144h104l132 -144h-129l-54 53l-53 -53h-132z" />
    <glyph glyph-name="Scircumflex" unicode="&#x15c;" horiz-adv-x="531" 
d="M485 681l-4 -100s-137 14 -195 14c-74 0 -118 -27 -118 -85c0 -59 35 -80 145 -116c140 -48 191 -79 191 -195c0 -145 -70 -210 -231 -210c-92 0 -211 22 -211 22l6 101s132 -15 195 -15c79 0 125 25 125 98c0 51 -37 70 -138 103c-147 49 -198 94 -198 211
c0 129 82 195 227 195c93 0 206 -23 206 -23zM90 789l132 144h104l132 -144h-129l-54 53l-53 -53h-132z" />
    <glyph glyph-name="Lacute" unicode="&#x139;" horiz-adv-x="494" 
d="M455 0h-373v692h116v-582h257v-110zM109 864l244 93l39 -108l-248 -80z" />
    <glyph glyph-name="Nacute" unicode="&#x143;" horiz-adv-x="698" 
d="M82 0v692h197l206 -570h14v570h118v-692h-193l-211 570h-14v-570h-117zM208 864l244 93l39 -108l-248 -80z" />
    <glyph glyph-name="Imacron" unicode="&#x12a;" horiz-adv-x="268" 
d="M75 0v692h118v-692h-118zM-34 819v99h335v-99h-335z" />
    <glyph glyph-name="Ibreve" unicode="&#x12c;" horiz-adv-x="268" 
d="M75 0v692h118v-692h-118zM-43 929h118c4 -30 26 -49 58 -49c35 0 56 19 59 49h119c-8 -83 -66 -145 -178 -145c-111 0 -168 62 -176 145z" />
    <glyph glyph-name="Idotaccent" unicode="&#x130;" horiz-adv-x="268" 
d="M75 0v692h118v-692h-118zM77 790v119h114v-119h-114z" />
    <glyph glyph-name="Jcircumflex" unicode="&#x134;" horiz-adv-x="312" 
d="M234 692l1 -579c0 -145 -45 -183 -199 -183v104c63 1 83 20 83 83v575h115zM-28 784l132 144h104l132 -144h-129l-54 53l-53 -53h-132z" />
    <glyph glyph-name="Itilde" unicode="&#x128;" horiz-adv-x="268" 
d="M75 0v692h118v-692h-118zM298 925l25 -87s-53 -62 -102 -62c-50 0 -134 48 -167 48c-27 0 -80 -43 -80 -43l-25 87s54 62 103 62c58 0 137 -47 166 -47c24 0 80 42 80 42z" />
    <glyph glyph-name="Hcircumflex" unicode="&#x124;" horiz-adv-x="670" 
d="M472 0v297h-274v-297h-116v692h116v-286h274v286h116v-692h-116zM150 784l132 144h104l132 -144h-129l-54 53l-53 -53h-132z" />
    <glyph glyph-name="Gdotaccent" unicode="&#x120;" horiz-adv-x="599" 
d="M349 268v102h194v-362s-145 -19 -224 -19c-206 0 -270 130 -270 358c0 240 70 356 266 356c97 0 228 -24 228 -24l-3 -102s-125 16 -208 16c-124 0 -162 -65 -162 -246c0 -176 31 -248 159 -248c39 0 97 7 98 7v162h-78zM251 798v119h114v-119h-114z" />
    <glyph glyph-name="Cdotaccent" unicode="&#x10a;" horiz-adv-x="531" 
d="M489 114l3 -105s-120 -20 -191 -20c-201 0 -252 122 -252 356c0 250 64 358 252 358c79 0 192 -23 192 -23l-4 -103s-120 14 -172 14c-113 0 -147 -63 -147 -246c0 -174 27 -244 151 -244c46 0 168 13 168 13zM236 790v119h114v-119h-114z" />
    <glyph glyph-name="dotaccent.cap" horiz-adv-x="257" 
d="M72 778v119h114v-119h-114z" />
    <glyph glyph-name="Amacron" unicode="&#x100;" horiz-adv-x="605" 
d="M28 0l165 692h221l163 -692h-118l-38 138h-241l-34 -138h-118zM285 589l-81 -342h195l-78 342h-36zM134 810v99h335v-99h-335z" />
    <glyph glyph-name="Abreve" unicode="&#x102;" horiz-adv-x="605" 
d="M28 0l165 692h221l163 -692h-118l-38 138h-241l-34 -138h-118zM285 589l-81 -342h195l-78 342h-36zM126 929h118c4 -30 26 -49 58 -49c35 0 56 19 59 49h119c-8 -83 -66 -145 -178 -145c-111 0 -168 62 -176 145z" />
    <glyph glyph-name="Aringacute" unicode="&#x1fa;" horiz-adv-x="605" 
d="M443 729c0 -27 -8 -50 -22 -68l156 -661h-118l-38 138h-241l-34 -138h-118l157 660c-14 19 -21 42 -21 69c0 77 62 119 140 119c76 0 139 -42 139 -119zM285 589l-81 -342h195l-78 342h-36zM153 962l244 93l39 -108l-248 -80zM253 729c0 -19 11 -32 31 -37h39
c19 5 31 18 31 37c0 24 -19 39 -50 39c-32 0 -51 -15 -51 -39z" />
    <glyph glyph-name="Ncaron" unicode="&#x147;" horiz-adv-x="698" 
d="M82 0v692h197l206 -570h14v570h118v-692h-193l-211 570h-14v-570h-117zM533 929l-132 -144h-103l-133 144h131l54 -56l53 56h130z" />
    <glyph glyph-name="Gcircumflex" unicode="&#x11c;" horiz-adv-x="599" 
d="M349 268v102h194v-362s-145 -19 -224 -19c-206 0 -270 130 -270 358c0 240 70 356 266 356c97 0 228 -24 228 -24l-3 -102s-125 16 -208 16c-124 0 -162 -65 -162 -246c0 -176 31 -248 159 -248c39 0 97 7 98 7v162h-78zM133 789l132 144h104l132 -144h-129l-54 53
l-53 -53h-132z" />
    <glyph glyph-name="Gbreve" unicode="&#x11e;" horiz-adv-x="599" 
d="M349 268v102h194v-362s-145 -19 -224 -19c-206 0 -270 130 -270 358c0 240 70 356 266 356c97 0 228 -24 228 -24l-3 -102s-125 16 -208 16c-124 0 -162 -65 -162 -246c0 -176 31 -248 159 -248c39 0 97 7 98 7v162h-78zM143 929h118c4 -30 26 -49 58 -49
c35 0 56 19 59 49h119c-8 -83 -66 -145 -178 -145c-111 0 -168 62 -176 145z" />
    <glyph glyph-name="Omacron" unicode="&#x14c;" horiz-adv-x="646" 
d="M323 97c116 0 153 71 153 244c0 171 -38 254 -153 254s-153 -83 -153 -254s37 -244 153 -244zM323 -11c-202 0 -274 118 -274 352s72 362 274 362s274 -128 274 -362c0 -236 -72 -352 -274 -352zM155 810v99h335v-99h-335z" />
    <glyph glyph-name="Obreve" unicode="&#x14e;" horiz-adv-x="646" 
d="M323 97c116 0 153 71 153 244c0 171 -38 254 -153 254s-153 -83 -153 -254s37 -244 153 -244zM323 -11c-202 0 -274 118 -274 352s72 362 274 362s274 -128 274 -362c0 -236 -72 -352 -274 -352zM147 929h118c4 -30 26 -49 58 -49c35 0 56 19 59 49h119
c-8 -83 -66 -145 -178 -145c-111 0 -168 62 -176 145z" />
    <glyph glyph-name="Rcaron" unicode="&#x158;" horiz-adv-x="616" 
d="M342 241l-22 -1h-122v-240h-116v692h249c151 0 234 -67 234 -223c0 -102 -37 -164 -108 -200l108 -269h-129zM445 467c0 74 -45 117 -114 117h-133v-239h135c73 0 112 53 112 122zM492 930l-132 -144h-103l-133 144h131l54 -56l53 56h130z" />
    <glyph glyph-name="Sacute" unicode="&#x15a;" horiz-adv-x="531" 
d="M485 681l-4 -100s-137 14 -195 14c-74 0 -118 -27 -118 -85c0 -59 35 -80 145 -116c140 -48 191 -79 191 -195c0 -145 -70 -210 -231 -210c-92 0 -211 22 -211 22l6 101s132 -15 195 -15c79 0 125 25 125 98c0 51 -37 70 -138 103c-147 49 -198 94 -198 211
c0 129 82 195 227 195c93 0 206 -23 206 -23zM124 864l244 93l39 -108l-248 -80z" />
    <glyph glyph-name="Tcaron" unicode="&#x164;" horiz-adv-x="484" 
d="M8 579v113h468v-113h-174v-579h-116v579h-178zM426 930l-132 -144h-103l-133 144h131l54 -56l53 56h130z" />
    <glyph glyph-name="Utilde" unicode="&#x168;" horiz-adv-x="645" 
d="M191 223c0 -88 42 -120 131 -120c90 0 132 33 132 120v469h117v-469c0 -164 -75 -232 -249 -232c-172 0 -248 68 -248 232v469h117v-469zM477 933l25 -87s-53 -62 -102 -62c-50 0 -134 48 -167 48c-27 0 -80 -43 -80 -43l-25 87s54 62 103 62c58 0 137 -47 166 -47
c24 0 80 42 80 42z" />
    <glyph glyph-name="zdotaccent" unicode="&#x17c;" horiz-adv-x="478" 
d="M58 398v102h361l1 -102l-228 -296h228v-102h-361l-1 102l228 296h-228zM182 574v119h114v-119h-114z" />
    <glyph glyph-name="umacron" unicode="&#x16b;" horiz-adv-x="560" 
d="M368 499h114v-499h-114v25s-74 -36 -126 -36c-128 0 -169 76 -169 249v261h114v-260c0 -104 14 -150 78 -150c42 0 103 26 103 26v384zM122 626v99h315v-99h-315z" />
    <glyph glyph-name="ubreve" unicode="&#x16d;" horiz-adv-x="560" 
d="M368 499h114v-499h-114v25s-74 -36 -126 -36c-128 0 -169 76 -169 249v261h114v-260c0 -104 14 -150 78 -150c42 0 103 26 103 26v384zM97 743h118c4 -35 26 -54 64 -54c41 0 62 19 65 54h118c-8 -91 -67 -156 -183 -156c-115 0 -174 65 -182 156z" />
    <glyph glyph-name="amacron" unicode="&#x101;" horiz-adv-x="526" 
d="M444 342v-206c3 -35 17 -44 46 -51l-7 -96c-71 0 -105 13 -135 35c0 0 -70 -35 -146 -35c-87 0 -153 63 -153 160c0 103 65 145 164 152l117 10v32c0 42 -20 63 -58 63c-90 0 -194 -10 -194 -10l-4 94s130 21 204 21c107 0 166 -46 166 -169zM330 226l-104 -6
c-42 -2 -62 -30 -62 -68c0 -40 21 -67 54 -67c53 0 112 20 112 20v121zM105 626v99h315v-99h-315z" />
    <glyph glyph-name="abreve" unicode="&#x103;" horiz-adv-x="526" 
d="M444 342v-206c3 -35 17 -44 46 -51l-7 -96c-71 0 -105 13 -135 35c0 0 -70 -35 -146 -35c-87 0 -153 63 -153 160c0 103 65 145 164 152l117 10v32c0 42 -20 63 -58 63c-90 0 -194 -10 -194 -10l-4 94s130 21 204 21c107 0 166 -46 166 -169zM330 226l-104 -6
c-42 -2 -62 -30 -62 -68c0 -40 21 -67 54 -67c53 0 112 20 112 20v121zM81 743h118c4 -35 26 -54 64 -54c41 0 62 19 65 54h118c-8 -91 -67 -156 -183 -156c-115 0 -174 65 -182 156z" />
    <glyph glyph-name="cdotaccent" unicode="&#x10b;" horiz-adv-x="436" 
d="M252 511c70 0 146 -16 146 -16l-4 -97s-73 8 -111 8c-90 0 -121 -44 -121 -150c0 -110 29 -163 122 -163c38 0 111 7 111 7l3 -97s-80 -14 -149 -14c-144 0 -203 87 -203 267c0 168 65 255 206 255zM181 574v119h114v-119h-114z" />
    <glyph glyph-name="Umacron" unicode="&#x16a;" horiz-adv-x="645" 
d="M191 223c0 -88 42 -120 131 -120c90 0 132 33 132 120v469h117v-469c0 -164 -75 -232 -249 -232c-172 0 -248 68 -248 232v469h117v-469zM154 810v99h335v-99h-335z" />
    <glyph glyph-name="Ubreve" unicode="&#x16c;" horiz-adv-x="645" 
d="M191 223c0 -88 42 -120 131 -120c90 0 132 33 132 120v469h117v-469c0 -164 -75 -232 -249 -232c-172 0 -248 68 -248 232v469h117v-469zM146 929h118c4 -30 26 -49 58 -49c35 0 56 19 59 49h119c-8 -83 -66 -145 -178 -145c-111 0 -168 62 -176 145z" />
    <glyph glyph-name="Uring" unicode="&#x16e;" horiz-adv-x="645" 
d="M191 223c0 -88 42 -120 131 -120c90 0 132 33 132 120v469h117v-469c0 -164 -75 -232 -249 -232c-172 0 -248 68 -248 232v469h117v-469zM462 841c0 -76 -63 -119 -139 -119c-78 0 -140 43 -140 119c0 77 62 119 140 119c76 0 139 -42 139 -119zM272 841
c0 -24 19 -39 51 -39c31 0 50 15 50 39s-19 39 -50 39c-32 0 -51 -15 -51 -39z" />
    <glyph glyph-name="Wgrave" unicode="&#x1e80;" horiz-adv-x="927" 
d="M33 692h123l108 -586h20l113 576h133l115 -576h19l107 586h123l-140 -692h-191l-100 526l-98 -526h-191zM359 948l244 -92l-35 -96l-248 81z" />
    <glyph glyph-name="Wacute" unicode="&#x1e82;" horiz-adv-x="927" 
d="M33 692h123l108 -586h20l113 576h133l115 -576h19l107 586h123l-140 -692h-191l-100 526l-98 -526h-191zM324 864l244 93l39 -108l-248 -80z" />
    <glyph glyph-name="Wcircumflex" unicode="&#x174;" horiz-adv-x="927" 
d="M33 692h123l108 -586h20l113 576h133l115 -576h19l107 586h123l-140 -692h-191l-100 526l-98 -526h-191zM279 789l132 144h104l132 -144h-129l-54 53l-53 -53h-132z" />
    <glyph glyph-name="Wdieresis" unicode="&#x1e84;" horiz-adv-x="927" 
d="M33 692h123l108 -586h20l113 576h133l115 -576h19l107 586h123l-140 -692h-191l-100 526l-98 -526h-191zM300 803v118h109v-118h-109zM517 803v118h109v-118h-109z" />
    <glyph glyph-name="Ygrave" unicode="&#x1ef2;" horiz-adv-x="565" 
d="M342 296v-296h-116v296l-208 396h131l134 -272l133 272h131zM180 948l244 -92l-35 -96l-248 81z" />
    <glyph glyph-name="Zacute" unicode="&#x179;" horiz-adv-x="570" 
d="M65 582v110h440v-117l-295 -449v-16h295v-110h-440v117l295 448v17h-295zM143 864l244 93l39 -108l-248 -80z" />
    <glyph glyph-name="Zdotaccent" unicode="&#x17b;" horiz-adv-x="570" 
d="M65 582v110h440v-117l-295 -449v-16h295v-110h-440v117l295 448v17h-295zM228 790v119h114v-119h-114z" />
    <glyph glyph-name="Edotaccent" unicode="&#x116;" horiz-adv-x="557" 
d="M82 0v692h422v-108h-306v-188h246v-105h-246v-183h306v-108h-422zM241 790v119h114v-119h-114z" />
    <glyph glyph-name="Ccircumflex" unicode="&#x108;" horiz-adv-x="531" 
d="M489 114l3 -105s-120 -20 -191 -20c-201 0 -252 122 -252 356c0 250 64 358 252 358c79 0 192 -23 192 -23l-4 -103s-120 14 -172 14c-113 0 -147 -63 -147 -246c0 -174 27 -244 151 -244c46 0 168 13 168 13zM113 789l132 144h104l132 -144h-129l-54 53l-53 -53h-132z
" />
    <glyph glyph-name="emacron" unicode="&#x113;" horiz-adv-x="507" 
d="M267 89c71 0 179 9 179 9l2 -85s-94 -24 -190 -24c-155 0 -213 89 -213 255c0 168 73 267 212 267c140 0 208 -84 208 -228l-8 -81h-297c1 -66 29 -113 107 -113zM159 289h193c0 83 -26 126 -95 126s-97 -46 -98 -126zM98 626v99h315v-99h-315z" />
    <glyph glyph-name="ebreve" unicode="&#x115;" horiz-adv-x="507" 
d="M267 89c71 0 179 9 179 9l2 -85s-94 -24 -190 -24c-155 0 -213 89 -213 255c0 168 73 267 212 267c140 0 208 -84 208 -228l-8 -81h-297c1 -66 29 -113 107 -113zM159 289h193c0 83 -26 126 -95 126s-97 -46 -98 -126zM72 743h118c4 -35 26 -54 64 -54c41 0 62 19 65 54
h118c-8 -91 -67 -156 -183 -156c-115 0 -174 65 -182 156z" />
    <glyph glyph-name="edotaccent" unicode="&#x117;" horiz-adv-x="507" 
d="M267 89c71 0 179 9 179 9l2 -85s-94 -24 -190 -24c-155 0 -213 89 -213 255c0 168 73 267 212 267c140 0 208 -84 208 -228l-8 -81h-297c1 -66 29 -113 107 -113zM159 289h193c0 83 -26 126 -95 126s-97 -46 -98 -126zM196 574v119h114v-119h-114z" />
    <glyph glyph-name="gbreve" unicode="&#x11f;" horiz-adv-x="531" 
d="M271 -240c-135 0 -227 38 -227 151c0 49 25 86 74 123c-21 14 -34 41 -34 72c0 23 38 82 38 82c-37 24 -72 66 -72 147c0 121 92 175 197 175c38 0 95 -13 95 -13l153 3v-91h-73c12 -16 23 -40 23 -74c0 -127 -76 -174 -200 -174c-10 0 -29 2 -39 4c0 0 -12 -32 -12 -45
c0 -30 7 -37 99 -37c146 0 206 -35 206 -148c0 -124 -105 -175 -228 -175zM284 -14c-31 0 -91 6 -91 6c-23 -21 -36 -40 -36 -69c0 -43 46 -63 115 -63c71 0 112 23 112 69c0 48 -33 57 -100 57zM245 253c54 0 87 25 87 82c0 54 -28 81 -86 81c-55 0 -82 -29 -82 -81
s27 -82 81 -82zM83 743h118c4 -35 26 -54 64 -54c41 0 62 19 65 54h118c-8 -91 -67 -156 -183 -156c-115 0 -174 65 -182 156z" />
    <glyph glyph-name="gdotaccent" unicode="&#x121;" horiz-adv-x="531" 
d="M271 -240c-135 0 -227 38 -227 151c0 49 25 86 74 123c-21 14 -34 41 -34 72c0 23 38 82 38 82c-37 24 -72 66 -72 147c0 121 92 175 197 175c38 0 95 -13 95 -13l153 3v-91h-73c12 -16 23 -40 23 -74c0 -127 -76 -174 -200 -174c-10 0 -29 2 -39 4c0 0 -12 -32 -12 -45
c0 -30 7 -37 99 -37c146 0 206 -35 206 -148c0 -124 -105 -175 -228 -175zM284 -14c-31 0 -91 6 -91 6c-23 -21 -36 -40 -36 -69c0 -43 46 -63 115 -63c71 0 112 23 112 69c0 48 -33 57 -100 57zM245 253c54 0 87 25 87 82c0 54 -28 81 -86 81c-55 0 -82 -29 -82 -81
s27 -82 81 -82zM209 574v119h114v-119h-114z" />
    <glyph glyph-name="ibreve" unicode="&#x12d;" horiz-adv-x="267" 
d="M76 0v499h114v-499h-114zM-49 743h118c4 -35 26 -54 64 -54c41 0 62 19 65 54h118c-8 -91 -67 -156 -183 -156c-115 0 -174 65 -182 156z" />
    <glyph glyph-name="imacron" unicode="&#x12b;" horiz-adv-x="267" 
d="M76 0v499h114v-499h-114zM-24 626v99h315v-99h-315z" />
    <glyph glyph-name="dotlessj" unicode="&#x237;" horiz-adv-x="263" 
d="M78 6v493h114v-494c0 -134 -29 -177 -172 -247l-51 95c96 53 109 71 109 153z" />
    <glyph glyph-name="jcircumflex" unicode="&#x135;" horiz-adv-x="263" 
d="M78 6v493h114v-494c0 -134 -29 -177 -172 -247l-51 95c96 53 109 71 109 153zM-44 584l129 164h92l130 -164h-123l-52 69l-53 -69h-123z" />
    <glyph glyph-name="omacron" unicode="&#x14d;" horiz-adv-x="529" 
d="M265 511c166 0 219 -110 219 -259c0 -151 -49 -263 -219 -263c-171 0 -220 110 -220 263c0 150 51 259 220 259zM265 88c87 0 103 68 103 164c0 95 -22 159 -103 159c-83 0 -104 -62 -104 -159c0 -98 17 -164 104 -164zM106 626v99h315v-99h-315z" />
    <glyph glyph-name="obreve" unicode="&#x14f;" horiz-adv-x="529" 
d="M265 511c166 0 219 -110 219 -259c0 -151 -49 -263 -219 -263c-171 0 -220 110 -220 263c0 150 51 259 220 259zM265 88c87 0 103 68 103 164c0 95 -22 159 -103 159c-83 0 -104 -62 -104 -159c0 -98 17 -164 104 -164zM82 743h118c4 -35 26 -54 64 -54c41 0 62 19 65 54
h118c-8 -91 -67 -156 -183 -156c-115 0 -174 65 -182 156z" />
    <glyph glyph-name="ellipsis" unicode="&#x2026;" horiz-adv-x="744" 
d="M65 0v149h123v-149h-123zM319 0v149h124v-149h-124zM574 0v149h123v-149h-123z" />
    <glyph glyph-name="perthousand" unicode="&#x2030;" horiz-adv-x="833" 
d="M127 631c-24 0 -31 -22 -31 -73c0 -50 7 -74 31 -74s31 24 31 74c0 51 -7 73 -31 73zM140 0l191 716l75 -20l-191 -715zM10 558c0 97 43 143 117 143s117 -46 117 -143s-43 -144 -117 -144s-117 47 -117 144zM300 145c0 96 42 142 116 142s117 -46 117 -143
c0 -96 -43 -144 -117 -144c-73 0 -116 48 -116 145zM385 145c0 -51 7 -75 31 -75c25 0 32 24 32 74c0 51 -7 73 -32 73c-24 0 -31 -22 -31 -72zM557 145c0 96 43 142 117 142c73 0 116 -46 116 -143c0 -96 -43 -144 -116 -144c-74 0 -117 48 -117 145zM642 145
c0 -51 7 -75 32 -75c24 0 31 24 31 74c0 51 -7 73 -31 73c-25 0 -32 -22 -32 -72z" />
    <glyph glyph-name="zerosuperior" unicode="&#x2070;" horiz-adv-x="265" 
d="M134 801c82 0 126 -41 126 -168c0 -128 -45 -166 -126 -166s-126 38 -126 166c0 127 45 168 126 168zM134 718c-21 0 -30 -14 -30 -85c0 -72 10 -83 30 -83c21 0 30 11 30 83c0 70 -8 85 -30 85z" />
    <glyph glyph-name="onesuperior" unicode="&#xb9;" horiz-adv-x="265" 
d="M21 717l104 73h84v-312h-92v211l-54 -37z" />
    <glyph glyph-name="twosuperior" unicode="&#xb2;" horiz-adv-x="265" 
d="M241 478h-224v79l78 68c33 28 47 45 47 65c0 17 -14 22 -41 22c-24 0 -78 -7 -78 -7l-4 86s69 10 113 10c78 0 107 -29 107 -97c0 -46 -18 -73 -58 -105l-45 -38h105v-83z" />
    <glyph glyph-name="threesuperior" unicode="&#xb3;" horiz-adv-x="265" 
d="M26 791c0 0 65 10 106 10c77 0 116 -28 116 -88c0 -39 -18 -62 -33 -71c25 -10 39 -28 39 -74c0 -68 -43 -101 -114 -101c-49 0 -118 9 -118 9l5 81s60 -7 96 -7c26 0 36 8 36 25c0 18 -12 23 -33 23h-66v75h65c14 0 26 9 26 24s-12 21 -33 21c-39 0 -87 -6 -87 -6z" />
    <glyph glyph-name="foursuperior" unicode="&#x2074;" horiz-adv-x="265" 
d="M146 478v39h-134v77l49 196h102l-59 -190h42l12 90h80v-90h16v-83h-16v-39h-92z" />
    <glyph glyph-name="fivesuperior" unicode="&#x2075;" horiz-adv-x="265" 
d="M40 790h200v-79h-127l-4 -40s27 9 48 9c58 0 94 -27 94 -99c0 -74 -41 -110 -115 -110c-50 0 -114 13 -114 13l7 75s55 -9 94 -9c20 0 32 8 32 26c0 19 -9 26 -23 26c-15 0 -34 -8 -34 -8l-69 9z" />
    <glyph glyph-name="sixsuperior" unicode="&#x2076;" horiz-adv-x="265" 
d="M245 789l-5 -76s-61 6 -91 6c-31 0 -42 -15 -42 -41c0 -1 26 8 45 8c73 0 103 -37 103 -105c0 -72 -49 -114 -116 -114c-88 0 -126 57 -126 158c0 114 33 176 133 176c36 0 99 -12 99 -12zM136 610c-17 0 -29 -11 -29 -11c0 -30 9 -51 28 -51c18 0 27 13 27 32
c0 21 -8 30 -26 30z" />
    <glyph glyph-name="sevensuperior" unicode="&#x2077;" horiz-adv-x="265" 
d="M23 699v91h220v-93l-98 -229l-104 17l95 199v15h-113z" />
    <glyph glyph-name="eightsuperior" unicode="&#x2078;" horiz-adv-x="265" 
d="M133 801c81 0 121 -31 121 -89c0 -44 -24 -69 -33 -72c8 -2 37 -20 37 -70c0 -78 -46 -103 -125 -103s-125 25 -125 102c0 47 30 69 38 72c-8 3 -33 23 -33 72c0 57 38 88 120 88zM133 542c20 0 30 11 30 30c0 14 -8 25 -21 32h-18c-13 -7 -21 -18 -21 -33
c0 -18 10 -29 30 -29zM133 726c-19 0 -29 -8 -29 -25c0 -13 8 -24 20 -31h18c12 7 19 18 19 31c0 16 -8 25 -28 25z" />
    <glyph glyph-name="ninesuperior" unicode="&#x2079;" horiz-adv-x="265" 
d="M23 481l6 75s47 -6 85 -6c33 0 43 17 43 39c0 1 -23 -6 -43 -6c-67 0 -102 36 -102 104c0 73 47 114 116 114c89 0 127 -57 127 -166c0 -114 -35 -168 -129 -168c-46 0 -103 14 -103 14zM131 655c13 0 30 9 30 9c0 37 -9 55 -29 55c-17 0 -27 -11 -27 -32
c0 -19 11 -32 26 -32z" />
    <glyph glyph-name="Delta" unicode="&#x394;" 
d="M33 96l136 588h195l135 -589v-95h-466v96zM277 578h-20l-105 -472h229z" />
    <glyph glyph-name="Delta" unicode="&#x2206;" 
d="M33 96l136 588h195l135 -589v-95h-466v96zM277 578h-20l-105 -472h229z" />
    <glyph glyph-name="radical" unicode="&#x221a;" 
d="M8 332l159 45l91 -355h17l132 758h123l-166 -864h-187l-94 338l-48 -15z" />
    <glyph glyph-name="lozenge" unicode="&#x25ca;" 
d="M493 333l-160 -333h-120l-165 333l164 327h120zM371 333l-98 217l-103 -217l103 -221z" />
    <glyph glyph-name="product" unicode="&#x220f;" 
d="M27 660h477v-116h-47v-633h-118v633h-148v-633h-118v633h-46v116z" />
    <glyph glyph-name="dagger" unicode="&#x2020;" 
d="M55 385v112h154v178h112v-178h154v-112h-154v-458h-112v458h-154z" />
    <glyph glyph-name="ogonek" unicode="&#x2db;" horiz-adv-x="466" 
d="M395 -110l11 -92s-54 -11 -94 -11c-59 0 -103 35 -103 93c0 74 81 130 81 130l96 -9s-58 -51 -58 -85c0 -16 9 -30 26 -30c9 0 41 4 41 4z" />
    <glyph glyph-name="scedilla" unicode="&#x15f;" horiz-adv-x="494" 
d="M383 -127c0 -65 -41 -98 -105 -98c-43 0 -91 10 -91 10l4 68s34 -2 54 -2c27 0 40 9 40 30c0 20 -13 26 -40 26h-30v83c-69 5 -155 22 -155 22l4 93s119 -16 170 -16c66 0 91 17 91 57c0 31 -15 40 -91 55c-112 23 -179 49 -179 152c0 114 92 158 184 158
c73 0 185 -23 185 -23l-2 -93s-123 16 -175 16c-51 0 -78 -18 -78 -55c0 -30 20 -39 99 -53c124 -23 171 -55 171 -154c0 -111 -72 -155 -175 -159v-31c79 -1 119 -15 119 -86z" />
    <glyph glyph-name="aogonek" unicode="&#x105;" horiz-adv-x="526" 
d="M478 -110l11 -92s-54 -11 -94 -11c-59 0 -103 35 -103 93c0 70 70 122 79 129c-8 4 -16 9 -23 15c0 0 -70 -35 -146 -35c-87 0 -153 63 -153 160c0 103 65 145 164 152l117 10v32c0 42 -20 63 -58 63c-90 0 -194 -10 -194 -10l-4 94s130 21 204 21
c107 0 166 -46 166 -169v-206c3 -35 17 -44 46 -51l-7 -96c-10 0 -18 0 -26 1c-17 -17 -46 -49 -46 -74c0 -16 9 -30 26 -30c9 0 41 4 41 4zM330 226l-104 -6c-42 -2 -62 -30 -62 -68c0 -40 21 -67 54 -67c53 0 112 20 112 20v121z" />
    <glyph glyph-name="Aogonek" unicode="&#x104;" horiz-adv-x="605" 
d="M587 -110l11 -92s-54 -11 -94 -11c-59 0 -103 35 -103 93c0 56 45 101 68 120h-10l-38 138h-241l-34 -138h-118l165 692h221l162 -691h2s-58 -51 -58 -85c0 -16 9 -30 26 -30c9 0 41 4 41 4zM285 589l-81 -342h195l-78 342h-36z" />
    <glyph glyph-name="Eogonek" unicode="&#x118;" horiz-adv-x="557" 
d="M82 0v692h422v-108h-306v-188h246v-105h-246v-183h306v-108h-14c-4 -3 -57 -51 -57 -84c0 -16 9 -30 26 -30c9 0 41 4 41 4l11 -92s-54 -11 -94 -11c-59 0 -103 35 -103 93c0 56 45 101 68 120h-300z" />
    <glyph glyph-name="Iogonek" unicode="&#x12e;" horiz-adv-x="268" 
d="M75 0v692h118v-692h-1c-4 -3 -57 -51 -57 -84c0 -16 9 -30 26 -30c9 0 41 4 41 4l11 -92s-54 -11 -94 -11c-59 0 -103 35 -103 93c0 56 45 101 68 120h-9z" />
    <glyph glyph-name="Uogonek" unicode="&#x172;" horiz-adv-x="645" 
d="M430 -110l11 -92s-54 -11 -94 -11c-59 0 -103 35 -103 93c0 49 34 89 58 112c-158 5 -228 73 -228 231v469h117v-469c0 -88 42 -120 131 -120c90 0 132 33 132 120v469h117v-469c0 -129 -47 -199 -151 -223c-2 -1 -57 -50 -57 -84c0 -16 9 -30 26 -30c9 0 41 4 41 4z" />
    <glyph glyph-name="Dcroat" unicode="&#x110;" horiz-adv-x="631" 
d="M18 288v113h64v291h227c217 0 274 -118 274 -334c0 -220 -51 -358 -274 -358h-227v288h-64zM462 358c0 140 -24 226 -153 226h-111v-183h134v-113h-134v-180h111c129 0 153 109 153 250z" />
    <glyph glyph-name="uhungarumlaut" unicode="&#x171;" horiz-adv-x="560" 
d="M368 499h114v-499h-114v25s-74 -36 -126 -36c-128 0 -169 76 -169 249v261h114v-260c0 -104 14 -150 78 -150c42 0 103 26 103 26v384zM307 627l126 173l91 -59l-133 -172zM107 627l126 172l91 -58l-133 -172z" />
    <glyph glyph-name="Uhungarumlaut" unicode="&#x170;" horiz-adv-x="645" 
d="M191 223c0 -88 42 -120 131 -120c90 0 132 33 132 120v469h117v-469c0 -164 -75 -232 -249 -232c-172 0 -248 68 -248 232v469h117v-469zM352 786l92 175l103 -42l-100 -170zM139 787l92 175l104 -42l-101 -170z" />
    <glyph glyph-name="uogonek" unicode="&#x173;" horiz-adv-x="560" 
d="M476 -110l11 -92s-54 -11 -94 -11c-59 0 -103 35 -103 93c0 66 64 118 78 128v17s-74 -36 -126 -36c-128 0 -169 76 -169 249v261h114v-260c0 -104 14 -150 78 -150c42 0 103 26 103 26v384h114v-499h-16c-4 -3 -57 -51 -57 -84c0 -16 9 -30 26 -30c9 0 41 4 41 4z" />
    <glyph glyph-name="Ohungarumlaut" unicode="&#x150;" horiz-adv-x="646" 
d="M323 97c116 0 153 71 153 244c0 171 -38 254 -153 254s-153 -83 -153 -254s37 -244 153 -244zM323 -11c-202 0 -274 118 -274 352s72 362 274 362s274 -128 274 -362c0 -236 -72 -352 -274 -352zM354 791l92 175l103 -42l-100 -170zM141 792l92 175l104 -42l-101 -170z
" />
    <glyph glyph-name="Oslashacute" unicode="&#x1fe;" horiz-adv-x="656" 
d="M171 864l244 93l39 -108l-248 -80zM323 97c116 0 153 71 153 244c0 171 -38 254 -153 254s-153 -83 -153 -254s37 -244 153 -244zM323 -11c-202 0 -274 118 -274 352s72 362 274 362s274 -128 274 -362c0 -236 -72 -352 -274 -352z" />
    <glyph glyph-name="eogonek" unicode="&#x119;" horiz-adv-x="507" 
d="M424 -106l11 -92s-54 -11 -94 -11c-59 0 -103 35 -103 93c0 45 29 83 53 106c-11 0 -22 -1 -33 -1c-155 0 -213 89 -213 255c0 168 73 267 212 267c140 0 208 -84 208 -228l-8 -81h-297c1 -66 29 -113 107 -113c71 0 179 9 179 9l2 -85s-15 -4 -35 -8h2s-58 -51 -58 -85
c0 -16 9 -30 26 -30c9 0 41 4 41 4zM159 289h193c0 83 -26 126 -95 126s-97 -46 -98 -126z" />
    <glyph glyph-name="currency" unicode="&#xa4;" 
d="M427 11l-72 73c-56 -30 -124 -30 -180 0l-72 -73l-79 79l73 72c-30 56 -30 124 0 180l-73 72l79 79l72 -73c56 30 124 30 180 0l72 73l79 -79l-73 -72c30 -56 30 -124 0 -180l73 -72zM204 191c33 -34 89 -34 122 0c34 33 34 89 0 122c-33 34 -89 34 -122 0
c-34 -33 -34 -89 0 -122z" />
    <glyph glyph-name="logicalnot" unicode="&#xac;" 
d="M52 361h424v-261h-111v150h-313v111z" />
    <glyph glyph-name="infinity" unicode="&#x221e;" horiz-adv-x="534" 
d="M161 121c-88 0 -134 58 -134 170c0 114 46 172 132 172c52 0 81 -19 107 -67c26 48 56 67 108 67c86 0 133 -58 133 -171s-47 -171 -135 -171c-51 0 -79 18 -105 66c-26 -50 -55 -66 -106 -66zM224 292c-19 40 -26 64 -56 64c-26 0 -36 -20 -36 -65c0 -41 11 -63 36 -63
c30 0 37 26 56 64zM310 292c19 -38 25 -64 55 -64c25 0 36 20 36 63c0 45 -10 65 -36 65c-30 0 -36 -24 -55 -64z" />
    <glyph glyph-name="integral" unicode="&#x222b;" 
d="M447 758c0 0 -54 5 -74 5c-55 0 -67 -24 -67 -82l30 -726c0 -134 -31 -187 -162 -187c-21 0 -96 10 -96 10l1 100s54 -4 75 -4c51 0 67 25 67 81l-30 726c0 143 30 188 162 188c20 0 97 -10 97 -10z" />
    <glyph glyph-name="partialdiff" unicode="&#x2202;" 
d="M114 551l-12 103s79 18 161 18c159 0 240 -90 240 -333c0 -228 -96 -348 -262 -348c-143 0 -213 88 -213 213c0 140 96 210 220 210c78 0 137 -49 137 -48c0 130 -35 196 -122 196c-69 0 -149 -11 -149 -11zM257 314c-71 0 -111 -39 -111 -110s33 -106 101 -106
c84 0 122 75 130 171c0 0 -52 45 -120 45z" />
    <glyph glyph-name="Omega" unicode="&#x3a9;" 
d="M35 93h86s-87 127 -87 277c0 210 58 300 231 300s231 -90 231 -300c0 -150 -87 -277 -87 -277h86v-102h-204v92s87 140 87 269c0 137 -17 210 -113 210c-103 0 -113 -73 -113 -210c0 -129 87 -269 87 -269v-92h-204v102z" />
    <glyph glyph-name="Omega" unicode="&#x2126;" 
d="M35 93h86s-87 127 -87 277c0 210 58 300 231 300s231 -90 231 -300c0 -150 -87 -277 -87 -277h86v-102h-204v92s87 140 87 269c0 137 -17 210 -113 210c-103 0 -113 -73 -113 -210c0 -129 87 -269 87 -269v-92h-204v102z" />
    <glyph glyph-name="zero.slash" 
d="M265 672c31 0 60 -4 86 -12l56 139l80 -28l-62 -153c55 -51 87 -143 87 -294c0 -259 -97 -335 -247 -335c-33 0 -63 4 -90 12l-49 -122l-77 26l54 136c-54 48 -85 136 -85 283c0 265 97 348 247 348zM386 324c0 69 -6 120 -17 157l-152 -376c14 -6 31 -8 49 -8
c83 0 120 50 120 227zM266 563c-85 0 -122 -58 -122 -239c0 -63 5 -110 15 -145l150 377c-12 5 -27 7 -43 7z" />
    <glyph glyph-name="zero.slash.001" 
d="M265 672c151 0 247 -83 247 -348c0 -259 -97 -335 -247 -335s-247 76 -247 335c0 265 97 348 247 348zM386 324c0 68 -5 118 -16 155l-152 -374c14 -6 30 -8 48 -8c83 0 120 50 120 227zM266 563c-85 0 -122 -58 -122 -239c0 -64 5 -111 15 -146l151 377
c-13 5 -28 8 -44 8z" />
    <glyph glyph-name="eng" unicode="&#x14b;" horiz-adv-x="563" 
d="M197 0h-114v499h114v-25s73 37 128 37c131 0 170 -92 170 -250v-258c0 -135 -30 -178 -173 -247l-50 95c93 52 108 71 108 148v261c0 85 -11 147 -77 147c-45 0 -106 -25 -106 -25v-382z" />
    <glyph glyph-name="Eng" unicode="&#x14a;" horiz-adv-x="698" 
d="M82 0v692h197l206 -570h14v570h118v-692h-2v-21c0 -145 -45 -183 -199 -183v104c63 1 83 20 83 83v17h-75l-211 570h-14v-570h-117z" />
    <glyph glyph-name="lessequal" unicode="&#x2264;" 
d="M452 424l-271 -70l271 -73v-121l-383 117v151l383 115v-119zM69 13v113h383v-113h-383z" />
    <glyph glyph-name="greaterequal" unicode="&#x2265;" 
d="M357 354l-279 70v119l391 -115v-151l-391 -117v121zM78 13v113h391v-113h-391z" />
    <glyph glyph-name="caronSlovak" horiz-adv-x="167" 
d="M134 692v-251h-110v251h110z" />
    <glyph glyph-name="lcaron" unicode="&#x13e;" horiz-adv-x="419" 
d="M73 0v706h114v-706h-114zM393 692v-251h-110v251h110z" />
    <glyph glyph-name="Lcaron" unicode="&#x13d;" horiz-adv-x="494" 
d="M455 0h-373v692h116v-582h257v-110zM453 692v-251h-110v251h110z" />
    <glyph glyph-name="dcaron" unicode="&#x10f;" horiz-adv-x="758" 
d="M467 706v-706h-115v23s-63 -34 -120 -34c-137 0 -186 101 -186 264c0 171 72 258 204 258c39 0 97 -12 102 -13v208h115zM250 92c46 0 102 24 102 24v284c-5 1 -52 11 -94 11c-63 0 -96 -56 -96 -159c0 -99 23 -160 88 -160zM678 692v-251h-110v251h110z" />
    <glyph glyph-name="iogonek" unicode="&#x12f;" horiz-adv-x="257" 
d="M72 0v499h114v-499h-1c-4 -3 -57 -51 -57 -84c0 -16 9 -30 26 -30c9 0 41 4 41 4l11 -92s-54 -11 -94 -11c-59 0 -103 35 -103 93c0 56 45 101 68 120h-5zM72 574v119h114v-119h-114z" />
    <glyph glyph-name="aringacute" unicode="&#x1fb;" horiz-adv-x="526" 
d="M444 342v-206c3 -35 17 -44 46 -51l-7 -96c-71 0 -105 13 -135 35c0 0 -70 -35 -146 -35c-87 0 -153 63 -153 160c0 103 65 145 164 152l117 10v32c0 42 -20 63 -58 63c-90 0 -194 -10 -194 -10l-4 94s130 21 204 21c107 0 166 -46 166 -169zM121 708l244 93l39 -108
l-36 -12c5 -13 8 -27 8 -41c0 -64 -50 -112 -113 -112c-60 0 -106 41 -112 99zM330 226l-104 -6c-42 -2 -62 -30 -62 -68c0 -40 21 -67 54 -67c53 0 112 20 112 20v121zM300 640c0 6 -2 12 -5 18l-68 -22c2 -19 17 -33 37 -33s36 16 36 37z" />
    <glyph glyph-name="ohungarumlaut" unicode="&#x151;" horiz-adv-x="529" 
d="M265 511c166 0 219 -110 219 -259c0 -151 -49 -263 -219 -263c-171 0 -220 110 -220 263c0 150 51 259 220 259zM265 88c87 0 103 68 103 164c0 95 -22 159 -103 159c-83 0 -104 -62 -104 -159c0 -98 17 -164 104 -164zM264 627l126 173l91 -59l-133 -172zM64 627
l126 172l91 -58l-133 -172z" />
    <glyph glyph-name="dcroat" unicode="&#x111;" horiz-adv-x="544" 
d="M190 567v99h162v40h115v-40h38v-99h-38v-567h-115v23s-63 -34 -120 -34c-137 0 -186 101 -186 264c0 171 72 258 204 258c39 0 97 -12 102 -13v69h-162zM250 92c46 0 102 24 102 24v284c-5 1 -52 11 -94 11c-63 0 -96 -56 -96 -159c0 -99 23 -160 88 -160z" />
    <glyph glyph-name="hbar" unicode="&#x127;" horiz-adv-x="562" 
d="M19 548v99h59v59h114v-59h142v-99h-142v-65s75 28 128 28c131 0 170 -92 170 -249v-262h-115v262c0 84 -11 145 -77 145c-43 0 -106 -20 -106 -20v-387h-114v548h-59z" />
    <glyph glyph-name="tcaron" unicode="&#x165;" horiz-adv-x="514" 
d="M325 398h-129v-209c0 -68 14 -97 52 -97c28 0 75 3 75 3l5 -93s-61 -14 -96 -14c-107 0 -150 54 -150 188v222h-59v100h59v146h114v-146h129v-100zM488 692v-251h-110v251h110z" />
    <glyph glyph-name="uni0326" unicode="&#x326;" horiz-adv-x="170" 
d="M4 -302l45 225h111l-53 -225h-103z" />
    <glyph glyph-name="tbar" unicode="&#x167;" horiz-adv-x="354" 
d="M30 220v99h52v79h-59v100h59v146h114v-146h129v-100h-129v-79h124v-99h-124v-31c0 -68 14 -97 52 -97c28 0 75 3 75 3l5 -93s-61 -14 -96 -14c-107 0 -150 54 -150 188v44h-52z" />
    <glyph glyph-name="Hbar" unicode="&#x126;" horiz-adv-x="670" 
d="M11 493v99h71v100h116v-100h274v100h116v-100h84v-99h-84v-493h-116v297h-274v-297h-116v493h-71zM198 406h274v87h-274v-87z" />
    <glyph glyph-name="Tbar" unicode="&#x166;" horiz-adv-x="484" 
d="M43 269v99h143v211h-178v113h468v-113h-174v-211h150v-99h-150v-269h-116v269h-143z" />
    <glyph glyph-name="commaaccent" horiz-adv-x="170" 
d="M4 -302l45 225h111l-53 -225h-103z" />
    <glyph glyph-name="Gcommaaccent" unicode="&#x122;" horiz-adv-x="599" 
d="M349 268v102h194v-362s-145 -19 -224 -19c-206 0 -270 130 -270 358c0 240 70 356 266 356c97 0 228 -24 228 -24l-3 -102s-125 16 -208 16c-124 0 -162 -65 -162 -246c0 -176 31 -248 159 -248c39 0 97 7 98 7v162h-78zM221 -302l45 225h111l-53 -225h-103z" />
    <glyph glyph-name="Lcommaaccent" unicode="&#x13b;" horiz-adv-x="494" 
d="M455 0h-373v692h116v-582h257v-110zM168 -302l45 225h111l-53 -225h-103z" />
    <glyph glyph-name="Ncommaaccent" unicode="&#x145;" horiz-adv-x="698" 
d="M82 0v692h197l206 -570h14v570h118v-692h-193l-211 570h-14v-570h-117zM270 -302l45 225h111l-53 -225h-103z" />
    <glyph glyph-name="Rcommaaccent" unicode="&#x156;" horiz-adv-x="616" 
d="M342 241l-22 -1h-122v-240h-116v692h249c151 0 234 -67 234 -223c0 -102 -37 -164 -108 -200l108 -269h-129zM445 467c0 74 -45 117 -114 117h-133v-239h135c73 0 112 53 112 122zM230 -302l45 225h111l-53 -225h-103z" />
    <glyph glyph-name="Scommaaccent" unicode="&#x218;" horiz-adv-x="531" 
d="M485 681l-4 -100s-137 14 -195 14c-74 0 -118 -27 -118 -85c0 -59 35 -80 145 -116c140 -48 191 -79 191 -195c0 -145 -70 -210 -231 -210c-92 0 -211 22 -211 22l6 101s132 -15 195 -15c79 0 125 25 125 98c0 51 -37 70 -138 103c-147 49 -198 94 -198 211
c0 129 82 195 227 195c93 0 206 -23 206 -23zM187 -302l45 225h111l-53 -225h-103z" />
    <glyph glyph-name="Tcommaaccent" unicode="&#x162;" horiz-adv-x="484" 
d="M8 579v113h468v-113h-174v-579h-116v579h-178zM164 -302l45 225h111l-53 -225h-103z" />
    <glyph glyph-name="ncommaaccent" unicode="&#x146;" horiz-adv-x="563" 
d="M194 0h-114v499h114v-25s73 37 128 37c131 0 170 -92 170 -250v-261h-114v260c0 85 -12 147 -78 147c-44 0 -106 -25 -106 -25v-382zM197 -302l45 225h111l-53 -225h-103z" />
    <glyph glyph-name="lcommaaccent" unicode="&#x13c;" horiz-adv-x="259" 
d="M73 0v706h114v-706h-114zM51 -302l45 225h111l-53 -225h-103z" />
    <glyph glyph-name="kcommaaccent" unicode="&#x137;" horiz-adv-x="511" 
d="M194 0h-114v706h114v-401l50 7l115 187h128l-140 -234l146 -265h-129l-117 203l-53 -8v-195zM177 -302l45 225h111l-53 -225h-103z" />
    <glyph glyph-name="tcommaaccent" unicode="&#x163;" horiz-adv-x="354" 
d="M325 398h-129v-209c0 -68 14 -97 52 -97c28 0 75 3 75 3l5 -93s-61 -14 -96 -14c-107 0 -150 54 -150 188v222h-59v100h59v146h114v-146h129v-100zM99 -302l45 225h111l-53 -225h-103z" />
    <glyph glyph-name="scommaaccent" unicode="&#x219;" horiz-adv-x="494" 
d="M424 488l-2 -93s-123 16 -175 16c-51 0 -78 -18 -78 -55c0 -30 20 -39 99 -53c124 -23 171 -55 171 -154c0 -117 -80 -160 -194 -160c-71 0 -185 23 -185 23l4 93s119 -16 170 -16c66 0 91 17 91 57c0 31 -15 40 -91 55c-112 23 -179 49 -179 152c0 114 92 158 184 158
c73 0 185 -23 185 -23zM168 -302l45 225h111l-53 -225h-103z" />
    <glyph glyph-name="rcommaaccent" unicode="&#x157;" horiz-adv-x="359" 
d="M74 0v499h114v-53s62 48 145 65v-122c-91 -18 -145 -48 -145 -48v-341h-114zM101 -302l45 225h111l-53 -225h-103z" />
    <glyph glyph-name="commaaccent.alt" horiz-adv-x="170" 
d="M160 810l-44 -225h-112l54 225h102z" />
    <glyph glyph-name="commaaccentcomb" horiz-adv-x="170" 
d="M4 -302l45 225h111l-53 -225h-103z" />
    <glyph glyph-name="commaaccentcomb.alt" horiz-adv-x="170" 
d="M160 810l-44 -225h-112l54 225h102z" />
    <glyph glyph-name="gcommaaccent" unicode="&#x123;" horiz-adv-x="531" 
d="M271 -240c-135 0 -227 38 -227 151c0 49 25 86 74 123c-21 14 -34 41 -34 72c0 23 38 82 38 82c-37 24 -72 66 -72 147c0 121 92 175 197 175c38 0 95 -13 95 -13l153 3v-91h-73c12 -16 23 -40 23 -74c0 -127 -76 -174 -200 -174c-10 0 -29 2 -39 4c0 0 -12 -32 -12 -45
c0 -30 7 -37 99 -37c146 0 206 -35 206 -148c0 -124 -105 -175 -228 -175zM284 -14c-31 0 -91 6 -91 6c-23 -21 -36 -40 -36 -69c0 -43 46 -63 115 -63c71 0 112 23 112 69c0 48 -33 57 -100 57zM245 253c54 0 87 25 87 82c0 54 -28 81 -86 81c-55 0 -82 -29 -82 -81
s27 -82 81 -82zM330 810l-44 -225h-112l54 225h102z" />
    <glyph glyph-name="braceleft.cap" horiz-adv-x="328" 
d="M238 201c0 -31 -7 -82 -7 -116c0 -50 14 -70 86 -75l-1 -112c-144 5 -208 54 -208 173c0 39 7 96 7 121c0 49 -20 81 -96 102v96c77 19 96 47 96 96c0 28 -7 91 -7 128c0 127 64 170 208 175l1 -112c-72 -5 -86 -21 -86 -71c0 -33 7 -98 7 -127c0 -81 -27 -112 -100 -136
c73 -24 100 -61 100 -142z" />
    <glyph glyph-name="uni0312" unicode="&#x312;" horiz-adv-x="170" 
d="M160 810l-44 -225h-112l54 225h102z" />
    <glyph glyph-name="questiondown.cap" horiz-adv-x="386" 
d="M10 178c0 140 163 209 163 279v38h116s7 -41 7 -57c0 -102 -161 -175 -161 -246c0 -58 15 -84 98 -84c50 0 149 18 149 18l13 -103s-113 -35 -175 -35c-143 0 -210 49 -210 190zM296 701v-141h-123v141h123z" />
    <glyph glyph-name="uni1EF9" unicode="&#x1ef9;" horiz-adv-x="484" 
d="M18 499h113l101 -389h19l102 389h113l-185 -712h-113l55 214h-76zM393 740l25 -87s-51 -59 -100 -59c-50 0 -116 46 -149 46c-27 0 -78 -41 -78 -41l-25 86s53 60 102 60c57 0 118 -45 147 -45c24 0 78 40 78 40z" />
    <glyph glyph-name="uni1EB0" unicode="&#x1eb0;" horiz-adv-x="605" 
d="M28 0l165 692h221l163 -692h-118l-38 138h-241l-34 -138h-118zM285 589l-81 -342h195l-78 342h-36zM126 891h118c4 -30 26 -49 58 -49c35 0 56 19 59 49h119c-8 -83 -66 -145 -178 -145c-111 0 -168 62 -176 145zM200 1121l244 -92l-33 -90l-247 81z" />
    <glyph glyph-name="uni1EF8" unicode="&#x1ef8;" horiz-adv-x="565" 
d="M342 296v-296h-116v296l-208 396h131l134 -272l133 272h131zM434 933l25 -87s-51 -59 -100 -59c-50 0 -116 46 -149 46c-27 0 -78 -41 -78 -41l-25 86s53 60 102 60c57 0 118 -45 147 -45c24 0 78 40 78 40z" />
    <glyph glyph-name="uni1EC5" unicode="&#x1ec5;" horiz-adv-x="507" 
d="M267 89c71 0 179 9 179 9l2 -85s-94 -24 -190 -24c-155 0 -213 89 -213 255c0 168 73 267 212 267c140 0 208 -84 208 -228l-8 -81h-297c1 -66 29 -113 107 -113zM159 289h193c0 83 -26 126 -95 126s-97 -46 -98 -126zM80 554l129 164h92l130 -164h-123l-52 69l-53 -69
h-123zM404 888l25 -87s-51 -59 -100 -59c-50 0 -116 46 -149 46c-27 0 -78 -41 -78 -41l-25 86s53 60 102 60c57 0 118 -45 147 -45c24 0 78 40 78 40z" />
    <glyph glyph-name="uni1ED7" unicode="&#x1ed7;" horiz-adv-x="531" 
d="M265 511c166 0 219 -110 219 -259c0 -151 -49 -263 -219 -263c-171 0 -220 110 -220 263c0 150 51 259 220 259zM265 88c87 0 103 68 103 164c0 95 -22 159 -103 159c-83 0 -104 -62 -104 -159c0 -98 17 -164 104 -164zM84 554l129 164h92l130 -164h-123l-52 69l-53 -69
h-123zM408 888l25 -87s-51 -59 -100 -59c-50 0 -116 46 -149 46c-27 0 -78 -41 -78 -41l-25 86s53 60 102 60c57 0 118 -45 147 -45c24 0 78 40 78 40z" />
    <glyph glyph-name="uni1EAB" unicode="&#x1eab;" 
d="M444 342v-206c3 -35 17 -44 46 -51l-7 -96c-71 0 -105 13 -135 35c0 0 -70 -35 -146 -35c-87 0 -153 63 -153 160c0 103 65 145 164 152l117 10v32c0 42 -20 63 -58 63c-90 0 -194 -10 -194 -10l-4 94s130 21 204 21c107 0 166 -46 166 -169zM330 226l-104 -6
c-42 -2 -62 -30 -62 -68c0 -40 21 -67 54 -67c53 0 112 20 112 20v121zM84 554l129 164h92l130 -164h-123l-52 69l-53 -69h-123zM408 888l25 -87s-51 -59 -100 -59c-50 0 -116 46 -149 46c-27 0 -78 -41 -78 -41l-25 86s53 60 102 60c57 0 118 -45 147 -45c24 0 78 40 78 40
z" />
    <glyph glyph-name="Kcommaaccent" unicode="&#x136;" horiz-adv-x="592" 
d="M425 0l-138 286l-89 -8v-278h-116v692h116v-307l87 8l134 299h136l-165 -345l171 -347h-136zM217 -302l45 225h111l-53 -225h-103z" />
    <glyph glyph-name="braceright.cap" horiz-adv-x="328" 
d="M88 482c0 31 7 82 7 116c0 50 -14 70 -86 75l1 112c144 -5 208 -54 208 -173c0 -39 -7 -96 -7 -121c0 -49 20 -81 96 -102v-96c-77 -19 -96 -47 -96 -96c0 -28 7 -91 7 -128c0 -127 -64 -170 -208 -175l-1 112c72 5 86 21 86 71c0 33 -7 98 -7 127c0 81 27 112 100 136
c-73 24 -100 61 -100 142z" />
    <glyph glyph-name="bracketright.cap" horiz-adv-x="300" 
d="M28 667v112h239l-1 -872h-238v112h121v648h-121z" />
    <glyph glyph-name="parenright.cap" horiz-adv-x="260" 
d="M132 -90h-124s95 260 95 449c0 186 -95 426 -95 426h124s97 -226 97 -426s-97 -449 -97 -449z" />
    <glyph glyph-name="parenleft.cap" horiz-adv-x="260" 
d="M112 780h124s-95 -260 -95 -449c0 -186 95 -426 95 -426h-124s-97 226 -97 426s97 449 97 449z" />
    <glyph glyph-name="bracketleft.cap" horiz-adv-x="300" 
d="M271 779v-112h-121v-648h121v-112h-238l-1 872h239z" />
    <glyph glyph-name="endash.cap" horiz-adv-x="500" 
d="M0 355h500v-104h-500v104z" />
    <glyph glyph-name="emdash.cap" horiz-adv-x="1000" 
d="M0 355h1000v-104h-1000v104z" />
    <glyph glyph-name="at.cap" horiz-adv-x="985" 
d="M941 389v-17c0 -233 -68 -298 -187 -298c-59 0 -99 12 -125 47c-38 -19 -104 -46 -159 -46c-110 0 -184 56 -184 251c0 164 39 267 195 267c34 0 101 -23 101 -23v14h114v-200c0 -184 13 -200 58 -200c47 0 72 25 72 188v18c0 224 -96 310 -322 310
c-229 0 -345 -116 -345 -355c0 -260 96 -357 345 -357c40 0 143 9 143 9l5 -110s-100 -10 -148 -10c-296 0 -460 107 -460 468c0 322 180 466 460 466c297 0 437 -146 437 -422zM478 187c38 0 82 13 112 24c-6 33 -8 74 -8 125v136s-50 13 -77 13c-86 0 -103 -39 -103 -159
c0 -111 31 -139 76 -139z" />
    <glyph glyph-name="periodcentered.cap" horiz-adv-x="248" 
d="M56 258v149h123v-149h-123z" />
    <glyph glyph-name="zeroinferior" unicode="&#x2080;" horiz-adv-x="265" 
d="M134 323c82 0 126 -41 126 -168c0 -128 -45 -166 -126 -166s-126 38 -126 166c0 127 45 168 126 168zM134 240c-21 0 -30 -14 -30 -85c0 -72 10 -83 30 -83c21 0 30 11 30 83c0 70 -8 85 -30 85z" />
    <glyph glyph-name="oneinferior" unicode="&#x2081;" horiz-adv-x="265" 
d="M21 239l104 73h84v-312h-92v211l-54 -37z" />
    <glyph glyph-name="twoinferior" unicode="&#x2082;" horiz-adv-x="265" 
d="M241 0h-224v79l78 68c33 28 47 45 47 65c0 17 -14 22 -41 22c-24 0 -78 -7 -78 -7l-4 86s69 10 113 10c78 0 107 -29 107 -97c0 -46 -18 -73 -58 -105l-45 -38h105v-83z" />
    <glyph glyph-name="threeinferior" unicode="&#x2083;" horiz-adv-x="265" 
d="M26 313c0 0 65 10 106 10c77 0 116 -28 116 -88c0 -39 -18 -62 -33 -71c25 -10 39 -28 39 -74c0 -68 -43 -101 -114 -101c-49 0 -118 9 -118 9l5 81s60 -7 96 -7c26 0 36 8 36 25c0 18 -12 23 -33 23h-66v75h65c14 0 26 9 26 24s-12 21 -33 21c-39 0 -87 -6 -87 -6z" />
    <glyph glyph-name="fourinferior" unicode="&#x2084;" horiz-adv-x="265" 
d="M146 0v39h-134v77l49 196h102l-59 -190h42l12 90h80v-90h16v-83h-16v-39h-92z" />
    <glyph glyph-name="fiveinferior" unicode="&#x2085;" horiz-adv-x="265" 
d="M40 312h200v-79h-127l-4 -40s27 9 48 9c58 0 94 -27 94 -99c0 -74 -41 -110 -115 -110c-50 0 -114 13 -114 13l7 75s55 -9 94 -9c20 0 32 8 32 26c0 19 -9 26 -23 26c-15 0 -34 -8 -34 -8l-69 9z" />
    <glyph glyph-name="sixinferior" unicode="&#x2086;" horiz-adv-x="265" 
d="M245 311l-5 -76s-61 6 -91 6c-31 0 -42 -15 -42 -41c0 -1 26 8 45 8c73 0 103 -37 103 -105c0 -72 -49 -114 -116 -114c-88 0 -126 57 -126 158c0 114 33 176 133 176c36 0 99 -12 99 -12zM136 132c-17 0 -29 -11 -29 -11c0 -30 9 -51 28 -51c18 0 27 13 27 32
c0 21 -8 30 -26 30z" />
    <glyph glyph-name="seveninferior" unicode="&#x2087;" horiz-adv-x="265" 
d="M23 221v91h220v-93l-98 -229l-104 17l95 199v15h-113z" />
    <glyph glyph-name="eightinferior" unicode="&#x2088;" horiz-adv-x="265" 
d="M133 323c81 0 121 -31 121 -89c0 -44 -24 -69 -33 -72c8 -2 37 -20 37 -70c0 -78 -46 -103 -125 -103s-125 25 -125 102c0 47 30 69 38 72c-8 3 -33 23 -33 72c0 57 38 88 120 88zM133 64c20 0 30 11 30 30c0 14 -8 25 -21 32h-18c-13 -7 -21 -18 -21 -33
c0 -18 10 -29 30 -29zM133 248c-19 0 -29 -8 -29 -25c0 -13 8 -24 20 -31h18c12 7 19 18 19 31c0 16 -8 25 -28 25z" />
    <glyph glyph-name="nineinferior" unicode="&#x2089;" horiz-adv-x="265" 
d="M23 3l6 75s47 -6 85 -6c33 0 43 17 43 39c0 1 -23 -6 -43 -6c-67 0 -102 36 -102 104c0 73 47 114 116 114c89 0 127 -57 127 -166c0 -114 -35 -168 -129 -168c-46 0 -103 14 -103 14zM131 177c13 0 30 9 30 9c0 37 -9 55 -29 55c-17 0 -27 -11 -27 -32
c0 -19 11 -32 26 -32z" />
    <glyph glyph-name="zero.dnom" horiz-adv-x="265" 
d="M134 223c82 0 126 -41 126 -168c0 -128 -45 -166 -126 -166s-126 38 -126 166c0 127 45 168 126 168zM134 140c-21 0 -30 -14 -30 -85c0 -72 10 -83 30 -83c21 0 30 11 30 83c0 70 -8 85 -30 85z" />
    <glyph glyph-name="one.dnom" horiz-adv-x="265" 
d="M21 139l104 73h84v-312h-92v211l-54 -37z" />
    <glyph glyph-name="two.dnom" horiz-adv-x="265" 
d="M241 -100h-224v79l78 68c33 28 47 45 47 65c0 17 -14 22 -41 22c-24 0 -78 -7 -78 -7l-4 86s69 10 113 10c78 0 107 -29 107 -97c0 -46 -18 -73 -58 -105l-45 -38h105v-83z" />
    <glyph glyph-name="three.dnom" horiz-adv-x="265" 
d="M26 213c0 0 65 10 106 10c77 0 116 -28 116 -88c0 -39 -18 -62 -33 -71c25 -10 39 -28 39 -74c0 -68 -43 -101 -114 -101c-49 0 -118 9 -118 9l5 81s60 -7 96 -7c26 0 36 8 36 25c0 18 -12 23 -33 23h-66v75h65c14 0 26 9 26 24s-12 21 -33 21c-39 0 -87 -6 -87 -6z" />
    <glyph glyph-name="four.dnom" horiz-adv-x="265" 
d="M146 -100v39h-134v77l49 196h102l-59 -190h42l12 90h80v-90h16v-83h-16v-39h-92z" />
    <glyph glyph-name="five.dnom" horiz-adv-x="265" 
d="M40 212h200v-79h-127l-4 -40s27 9 48 9c58 0 94 -27 94 -99c0 -74 -41 -110 -115 -110c-50 0 -114 13 -114 13l7 75s55 -9 94 -9c20 0 32 8 32 26c0 19 -9 26 -23 26c-15 0 -34 -8 -34 -8l-69 9z" />
    <glyph glyph-name="six.dnom" horiz-adv-x="265" 
d="M245 211l-5 -76s-61 6 -91 6c-31 0 -42 -15 -42 -41c0 -1 26 8 45 8c73 0 103 -37 103 -105c0 -72 -49 -114 -116 -114c-88 0 -126 57 -126 158c0 114 33 176 133 176c36 0 99 -12 99 -12zM136 32c-17 0 -29 -11 -29 -11c0 -30 9 -51 28 -51c18 0 27 13 27 32
c0 21 -8 30 -26 30z" />
    <glyph glyph-name="seven.dnom" horiz-adv-x="265" 
d="M23 121v91h220v-93l-98 -229l-104 17l95 199v15h-113z" />
    <glyph glyph-name="eight.dnom" horiz-adv-x="265" 
d="M133 223c81 0 121 -31 121 -89c0 -44 -24 -69 -33 -72c8 -2 37 -20 37 -70c0 -78 -46 -103 -125 -103s-125 25 -125 102c0 47 30 69 38 72c-8 3 -33 23 -33 72c0 57 38 88 120 88zM133 -36c20 0 30 11 30 30c0 14 -8 25 -21 32h-18c-13 -7 -21 -18 -21 -33
c0 -18 10 -29 30 -29zM133 148c-19 0 -29 -8 -29 -25c0 -13 8 -24 20 -31h18c12 7 19 18 19 31c0 16 -8 25 -28 25z" />
    <glyph glyph-name="nine.dnom" horiz-adv-x="265" 
d="M23 -97l6 75s47 -6 85 -6c33 0 43 17 43 39c0 1 -23 -6 -43 -6c-67 0 -102 36 -102 104c0 73 47 114 116 114c89 0 127 -57 127 -166c0 -114 -35 -168 -129 -168c-46 0 -103 14 -103 14zM131 77c13 0 30 9 30 9c0 37 -9 55 -29 55c-17 0 -27 -11 -27 -32
c0 -19 11 -32 26 -32z" />
    <glyph glyph-name="zero.numr" horiz-adv-x="265" 
d="M134 701c82 0 126 -41 126 -168c0 -128 -45 -166 -126 -166s-126 38 -126 166c0 127 45 168 126 168zM134 618c-21 0 -30 -14 -30 -85c0 -72 10 -83 30 -83c21 0 30 11 30 83c0 70 -8 85 -30 85z" />
    <glyph glyph-name="one.numr" horiz-adv-x="265" 
d="M13 617l104 73h84v-312h-92v211l-54 -37z" />
    <glyph glyph-name="two.numr" horiz-adv-x="265" 
d="M241 378h-224v79l78 68c33 28 47 45 47 65c0 17 -14 22 -41 22c-24 0 -78 -7 -78 -7l-4 86s69 10 113 10c78 0 107 -29 107 -97c0 -46 -18 -73 -58 -105l-45 -38h105v-83z" />
    <glyph glyph-name="three.numr" horiz-adv-x="265" 
d="M26 691c0 0 65 10 106 10c77 0 116 -28 116 -88c0 -39 -18 -62 -33 -71c25 -10 39 -28 39 -74c0 -68 -43 -101 -114 -101c-49 0 -118 9 -118 9l5 81s60 -7 96 -7c26 0 36 8 36 25c0 18 -12 23 -33 23h-66v75h65c14 0 26 9 26 24s-12 21 -33 21c-39 0 -87 -6 -87 -6z" />
    <glyph glyph-name="four.numr" horiz-adv-x="265" 
d="M146 378v39h-134v77l49 196h102l-59 -190h42l12 90h80v-90h16v-83h-16v-39h-92z" />
    <glyph glyph-name="five.numr" horiz-adv-x="265" 
d="M40 690h200v-79h-127l-4 -40s27 9 48 9c58 0 94 -27 94 -99c0 -74 -41 -110 -115 -110c-50 0 -114 13 -114 13l7 75s55 -9 94 -9c20 0 32 8 32 26c0 19 -9 26 -23 26c-15 0 -34 -8 -34 -8l-69 9z" />
    <glyph glyph-name="six.numr" horiz-adv-x="265" 
d="M245 689l-5 -76s-61 6 -91 6c-31 0 -42 -15 -42 -41c0 -1 26 8 45 8c73 0 103 -37 103 -105c0 -72 -49 -114 -116 -114c-88 0 -126 57 -126 158c0 114 33 176 133 176c36 0 99 -12 99 -12zM136 510c-17 0 -29 -11 -29 -11c0 -30 9 -51 28 -51c18 0 27 13 27 32
c0 21 -8 30 -26 30z" />
    <glyph glyph-name="seven.numr" horiz-adv-x="265" 
d="M23 599v91h220v-93l-98 -229l-104 17l95 199v15h-113z" />
    <glyph glyph-name="eight.numr" horiz-adv-x="265" 
d="M133 701c81 0 121 -31 121 -89c0 -44 -24 -69 -33 -72c8 -2 37 -20 37 -70c0 -78 -46 -103 -125 -103s-125 25 -125 102c0 47 30 69 38 72c-8 3 -33 23 -33 72c0 57 38 88 120 88zM133 442c20 0 30 11 30 30c0 14 -8 25 -21 32h-18c-13 -7 -21 -18 -21 -33
c0 -18 10 -29 30 -29zM133 626c-19 0 -29 -8 -29 -25c0 -13 8 -24 20 -31h18c12 7 19 18 19 31c0 16 -8 25 -28 25z" />
    <glyph glyph-name="nine.numr" horiz-adv-x="265" 
d="M23 381l6 75s47 -6 85 -6c33 0 43 17 43 39c0 1 -23 -6 -43 -6c-67 0 -102 36 -102 104c0 73 47 114 116 114c89 0 127 -57 127 -166c0 -114 -35 -168 -129 -168c-46 0 -103 14 -103 14zM131 555c13 0 30 9 30 9c0 37 -9 55 -29 55c-17 0 -27 -11 -27 -32
c0 -19 11 -32 26 -32z" />
    <glyph glyph-name="exclamdown.cap" horiz-adv-x="476" 
d="M306 539v-149h-123v149h123zM303 288l4 -449h-125l4 449h117z" />
    <glyph glyph-name="uni0315" unicode="&#x315;" horiz-adv-x="167" 
d="M134 692v-251h-110v251h110z" />
    <glyph glyph-name="hyphen.cap" horiz-adv-x="440" 
d="M70 222v108h300v-108h-300z" />
    <glyph glyph-name="gravecomb" unicode="&#x300;" horiz-adv-x="545" 
d="M140 766l244 -92l-33 -90l-247 81z" />
    <glyph glyph-name="gravecomb.cap" horiz-adv-x="532" 
d="M140 948l244 -92l-35 -96l-248 81z" />
    <glyph glyph-name="acutecomb" unicode="&#x301;" horiz-adv-x="833" 
d="M101 674l244 93l39 -108l-248 -80z" />
    <glyph glyph-name="acutecomb.cap" horiz-adv-x="548" 
d="M101 864l244 93l39 -108l-248 -80z" />
    <glyph glyph-name="uni0302" unicode="&#x302;" horiz-adv-x="833" 
d="M233 584l129 164h92l130 -164h-123l-52 69l-53 -69h-123z" />
    <glyph glyph-name="uni0302.cap" horiz-adv-x="478" 
d="M34 790l132 144h104l132 -144h-129l-54 53l-53 -53h-132z" />
    <glyph glyph-name="uni030C" unicode="&#x30c;" horiz-adv-x="833" 
d="M361 584l-128 164h124l52 -68l52 68h123l-128 -164h-95z" />
    <glyph glyph-name="uni030C.cap" horiz-adv-x="478" 
d="M402 931l-132 -144h-103l-133 144h131l54 -56l53 56h130z" />
    <glyph glyph-name="tildecomb" unicode="&#x303;" horiz-adv-x="761" 
d="M374 740l25 -87s-51 -59 -100 -59c-50 0 -116 46 -149 46c-27 0 -78 -41 -78 -41l-25 86s53 60 102 60c57 0 118 -45 147 -45c24 0 78 40 78 40z" />
    <glyph glyph-name="tildecomb.cap" horiz-adv-x="472" 
d="M394 935l25 -87s-53 -62 -102 -62c-50 0 -134 48 -167 48c-27 0 -80 -43 -80 -43l-25 87s54 62 103 62c58 0 137 -47 166 -47c24 0 80 42 80 42z" />
    <glyph glyph-name="uni0308" unicode="&#x308;" horiz-adv-x="833" 
d="M76 612v118h109v-118h-109zM287 612v118h109v-118h-109z" />
    <glyph glyph-name="uni0308.cap" horiz-adv-x="424" 
d="M73 803v118h109v-118h-109zM290 803v118h109v-118h-109z" />
    <glyph glyph-name="uni0304" unicode="&#x304;" horiz-adv-x="478" 
d="M76 626v99h315v-99h-315z" />
    <glyph glyph-name="uni0304.cap" horiz-adv-x="478" 
d="M66 808v99h335v-99h-335z" />
    <glyph glyph-name="uni0306" unicode="&#x306;" horiz-adv-x="478" 
d="M39 743h118c4 -35 26 -54 64 -54c41 0 62 19 65 54h118c-8 -91 -67 -156 -183 -156c-115 0 -174 65 -182 156z" />
    <glyph glyph-name="uni0306.cap" horiz-adv-x="478" 
d="M45 929h118c4 -30 26 -49 58 -49c35 0 56 19 59 49h119c-8 -83 -66 -145 -178 -145c-111 0 -168 62 -176 145z" />
    <glyph glyph-name="uni030A" unicode="&#x30a;" horiz-adv-x="833" 
d="M155 640c0 63 49 113 113 113c63 0 113 -50 113 -113c0 -64 -50 -112 -113 -112c-64 0 -113 48 -113 112zM232 640c0 -21 16 -37 37 -37c20 0 36 16 36 37s-16 37 -36 37c-21 0 -37 -16 -37 -37z" />
    <glyph glyph-name="uni030A.cap" horiz-adv-x="348" 
d="M299 741c0 -76 -63 -119 -139 -119c-78 0 -140 43 -140 119c0 77 62 119 140 119c76 0 139 -42 139 -119zM109 741c0 -24 19 -39 51 -39c31 0 50 15 50 39s-19 39 -50 39c-32 0 -51 -15 -51 -39z" />
    <glyph glyph-name="uni030B" unicode="&#x30b;" horiz-adv-x="717" 
d="M334 627l126 173l91 -59l-133 -172zM134 627l126 172l91 -58l-133 -172z" />
    <glyph glyph-name="uni030B.cap" horiz-adv-x="717" 
d="M350 786l92 175l103 -42l-100 -170zM137 787l92 175l104 -42l-101 -170z" />
    <glyph glyph-name="uni0307" unicode="&#x307;" horiz-adv-x="257" 
d="M72 574v119h114v-119h-114z" />
    <glyph glyph-name="uni0307.cap" horiz-adv-x="257" 
d="M72 778v119h114v-119h-114z" />
    <glyph glyph-name="uni0327" unicode="&#x327;" horiz-adv-x="745" 
d="M521 -127c0 -65 -41 -98 -105 -98c-43 0 -91 10 -91 10l4 68s34 -2 54 -2c27 0 40 9 40 30c0 20 -13 26 -40 26h-30v94h49v-42c79 -1 119 -15 119 -86z" />
    <glyph glyph-name="uni0328" unicode="&#x328;" horiz-adv-x="466" 
d="M395 -110l11 -92s-54 -11 -94 -11c-59 0 -103 35 -103 93c0 74 81 130 81 130l96 -9s-58 -51 -58 -85c0 -16 9 -30 26 -30c9 0 41 4 41 4z" />
  </font>
</defs>
</svg>
